<?xml version="1.0" standalone="no"?>
<!DOCTYPE svg PUBLIC "-//W3C//DTD SVG 1.1//EN" "http://www.w3.org/Graphics/SVG/1.1/DTD/svg11.dtd" >
<svg>
<metadata>
Created by FontForge 20090622 at Thu Sep 15 01:28:54 2016
 By deploy user
Copyright (c) The Font Bureau, Inc., 2008. All rights reserved.
</metadata>
<defs>
<font id="BentonSansCondensed-Regular" horiz-adv-x="564" >
  <font-face 
    font-family="BentonSansCondensed"
    font-weight="400"
    font-stretch="semi-condensed"
    units-per-em="1000"
    panose-1="2 0 5 6 2 0 0 2 0 4"
    ascent="787"
    descent="-213"
    x-height="528"
    cap-height="740"
    bbox="-72 -233 1433 967"
    underline-thickness="0"
    underline-position="0"
    unicode-range="U+0020-U+FB04"
  />
<missing-glyph horiz-adv-x="500" 
d="M0 0v700h500v-700h-500zM50 650v-600h400v600h-400z" />
    <glyph glyph-name="f_f" unicode="ff" horiz-adv-x="594" 
d="M395 0v461h-77v67h77v80q0 133 144 133q35 0 39 -2v-67q-1 0 -14.5 0.5t-15.5 0.5q-73 0 -73 -67v-78h99v-67h-99v-461h-80zM98 0v461h-77v67h77v80q0 133 144 133q35 0 39 -2v-67q-1 0 -14.5 0.5t-15.5 0.5q-73 0 -73 -67v-78h99v-67h-99v-461h-80z" />
    <glyph glyph-name="f_i" unicode="fi" horiz-adv-x="504" 
d="M354 633v87h81v-87h-81zM98 0v461h-77v67h77v80q0 65 36 99t105 34q33 0 37 -2v-67q-1 0 -13.5 0.5t-14.5 0.5q-70 0 -70 -67v-78h94v-67h-94v-461h-80zM355 0v528h79v-528h-79z" />
    <glyph glyph-name="f_l" unicode="fl" horiz-adv-x="504" 
d="M355 0v740h79v-740h-79zM98 0v461h-77v67h77v80q0 65 36 99t105 34q33 0 37 -2v-67q-1 0 -13.5 0.5t-14.5 0.5q-70 0 -70 -67v-78h94v-67h-94v-461h-80z" />
    <glyph glyph-name="f_f_i" unicode="ffi" horiz-adv-x="814" 
d="M663 633v87h82v-87h-82zM395 0v461h-77v67h77v80q0 133 144 133q35 0 39 -2v-67q-1 0 -14.5 0.5t-15.5 0.5q-73 0 -73 -67v-78h99v-67h-99v-461h-80zM98 0v461h-77v67h77v80q0 133 144 133q35 0 39 -2v-67q-1 0 -14.5 0.5t-15.5 0.5q-73 0 -73 -67v-78h99v-67h-99v-461
h-80zM663 0v528h81v-528h-81z" />
    <glyph glyph-name="f_f_l" unicode="ffl" horiz-adv-x="814" 
d="M663 0v740h81v-740h-81zM395 0v461h-77v67h77v80q0 133 144 133q35 0 39 -2v-67q-1 0 -14.5 0.5t-15.5 0.5q-73 0 -73 -67v-78h99v-67h-99v-461h-80zM98 0v461h-77v67h77v80q0 133 144 133q35 0 39 -2v-67q-1 0 -14.5 0.5t-15.5 0.5q-73 0 -73 -67v-78h99v-67h-99v-461
h-80z" />
    <glyph glyph-name="f_j" unicode="fj" horiz-adv-x="517" 
d="M366 633v87h82v-87h-82zM98 0v461h-77v67h77v80q0 133 144 133q35 0 39 -2v-67q-1 0 -14.5 0.5t-15.5 0.5q-73 0 -73 -67v-78h99v-67h-99v-461h-80zM337 -201q-32 0 -42 4v63q12 -2 28 -2q43 0 43 57v607h81v-610q0 -61 -25 -90t-85 -29z" />
    <glyph glyph-name=".notdef" horiz-adv-x="500" 
d="M0 0v700h500v-700h-500zM50 650v-600h400v600h-400z" />
    <glyph glyph-name=".null" horiz-adv-x="0" 
 />
    <glyph glyph-name="nonmarkingreturn" horiz-adv-x="333" 
 />
    <glyph glyph-name="space" unicode=" " horiz-adv-x="199" 
 />
    <glyph glyph-name="space" unicode="&#xa0;" horiz-adv-x="199" 
 />
    <glyph glyph-name="exclam" unicode="!" horiz-adv-x="281" 
d="M112 203l-20 537h98l-20 -537h-58zM93 0v100h96v-100h-96z" />
    <glyph glyph-name="quotedbl" unicode="&#x22;" horiz-adv-x="367" 
d="M80 486l-15 199v55h78v-55l-14 -199h-49zM239 486l-14 199v55h76v-55l-14 -199h-48z" />
    <glyph glyph-name="numbersign" unicode="#" horiz-adv-x="612" 
d="M217 279h142l32 182h-142zM93 0l38 214h-98v66h110l32 180h-105v66h117l38 214h74l-38 -214h142l38 214h74l-38 -214h101v-66h-113l-32 -180h108v-66h-120l-37 -214h-75l38 214h-141l-38 -214h-75z" />
    <glyph glyph-name="dollar" unicode="$" horiz-adv-x="559" 
d="M248 672q-48 -5 -74 -33.5t-26 -70.5q0 -45 25.5 -74.5t74.5 -55.5v234zM306 67q53 6 84.5 34t31.5 80t-30 84.5t-86 59.5v-258zM245 0q-142 16 -199 167l71 26q49 -109 131 -124v283q-42 19 -67 33.5t-55 39.5t-44 59t-14 79q0 74 47.5 123t129.5 56v77h64v-78
q122 -17 174 -148l-69 -31q-21 47 -46.5 73t-61.5 34v-258q37 -16 58 -26.5t51.5 -31t46.5 -41.5t28.5 -53.5t12.5 -71.5q0 -80 -52 -130.5t-142 -57.5v-92h-64v93z" />
    <glyph glyph-name="percent" unicode="%" horiz-adv-x="835" 
d="M191 299q-70 0 -108 58.5t-38 168.5t38 168t108 58t107 -58t37 -168q0 -111 -37 -169t-107 -58zM194 0l376 740h70l-376 -740h-70zM191 362q39 0 57 39.5t18 124.5q0 163 -75 163q-39 0 -57.5 -39.5t-18.5 -123.5q0 -164 76 -164zM646 -10q-70 0 -108 58.5t-38 168.5
t38 168t108 58q69 0 106 -58t37 -168q0 -111 -37 -169t-106 -58zM646 52q39 0 57 40t18 125q0 162 -75 162q-40 0 -58.5 -39t-18.5 -123q0 -165 77 -165z" />
    <glyph glyph-name="ampersand" unicode="&#x26;" horiz-adv-x="623" 
d="M245 448q53 37 81.5 74t28.5 85q0 79 -66 79q-39 0 -59 -26.5t-20 -72.5q0 -64 35 -139zM251 54q81 0 132 54q-50 57 -117 153q-41 60 -56 85q-99 -75 -99 -166q0 -60 35 -93t105 -33zM248 -14q-108 0 -163.5 49t-55.5 139q0 74 39.5 127.5t109.5 102.5q-46 92 -46 178
q0 76 41.5 124t115.5 48q70 0 105 -40t35 -101q0 -48 -23.5 -90.5t-53.5 -70t-79 -60.5q9 -15 55 -87q68 -96 102 -134q44 79 55 201h75q-18 -153 -77 -249q65 -58 122 -59v-74q-90 3 -170 71q-75 -75 -187 -75z" />
    <glyph glyph-name="quotesingle" unicode="'" horiz-adv-x="210" 
d="M80 486l-15 199v55h78v-55l-14 -199h-49z" />
    <glyph glyph-name="parenleft" unicode="(" horiz-adv-x="349" 
d="M262 -205q-213 208 -213 479q0 269 213 477l47 -39q-174 -194 -174 -438q0 -125 46.5 -238.5t128.5 -201.5z" />
    <glyph glyph-name="parenright" unicode=")" horiz-adv-x="349" 
d="M86 -205l-47 39q175 193 175 439q0 125 -47 238t-128 201l47 39q213 -208 213 -478q0 -268 -213 -478z" />
    <glyph glyph-name="asterisk" unicode="*" horiz-adv-x="463" 
d="M161 368l-54 32l95 138l-165 -13v60l166 -13l-96 139l54 33l71 -154l70 154l53 -33l-95 -139l166 13v-60l-166 13l95 -138l-53 -32l-70 153z" />
    <glyph glyph-name="plus" unicode="+" horiz-adv-x="535" 
d="M232 83v212h-183v69h183v213h71v-213h183v-69h-183v-212h-71z" />
    <glyph glyph-name="comma" unicode="," horiz-adv-x="237" 
d="M81 -102l27 102h-37v104h93v-94l-45 -112h-38z" />
    <glyph glyph-name="hyphen" unicode="-" horiz-adv-x="308" 
d="M52 279v68h205v-68h-205z" />
    <glyph glyph-name="hyphen" unicode="&#xad;" horiz-adv-x="308" 
d="M52 279v68h205v-68h-205z" />
    <glyph glyph-name="period" unicode="." horiz-adv-x="237" 
d="M71 0v104h93v-104h-93z" />
    <glyph glyph-name="slash" unicode="/" horiz-adv-x="483" 
d="M17 0l366 740h83l-366 -740h-83z" />
    <glyph glyph-name="zero" unicode="0" horiz-adv-x="563" 
d="M282 -14q-116 0 -177 98.5t-61 285.5t61 285.5t177 98.5t176.5 -98.5t60.5 -285.5t-60.5 -285.5t-176.5 -98.5zM282 59q154 0 154 311q0 310 -154 310q-155 0 -155 -310q0 -311 155 -311z" />
    <glyph glyph-name="one" unicode="1" horiz-adv-x="381" 
d="M46 0v73h119v580q-55 -34 -117 -34v73q80 3 120 48h78v-667h106v-73h-306z" />
    <glyph glyph-name="two" unicode="2" horiz-adv-x="504" 
d="M37 0v16q0 65 18.5 118.5t48 89.5t65.5 67.5t72 58.5t65.5 55t48 66t18.5 83q0 60 -29.5 93t-84.5 33q-93 0 -143 -123l-69 29q69 168 217 168q91 0 140.5 -53t49.5 -143q0 -49 -18 -92t-46.5 -75t-63.5 -61.5l-69.5 -57t-63.5 -56t-47 -65.5t-18 -78h327v-73h-418z" />
    <glyph glyph-name="three" unicode="3" horiz-adv-x="511" 
d="M245 -12q-168 0 -230 162l70 29q25 -65 63 -92.5t94 -27.5q66 0 104 39t38 103q0 79 -45.5 118t-145.5 39h-26v68h43q82 0 119.5 35t37.5 104q0 53 -28 84.5t-89 31.5q-85 0 -145 -84l-59 40q82 117 212 117q94 0 142 -51t48 -131q0 -68 -33.5 -114t-87.5 -63
q138 -44 138 -194q0 -94 -61 -153.5t-159 -59.5z" />
    <glyph glyph-name="four" unicode="4" horiz-adv-x="529" 
d="M324 0v173h-299v64l286 503h93v-493h104v-74h-104v-173h-80zM111 247h214v380h-1z" />
    <glyph glyph-name="five" unicode="5" horiz-adv-x="504" 
d="M248 -14q-144 0 -219 149l68 33q55 -111 149 -111q71 0 106.5 52t35.5 133q0 85 -34.5 131t-94.5 46q-82 0 -134 -81l-63 14l24 388h346l-4 -75h-274l-17 -247q47 70 140 70q88 0 140 -62.5t52 -179.5q0 -121 -59 -190.5t-162 -69.5z" />
    <glyph glyph-name="six" unicode="6" horiz-adv-x="526" 
d="M275 -14q-106 0 -168.5 93.5t-62.5 277.5q0 180 63.5 288.5t183.5 108.5q107 0 172 -95l-63 -42q-47 66 -112 66q-80 0 -121 -81t-43 -219q73 83 171 83q99 0 148 -63.5t49 -169.5q0 -109 -58 -178t-159 -69zM279 56q63 0 98 45.5t35 129.5q0 163 -129 163
q-93 0 -158 -87q16 -251 154 -251z" />
    <glyph glyph-name="seven" unicode="7" horiz-adv-x="470" 
d="M93 0l260 665h-316v75h402v-69l-262 -671h-84z" />
    <glyph glyph-name="eight" unicode="8" horiz-adv-x="525" 
d="M263 -15q-111 0 -171.5 54t-60.5 137q0 72 42.5 120t122.5 91q-66 39 -101 82.5t-35 107.5q0 74 53.5 126t149.5 52q97 0 149.5 -51.5t52.5 -126.5q0 -61 -34 -102.5t-101 -78.5q82 -45 123 -93t41 -125q0 -83 -61.5 -138t-169.5 -55zM268 428q61 33 89 65.5t28 79.5
t-30 80t-91 33q-60 0 -91.5 -32t-31.5 -79q0 -48 30.5 -80t96.5 -67zM263 52q67 0 107.5 36t40.5 95q0 55 -37.5 93t-115.5 80q-75 -42 -110 -81t-35 -93q0 -58 41 -94t109 -36z" />
    <glyph glyph-name="nine" unicode="9" horiz-adv-x="526" 
d="M245 346q92 0 155 87q-7 125 -46.5 187.5t-105.5 62.5q-65 0 -99.5 -44.5t-34.5 -129.5q0 -163 131 -163zM237 -14q-113 0 -180 100l62 42q26 -35 52.5 -53.5t67.5 -18.5q79 0 120.5 81.5t41.5 219.5q-71 -83 -170 -83q-98 0 -147.5 63.5t-49.5 169.5q0 108 58.5 177.5
t159.5 69.5q107 0 168.5 -93.5t61.5 -277.5q0 -181 -62.5 -289t-182.5 -108z" />
    <glyph glyph-name="colon" unicode=":" horiz-adv-x="240" 
d="M73 424v104h93v-104h-93zM73 0v104h93v-104h-93z" />
    <glyph glyph-name="semicolon" unicode=";" horiz-adv-x="240" 
d="M73 424v104h93v-104h-93zM82 -102l27 102h-36v104h93v-93l-46 -113h-38z" />
    <glyph glyph-name="less" unicode="&#x3c;" horiz-adv-x="571" 
d="M508 71l-450 223v60l450 223v-75l-367 -178l367 -178v-75z" />
    <glyph glyph-name="equal" unicode="=" horiz-adv-x="535" 
d="M63 404v67h409v-67h-409zM63 179v67h409v-67h-409z" />
    <glyph glyph-name="greater" unicode="&#x3e;" horiz-adv-x="571" 
d="M64 71v75l366 178l-366 178v75l451 -223v-60z" />
    <glyph glyph-name="question" unicode="?" horiz-adv-x="466" 
d="M177 203q-1 19 -1 60q0 58 22 95.5t67 76.5q43 36 61.5 66t18.5 75q0 49 -28.5 77.5t-80.5 28.5q-83 0 -136 -104l-67 31q70 145 208 145q87 0 136 -48.5t49 -123.5q0 -44 -16 -80.5t-33 -54.5t-51 -47q-50 -46 -65 -81.5t-15 -115.5h-69zM163 0v101h97v-101h-97z" />
    <glyph glyph-name="at" unicode="@" horiz-adv-x="744" 
d="M371 -14q-151 0 -241.5 101.5t-90.5 281.5q0 176 93 280.5t241 104.5q147 0 239.5 -102.5t92.5 -271.5q0 -108 -40.5 -166t-110.5 -58q-87 0 -109 78q-63 -75 -136 -75q-59 0 -92 43t-32 121q0 118 48 192.5t126 74.5q65 0 106 -54l6 45h65l-37 -293q-11 -86 62 -86
q43 0 69.5 43.5t26.5 133.5q0 151 -78.5 241t-205.5 90q-128 0 -206.5 -91t-78.5 -249q0 -161 77.5 -251t206.5 -90q94 0 176 46l20 -36q-85 -53 -197 -53zM326 215q54 0 106 58l26 207q-38 52 -93 52q-49 0 -80 -56t-32 -146q-1 -115 73 -115z" />
    <glyph glyph-name="A" unicode="A" 
d="M375 286l-32 113q-39 137 -62 228h-2q-23 -91 -62 -226l-32 -115h190zM164 213l-59 -213h-79l217 743h78l217 -743h-84l-59 213h-231z" />
    <glyph glyph-name="B" unicode="B" horiz-adv-x="580" 
d="M76 0v740h216q222 0 222 -186q0 -72 -33 -113t-84 -56v-2q137 -29 137 -182q0 -96 -60 -148.5t-165 -52.5h-233zM159 415h128q147 0 147 125q0 67 -34 96t-111 29h-130v-250zM159 73h148q146 0 146 136q0 73 -41 104.5t-121 31.5h-132v-272z" />
    <glyph glyph-name="C" unicode="C" horiz-adv-x="586" 
d="M309 -13q-124 0 -193.5 99t-69.5 286q0 182 71.5 282t192.5 100q185 0 229 -234l-78 -14q-18 87 -53.5 129t-99.5 42q-85 0 -131.5 -80.5t-46.5 -223.5q0 -150 46.5 -230.5t133.5 -80.5q65 0 102.5 43t57.5 137l77 -13q-23 -113 -81.5 -177.5t-156.5 -64.5z" />
    <glyph glyph-name="D" unicode="D" horiz-adv-x="599" 
d="M76 0v740h163q157 0 235.5 -89t78.5 -280t-79.5 -281t-234.5 -90h-163zM160 75h90q113 0 166 70.5t53 225.5q0 152 -53.5 222t-166.5 70h-89v-588z" />
    <glyph glyph-name="E" unicode="E" horiz-adv-x="508" 
d="M76 0v740h378v-77h-294v-234h215v-76h-215v-277h311v-76h-395z" />
    <glyph glyph-name="F" unicode="F" horiz-adv-x="478" 
d="M76 0v740h373v-77h-289v-239h211v-76h-211v-348h-84z" />
    <glyph glyph-name="G" unicode="G" horiz-adv-x="611" 
d="M303 -13q-123 0 -190 100.5t-67 284.5q0 180 70 281t194 101q181 0 228 -234l-76 -15q-19 89 -55 130.5t-99 41.5q-83 0 -130.5 -78t-47.5 -225q0 -155 47 -233.5t135 -78.5q74 0 115 56t43 164h-141v72h216v-354h-67v101h-1q-20 -48 -64.5 -81t-109.5 -33z" />
    <glyph glyph-name="H" unicode="H" horiz-adv-x="620" 
d="M76 0v740h84v-311h300v311h84v-740h-84v352h-300v-352h-84z" />
    <glyph glyph-name="I" unicode="I" horiz-adv-x="248" 
d="M82 0v740h84v-740h-84z" />
    <glyph glyph-name="J" unicode="J" horiz-adv-x="431" 
d="M188 -11q-94 0 -169 58l40 61q59 -46 123 -46q43 0 68.5 25.5t25.5 78.5v574h84v-575q0 -85 -46 -130.5t-126 -45.5z" />
    <glyph glyph-name="K" unicode="K" horiz-adv-x="568" 
d="M76 0v740h84v-388q18 31 77 114l192 274h89l-205 -287l238 -453h-89l-201 382l-101 -138v-244h-84z" />
    <glyph glyph-name="L" unicode="L" horiz-adv-x="484" 
d="M76 0v740h84v-664h293v-76h-377z" />
    <glyph glyph-name="M" unicode="M" horiz-adv-x="735" 
d="M76 0v740h105l187 -623h2l183 623h105v-740h-81v606h-2q-11 -58 -51 -188l-127 -418h-66l-127 420q-34 109 -51 187h-2v-607h-75z" />
    <glyph glyph-name="N" unicode="N" horiz-adv-x="627" 
d="M76 0v740h98l232 -453l65 -131h2v584h77v-740h-77l-248 477q-42 81 -70 140h-2v-617h-77z" />
    <glyph glyph-name="O" unicode="O" horiz-adv-x="627" 
d="M314 -14q-120 0 -194 101t-74 283t74 283t194 101q119 0 193 -101t74 -283t-74 -283t-193 -101zM314 62q85 0 133.5 81t48.5 227t-48.5 226.5t-133.5 80.5q-86 0 -135 -80.5t-49 -226.5t49 -227t135 -81z" />
    <glyph glyph-name="P" unicode="P" horiz-adv-x="553" 
d="M76 0v740h207q106 0 167 -52t61 -159q0 -116 -63.5 -168t-169.5 -52h-119v-309h-83zM159 382h122q75 0 112 34t37 110q0 73 -36.5 105t-113.5 32h-121v-281z" />
    <glyph glyph-name="Q" unicode="Q" horiz-adv-x="627" 
d="M466 -188q-194 0 -196 181q-102 15 -163 113.5t-61 263.5q0 182 74.5 283t194.5 101q118 0 192 -101t74 -283q0 -169 -63 -266.5t-167 -111.5q4 -63 36.5 -85.5t97.5 -22.5h43v-72h-62zM315 60q84 0 132.5 82t48.5 228t-48.5 226.5t-132.5 80.5q-86 0 -135.5 -80.5
t-49.5 -226.5t49.5 -228t135.5 -82z" />
    <glyph glyph-name="R" unicode="R" horiz-adv-x="570" 
d="M159 387h122q76 0 112.5 32.5t36.5 109.5q0 72 -36.5 103t-112.5 31h-122v-276zM76 0v740h210q109 0 167 -52t58 -158q0 -84 -39 -134t-101 -66l150 -330h-86l-145 315h-131v-315h-83z" />
    <glyph glyph-name="S" unicode="S" horiz-adv-x="547" 
d="M279 -12q-171 0 -246 175l72 33q58 -134 174 -134q65 0 102 32.5t37 86.5q0 31 -11.5 55.5t-36.5 44t-45.5 31.5t-58.5 30l-48.5 24t-44 24.5t-44 32t-31.5 37t-25 50t-7 60.5q0 80 57.5 132t143.5 52q155 0 221 -156l-72 -35q-51 117 -150 117q-52 0 -84.5 -30
t-32.5 -77q0 -31 11 -55.5t36 -44t45 -31.5t57 -30l42 -20t39 -21t39.5 -25.5t31.5 -29t27.5 -36.5t15.5 -43.5t7 -53.5q0 -83 -60.5 -139t-160.5 -56z" />
    <glyph glyph-name="T" unicode="T" horiz-adv-x="519" 
d="M217 0v663h-191v77h466v-77h-191v-663h-84z" />
    <glyph glyph-name="U" unicode="U" horiz-adv-x="602" 
d="M301 -13q-119 0 -175 67.5t-56 188.5v497h84v-486q0 -96 34 -144.5t114 -48.5q79 0 113.5 48t34.5 143v488h81v-495q0 -119 -56.5 -188.5t-173.5 -69.5z" />
    <glyph glyph-name="V" unicode="V" horiz-adv-x="559" 
d="M240 -3l-214 743h84l111 -400q30 -105 60 -225h2q14 59 60 223l111 402h79l-214 -743h-79z" />
    <glyph glyph-name="W" unicode="W" horiz-adv-x="777" 
d="M195 -3l-165 743h80l80 -380q26 -120 44 -219h2q8 51 42 219l75 380h76l78 -390q30 -144 41 -209h2q14 81 41 209l81 390h75l-165 -743h-71l-121 596h-2l-122 -596h-71z" />
    <glyph glyph-name="X" unicode="X" horiz-adv-x="555" 
d="M18 0l215 400l-182 340h90l141 -270l138 270h81l-180 -338l215 -402h-88l-174 333l-174 -333h-82z" />
    <glyph glyph-name="Y" unicode="Y" horiz-adv-x="526" 
d="M221 0v305l-205 435h86l162 -358h2l162 358h81l-204 -433v-307h-84z" />
    <glyph glyph-name="Z" unicode="Z" horiz-adv-x="527" 
d="M33 0v63l354 600h-330v77h428v-63l-352 -601h352v-76h-452z" />
    <glyph glyph-name="bracketleft" unicode="[" horiz-adv-x="339" 
d="M71 -200v940h232v-63h-150v-814h150v-63h-232z" />
    <glyph glyph-name="backslash" unicode="\" horiz-adv-x="478" 
d="M380 0l-366 740h84l365 -740h-83z" />
    <glyph glyph-name="bracketright" unicode="]" horiz-adv-x="339" 
d="M35 -200v63h150v814h-150v63h232v-940h-232z" />
    <glyph glyph-name="asciicircum" unicode="^" horiz-adv-x="571" 
d="M65 370l192 370h57l193 -370h-76l-145 285l-145 -285h-76z" />
    <glyph glyph-name="underscore" unicode="_" horiz-adv-x="430" 
d="M-3 -130v65h436v-65h-436z" />
    <glyph glyph-name="grave" unicode="`" horiz-adv-x="444" 
d="M208 584l-120 156h94l80 -156h-54z" />
    <glyph glyph-name="a" unicode="a" horiz-adv-x="471" 
d="M189 59q78 0 142 69v162q-216 -46 -216 -154q0 -77 74 -77zM162 -7q-59 0 -92.5 35t-33.5 97q0 164 295 223v32q0 88 -79 88q-83 0 -156 -71l-45 49q93 93 209 93q150 0 150 -159v-250q0 -95 13 -130h-81q-11 38 -11 68q-69 -75 -169 -75z" />
    <glyph glyph-name="b" unicode="b" horiz-adv-x="508" 
d="M285 -8q-82 0 -140 71v-63h-81v739h81v-279q64 79 145 79t130.5 -68.5t49.5 -205.5t-51 -205t-134 -68zM270 59q55 0 86.5 50t31.5 155q0 102 -32 153.5t-87 51.5q-35 0 -63.5 -19t-60.5 -55v-264q59 -72 125 -72z" />
    <glyph glyph-name="c" unicode="c" horiz-adv-x="456" 
d="M240 -11q-87 0 -144 72t-57 203q0 135 58.5 205t147.5 70q74 0 115 -42t62 -115l-74 -20q-15 53 -39 80t-66 27q-54 0 -88.5 -51.5t-34.5 -153.5q0 -97 32.5 -152t90.5 -55q82 0 111 109l71 -19q-46 -158 -185 -158z" />
    <glyph glyph-name="d" unicode="d" horiz-adv-x="508" 
d="M241 59q61 0 124 72v265q-62 73 -125 73q-56 0 -87.5 -51t-31.5 -156q0 -102 32 -152.5t88 -50.5zM219 -8q-82 0 -130.5 67.5t-48.5 204.5t50.5 206t132.5 69q83 0 142 -74v275h80v-610q0 -95 13 -130h-83q-10 28 -10 69q-65 -77 -146 -77z" />
    <glyph glyph-name="e" unicode="e" horiz-adv-x="470" 
d="M242 -11q-90 0 -146.5 71t-56.5 204q0 135 59 205t145 70q89 0 138.5 -70t49.5 -202v-20h-312q2 -92 35.5 -141t91.5 -49q44 0 72.5 23t52.5 69l56 -35q-61 -125 -185 -125zM120 308h234q-4 75 -32 118.5t-80 43.5q-48 0 -82 -41t-40 -121z" />
    <glyph glyph-name="f" unicode="f" horiz-adv-x="297" 
d="M98 0v461h-77v67h77v80q0 133 144 133q35 0 39 -2v-67q-1 0 -14.5 0.5t-15.5 0.5q-73 0 -73 -67v-78h99v-67h-99v-461h-80z" />
    <glyph glyph-name="g" unicode="g" horiz-adv-x="493" 
d="M230 219q50 0 78 34.5t28 93.5q0 60 -27.5 94t-79.5 34q-50 0 -78.5 -34.5t-28.5 -93.5t28.5 -93.5t79.5 -34.5zM362 486q45 39 106 49v-76q-44 0 -80 -14q24 -43 24 -97q0 -87 -50.5 -138t-131.5 -51q-40 0 -72 12q-30 -17 -30 -41q0 -16 12.5 -23.5t48.5 -12.5l82 -10
q97 -11 139 -42.5t42 -92.5q0 -69 -64 -109t-165 -40q-208 0 -208 127q0 77 86 118q-44 24 -44 66q0 48 57 83q-70 54 -70 154q0 85 52 138t133 53q83 0 133 -53zM157 29q-67 -31 -67 -90q0 -42 32.5 -61.5t109.5 -19.5q65 0 105 21.5t40 59.5q0 34 -25.5 51.5t-93.5 25.5
l-86 11q-2 1 -7 1t-8 1z" />
    <glyph glyph-name="h" unicode="h" horiz-adv-x="502" 
d="M64 0v740h81v-285q31 34 75.5 59t91.5 25q64 0 97 -37.5t33 -109.5v-392h-80v375q0 48 -17.5 70.5t-57.5 22.5q-68 0 -142 -76v-392h-81z" />
    <glyph glyph-name="i" unicode="i" horiz-adv-x="220" 
d="M69 633v87h82v-87h-82zM69 0v528h81v-528h-81z" />
    <glyph glyph-name="j" unicode="j" horiz-adv-x="220" 
d="M69 633v87h82v-87h-82zM40 -201q-32 0 -42 4v63q12 -2 28 -2q43 0 43 57v607h81v-610q0 -61 -25 -90t-85 -29z" />
    <glyph glyph-name="k" unicode="k" horiz-adv-x="459" 
d="M64 0v740h80v-484q5 10 73 104l121 168h83l-143 -193l161 -335h-83l-128 269l-84 -111v-158h-80z" />
    <glyph glyph-name="l" unicode="l" horiz-adv-x="220" 
d="M69 0v740h81v-740h-81z" />
    <glyph glyph-name="m" unicode="m" horiz-adv-x="779" 
d="M64 0v528h81v-73q78 84 161 84q100 0 120 -84q78 84 165 84q128 0 128 -147v-392h-80v375q0 48 -17 70.5t-57 22.5q-60 0 -133 -71v-397h-81v375q0 49 -15.5 71t-55.5 22q-60 0 -135 -75v-393h-81z" />
    <glyph glyph-name="n" unicode="n" horiz-adv-x="502" 
d="M64 0v528h81v-73q31 34 75.5 59t91.5 25q64 0 97 -37.5t33 -109.5v-392h-80v375q0 48 -17.5 70.5t-57.5 22.5q-68 0 -142 -76v-392h-81z" />
    <glyph glyph-name="o" unicode="o" horiz-adv-x="495" 
d="M248 -11q-92 0 -150.5 72t-58.5 203q0 132 58.5 203.5t150.5 71.5t150 -71.5t58 -203.5q0 -131 -58.5 -203t-149.5 -72zM248 57q62 0 94.5 55.5t32.5 151.5q0 91 -32 148t-95 57q-62 0 -95 -55t-33 -150q0 -92 31.5 -149.5t96.5 -57.5z" />
    <glyph glyph-name="p" unicode="p" horiz-adv-x="508" 
d="M270 59q55 0 86.5 50t31.5 155q0 102 -32 153.5t-87 51.5q-61 0 -124 -73v-265q59 -72 125 -72zM64 -200v728h81v-67q64 78 145 78t130 -68.5t49 -205.5t-50.5 -205t-133.5 -68t-140 72v-264h-81z" />
    <glyph glyph-name="q" unicode="q" horiz-adv-x="508" 
d="M363 -200v269q-66 -78 -144 -78q-82 0 -130.5 67.5t-48.5 204.5t49.5 206.5t130.5 69.5q78 0 143 -77v66h81v-728h-81zM241 58q34 0 61.5 18t60.5 54v265q-64 74 -123 74q-56 0 -87.5 -50.5t-31.5 -154.5q0 -103 32.5 -154.5t87.5 -51.5z" />
    <glyph glyph-name="r" unicode="r" horiz-adv-x="345" 
d="M64 0v528h81v-91h2q58 102 167 102h11l-5 -76q-15 1 -19 1q-50 0 -91 -29.5t-65 -78.5v-356h-81z" />
    <glyph glyph-name="s" unicode="s" horiz-adv-x="435" 
d="M217 -11q-130 0 -197 108l55 40q54 -82 143 -82q50 0 77.5 20.5t27.5 57.5q0 35 -28.5 58.5t-68.5 37.5t-80.5 31t-69 51t-28.5 86q0 63 46.5 102.5t120.5 39.5q112 0 174 -95l-54 -42q-46 70 -121 70q-43 0 -65.5 -19.5t-22.5 -51.5q0 -36 28 -58.5t68 -36.5t80.5 -30
t68.5 -51t28 -88q0 -67 -52 -107.5t-130 -40.5z" />
    <glyph glyph-name="t" unicode="t" horiz-adv-x="325" 
d="M228 -6q-72 0 -102 28.5t-30 96.5v342h-78v67h78v188h80v-188h116v-67h-116v-324q0 -42 14.5 -60t55.5 -18q28 0 45 7v-65q-21 -7 -63 -7z" />
    <glyph glyph-name="u" unicode="u" horiz-adv-x="502" 
d="M190 -11q-64 0 -97 37.5t-33 109.5v392h80v-377q0 -48 18 -70t60 -22q65 0 139 76v393h81v-528h-81v73q-76 -84 -167 -84z" />
    <glyph glyph-name="v" unicode="v" horiz-adv-x="441" 
d="M178 -2l-160 530h81l86 -300l38 -142h2q14 58 37 142l85 300h76l-160 -530h-85z" />
    <glyph glyph-name="w" unicode="w" horiz-adv-x="638" 
d="M154 -2l-135 530h78l65 -265q13 -54 33 -147h2q12 68 32 150l58 262h71l59 -260q23 -94 33 -153h2q11 55 34 153l62 260h71l-134 -530h-71l-93 403h-2l-95 -403h-70z" />
    <glyph glyph-name="x" unicode="x" horiz-adv-x="437" 
d="M18 0l159 276l-143 252h84l107 -191l101 191h78l-143 -250l159 -278h-84l-120 218l-120 -218h-78z" />
    <glyph glyph-name="y" unicode="y" horiz-adv-x="455" 
d="M88 -201q-46 0 -82 12l16 64q35 -8 64 -8q33 0 50.5 18.5t31.5 63.5l15 46l-165 533h83l80 -276q22 -75 43 -159h2q18 71 45 165l78 270h77l-182 -586q-25 -77 -58 -110t-98 -33z" />
    <glyph glyph-name="z" unicode="z" horiz-adv-x="430" 
d="M32 0v52l257 409h-235v67h331v-53l-257 -409h268v-66h-364z" />
    <glyph glyph-name="braceleft" unicode="{" horiz-adv-x="335" 
d="M245 -200q-123 0 -123 137v185q0 70 -21 93.5t-73 23.5v62q52 0 73 24t21 93v185q0 137 125 137h61v-63h-37q-67 0 -67 -74v-189q0 -69 -18 -98.5t-57 -44.5v-2q39 -15 57 -44.5t18 -98.5v-190q0 -38 16 -55.5t51 -17.5h37v-63h-63z" />
    <glyph glyph-name="bar" unicode="|" horiz-adv-x="308" 
d="M114 -200v940h80v-940h-80z" />
    <glyph glyph-name="braceright" unicode="}" horiz-adv-x="335" 
d="M27 -200v63h37q35 0 51 17.5t16 55.5v193q0 68 17.5 96.5t57.5 43.5v2q-40 15 -57.5 43.5t-17.5 96.5v192q0 74 -67 74h-37v63h65q64 0 92.5 -33.5t28.5 -100.5v-188q0 -69 21 -93t73 -24v-62q-52 0 -73 -23.5t-21 -93.5v-188q0 -67 -28.5 -100.5t-91.5 -33.5h-66z" />
    <glyph glyph-name="asciitilde" unicode="~" horiz-adv-x="556" 
d="M395 261q-43 0 -125.5 30t-107.5 30q-37 0 -44 -46l-58 7q12 110 101 110q43 0 125 -30t106 -30q41 0 46 46l58 -7q-12 -110 -101 -110z" />
    <glyph glyph-name="exclamdown" unicode="&#xa1;" horiz-adv-x="281" 
d="M91 640v100h96v-100h-96zM91 0l19 537h58l20 -537h-97z" />
    <glyph glyph-name="cent" unicode="&#xa2;" horiz-adv-x="456" 
d="M248 472h-5q-54 0 -88.5 -52.5t-34.5 -155.5q0 -116 46 -173zM146 15q-49 31 -78 94.5t-29 154.5q0 135 58.5 205t147.5 70h14l20 93h62l-23 -107q72 -31 104 -143l-74 -20q-18 64 -48 90l-86 -394q12 -4 29 -4q81 0 111 112l71 -19q-46 -158 -185 -158q-21 0 -37 4
l-25 -113h-61z" />
    <glyph glyph-name="sterling" unicode="&#xa3;" horiz-adv-x="538" 
d="M188 354h-114v64h85q-44 99 -44 152q0 84 47 134t127 50q162 0 177 -189l-76 -9q-10 127 -102 127q-44 0 -69 -28.5t-25 -82.5q0 -48 47 -154h144v-64h-117q29 -78 29 -141q0 -58 -17 -106q56 -52 92 -52q37 0 55.5 31t19.5 103h71q-2 -97 -34 -150t-106 -53
q-60 0 -127 65q-46 -65 -125 -65q-45 0 -77.5 27t-32.5 74q0 50 31.5 82t80.5 32q45 0 94 -40q2 28 2 46q0 62 -36 147zM206 97q-44 46 -78 46q-22 0 -35.5 -14.5t-13.5 -38.5q0 -23 14 -36t35 -13q54 0 78 56z" />
    <glyph glyph-name="currency" unicode="&#xa4;" horiz-adv-x="638" 
d="M318 241q51 0 83.5 32.5t32.5 86.5q0 53 -32.5 86t-83.5 33q-50 0 -82.5 -33t-32.5 -86t32.5 -86t82.5 -33zM318 187q-55 0 -94 27l-103 -103l-50 49l102 102q-29 44 -29 98t27 95l-100 100l50 49l100 -100q43 29 97 29t97 -28l100 99l50 -49l-99 -100q27 -41 27 -95
t-29 -98l102 -101l-50 -50l-102 103q-40 -27 -96 -27z" />
    <glyph glyph-name="yen" unicode="&#xa5;" horiz-adv-x="526" 
d="M303 259v-88h173v-63h-173v-108h-80v108h-173v63h173v88h-173v63h164l-198 418h86l162 -358h2l162 358h81l-198 -418h165v-63h-173z" />
    <glyph glyph-name="brokenbar" unicode="&#xa6;" horiz-adv-x="308" 
d="M114 331v409h80v-409h-80zM114 -200v409h80v-409h-80z" />
    <glyph glyph-name="section" unicode="&#xa7;" horiz-adv-x="471" 
d="M269 136q85 47 85 113q0 41 -27 70t-105 82l-19 13q-87 -46 -87 -112q0 -41 27.5 -71t105.5 -82q4 -3 11.5 -7.5t8.5 -5.5zM232 -204q-84 0 -123.5 41.5t-55.5 118.5l72 19q13 -55 36 -83.5t70 -28.5q43 0 64 23.5t21 62.5q0 38 -25.5 68t-84.5 71q-92 61 -128.5 101
t-36.5 103q0 51 31.5 93t78.5 69q-41 34 -59 67t-18 76q0 67 45 112.5t120 45.5q86 0 125.5 -41.5t55.5 -120.5l-73 -18q-12 56 -36 83.5t-71 27.5q-43 0 -65.5 -23.5t-22.5 -61.5t26.5 -68t87.5 -71q91 -61 127 -101t36 -103q0 -51 -31.5 -93t-77.5 -69q40 -35 57 -67.5
t17 -75.5q0 -67 -44 -112t-118 -45z" />
    <glyph glyph-name="dieresis" unicode="&#xa8;" horiz-adv-x="444" 
d="M103 583v90h81v-90h-81zM262 583v90h80v-90h-80z" />
    <glyph glyph-name="copyright" unicode="&#xa9;" horiz-adv-x="712" 
d="M356 -14q-136 0 -226.5 111t-90.5 272q0 162 91 273.5t226 111.5t226 -111t91 -272t-91.5 -273t-225.5 -112zM356 30q115 0 192 98.5t77 240.5q0 143 -77 242t-192 99t-192 -98.5t-77 -240.5q0 -143 77 -242t192 -99zM357 155q-70 0 -109.5 57t-39.5 163q0 103 40 160
t109 57q104 0 134 -138l-56 -10q-10 47 -28 70t-50 23q-43 0 -66 -44t-23 -118q0 -78 23 -121t67 -43q32 0 51 24t30 75l55 -11q-29 -144 -137 -144z" />
    <glyph glyph-name="ordfeminine" unicode="&#xaa;" horiz-adv-x="368" 
d="M151 415q52 0 97 49v110q-145 -31 -145 -108q0 -51 48 -51zM133 363q-43 0 -67.5 25t-24.5 70q0 118 207 159v22q0 61 -52 61q-55 0 -109 -52l-37 37q68 68 153 68q106 0 106 -114v-176q0 -66 11 -94h-64q-8 32 -8 47q-51 -53 -115 -53z" />
    <glyph glyph-name="guillemotleft" unicode="&#xab;" horiz-adv-x="455" 
d="M157 0l-124 264l124 263h79l-120 -263l120 -264h-79zM337 0l-124 264l124 263h79l-121 -263l121 -264h-79z" />
    <glyph glyph-name="logicalnot" unicode="&#xac;" horiz-adv-x="534" 
d="M485 363v-280h-69v213h-368v67h437z" />
    <glyph glyph-name="registered" unicode="&#xae;" horiz-adv-x="453" 
d="M227 291q-81 0 -136 67.5t-55 164.5t55 164t136 67t136 -67t55 -164t-55 -164.5t-136 -67.5zM227 319q68 0 114 59t46 145q0 85 -46 144t-114 59t-114 -59t-46 -144t46 -144.5t114 -59.5zM191 537h34q42 0 42 40q0 39 -42 39h-34v-79zM154 402v249h73q78 0 78 -73
q0 -53 -42 -69l46 -107h-40l-46 102h-32v-102h-37z" />
    <glyph glyph-name="macron" unicode="&#xaf;" horiz-adv-x="444" 
d="M106 583v66h232v-66h-232z" />
    <glyph glyph-name="degree" unicode="&#xb0;" horiz-adv-x="344" 
d="M173 472q-56 0 -91 39.5t-35 101.5q0 61 35 100.5t91 39.5q55 0 89 -39t34 -101q0 -61 -34.5 -101t-88.5 -40zM173 521q31 0 49 25.5t18 66.5t-18 66t-49 25q-32 0 -50.5 -24.5t-18.5 -66.5t18.5 -67t50.5 -25z" />
    <glyph glyph-name="plusminus" unicode="&#xb1;" horiz-adv-x="538" 
d="M49 57v66h185v198h-185v67h185v206h70v-206h185v-67h-185v-198h185v-66h-440z" />
    <glyph glyph-name="two.sups" unicode="&#xb2;" horiz-adv-x="341" 
d="M41 307v20q0 49 20 87t48 62.5t56 46t48 48t20 58.5q0 64 -56 64q-46 0 -76 -75l-57 24q42 109 135 109q58 0 89 -31.5t31 -89.5q0 -37 -18 -67.5t-44.5 -53l-53 -43t-46.5 -46t-22 -53.5h184v-60h-258z" />
    <glyph glyph-name="three.sups" unicode="&#xb3;" horiz-adv-x="351" 
d="M173 301q-101 0 -142 106l54 25q17 -40 37.5 -56.5t49.5 -16.5q34 0 53 20t19 53q0 42 -23.5 62.5t-75.5 20.5h-21v47h30q82 0 82 71q0 27 -14.5 43.5t-44.5 16.5q-43 0 -84 -51l-46 33q53 77 135 77q58 0 88 -31.5t30 -80.5q0 -70 -61 -98q69 -30 69 -111q0 -58 -37 -94
t-98 -36z" />
    <glyph glyph-name="acute" unicode="&#xb4;" horiz-adv-x="444" 
d="M182 584l81 156h94l-121 -156h-54z" />
    <glyph glyph-name="uni00B5" unicode="&#xb5;" horiz-adv-x="503" 
d="M61 -200v728h80v-377q0 -48 18 -71t59 -23q64 0 141 75v396h80v-528h-80v76q-76 -80 -153 -84q-46 0 -65 22v-214h-80z" />
    <glyph glyph-name="paragraph" unicode="&#xb6;" horiz-adv-x="540" 
d="M249 -200v536q-98 2 -150 52.5t-52 147.5q0 90 51 147t140 57h230v-940h-69v871h-81v-871h-69z" />
    <glyph glyph-name="periodcentered" unicode="&#xb7;" horiz-adv-x="266" 
d="M82 257v105h102v-105h-102z" />
    <glyph glyph-name="cedilla" unicode="&#xb8;" horiz-adv-x="444" 
d="M225 -203q-65 0 -114 36l24 38q40 -29 89 -29q60 0 60 45q0 33 -35 33q-23 0 -44 -19l-31 14l25 91h45l-16 -60q20 15 48 15q27 0 46.5 -17.5t19.5 -51.5q0 -44 -34 -69.5t-83 -25.5z" />
    <glyph glyph-name="one.sups" unicode="&#xb9;" horiz-adv-x="289" 
d="M54 303v59h67v305q-28 -13 -66 -13v59q51 1 75 27h59v-378h60v-59h-195z" />
    <glyph glyph-name="ordmasculine" unicode="&#xba;" horiz-adv-x="370" 
d="M185 364q-65 0 -107 51t-42 144t41.5 144t107.5 51t107.5 -51t41.5 -144t-41.5 -144t-107.5 -51zM185 415q43 0 64.5 39t21.5 105q0 62 -21.5 101.5t-64.5 39.5q-42 0 -64 -38t-22 -103q0 -64 21.5 -104t64.5 -40z" />
    <glyph glyph-name="guillemotright" unicode="&#xbb;" horiz-adv-x="455" 
d="M39 0l122 264l-122 263h80l123 -263l-123 -264h-80zM220 0l120 264l-120 263h79l122 -263l-122 -264h-79z" />
    <glyph glyph-name="onequarter" unicode="&#xbc;" horiz-adv-x="835" 
d="M208 0l372 740h74l-372 -740h-74zM33 298v59h67v305q-28 -13 -66 -13v59q51 1 75 27h59v-378h60v-59h-195zM696 1v102h-169v45l165 290h68v-277h59v-58h-59v-102h-64zM594 159h104v188z" />
    <glyph glyph-name="onehalf" unicode="&#xbd;" horiz-adv-x="870" 
d="M208 0l372 740h74l-372 -740h-74zM33 298v59h67v305q-28 -13 -66 -13v59q51 1 75 27h59v-378h60v-59h-195zM590 5v20q0 49 20 87t48 62.5t56 46t48 48t20 58.5q0 64 -56 64q-46 0 -76 -75l-57 24q42 109 135 109q58 0 89 -31.5t31 -89.5q0 -37 -18 -67.5t-44.5 -53
l-53 -43t-46.5 -46t-22 -53.5h184v-60h-258z" />
    <glyph glyph-name="threequarters" unicode="&#xbe;" horiz-adv-x="845" 
d="M218 0l372 740h74l-372 -740h-74zM706 1v102h-169v45l165 290h68v-277h59v-58h-59v-102h-64zM153 296q-101 0 -142 106l54 25q17 -40 37.5 -56.5t49.5 -16.5q34 0 53 20t19 53q0 42 -23.5 62.5t-75.5 20.5h-21v47h30q82 0 82 71q0 27 -14.5 43.5t-44.5 16.5
q-43 0 -84 -51l-46 33q53 77 135 77q58 0 88 -31.5t30 -80.5q0 -70 -61 -98q69 -30 69 -111q0 -58 -37 -94t-98 -36zM604 159h104v188z" />
    <glyph glyph-name="questiondown" unicode="&#xbf;" horiz-adv-x="466" 
d="M206 639v101h97v-101h-97zM226 -14q-87 0 -136.5 48.5t-49.5 123.5q0 44 16 80.5t33 54.5t51 47q50 46 65 81.5t15 115.5h69q1 -19 1 -60q0 -58 -22 -95.5t-66 -76.5q-43 -36 -62 -65.5t-19 -75.5q0 -49 28.5 -77.5t80.5 -28.5q83 0 136 104l67 -31q-70 -145 -207 -145z
" />
    <glyph glyph-name="Agrave" unicode="&#xc0;" 
d="M259 786l-120 156h94l80 -156h-54zM375 286l-32 113q-39 137 -62 228h-2q-23 -91 -62 -226l-32 -115h190zM164 213l-59 -213h-79l217 743h78l217 -743h-84l-59 213h-231z" />
    <glyph glyph-name="Aacute" unicode="&#xc1;" 
d="M249 786l81 156h94l-121 -156h-54zM375 286l-32 113q-39 137 -62 228h-2q-23 -91 -62 -226l-32 -115h190zM164 213l-59 -213h-79l217 743h78l217 -743h-84l-59 213h-231z" />
    <glyph glyph-name="Acircumflex" unicode="&#xc2;" 
d="M144 776l110 159h56l110 -159h-50l-88 89l-89 -89h-49zM375 286l-32 113q-39 137 -62 228h-2q-23 -91 -62 -226l-32 -115h190zM164 213l-59 -213h-79l217 743h78l217 -743h-84l-59 213h-231z" />
    <glyph glyph-name="Atilde" unicode="&#xc3;" 
d="M348 781q-29 0 -71.5 28t-57.5 28q-35 0 -35 -54h-49q0 118 82 118q29 0 71.5 -28t58.5 -28q18 0 26 12t8 42h48q0 -118 -81 -118zM375 286l-32 113q-39 137 -62 228h-2q-23 -91 -62 -226l-32 -115h190zM164 213l-59 -213h-79l217 743h78l217 -743h-84l-59 213h-231z" />
    <glyph glyph-name="Adieresis" unicode="&#xc4;" 
d="M163 785v90h81v-90h-81zM322 785v90h80v-90h-80zM375 286l-32 113q-39 137 -62 228h-2q-23 -91 -62 -226l-32 -115h190zM164 213l-59 -213h-79l217 743h78l217 -743h-84l-59 213h-231z" />
    <glyph glyph-name="Aring" unicode="&#xc5;" 
d="M282 746q20 0 31 16.5t11 40.5q0 23 -11 39t-31 16t-31 -16t-11 -39q0 -24 11 -40.5t31 -16.5zM375 286l-32 113q-39 137 -62 228h-2q-23 -91 -62 -226l-32 -115h190zM164 213l-59 -213h-79l210 720q-39 25 -39 83q0 42 23 68.5t62 26.5q38 0 61.5 -26.5t23.5 -68.5
q0 -55 -39 -83l210 -720h-84l-59 213h-231z" />
    <glyph glyph-name="AE" unicode="&#xc6;" horiz-adv-x="834" 
d="M238 301h165v359zM21 0l340 740h419v-77h-294v-235h215v-75h-215v-277h311v-76h-394v229h-196l-104 -229h-82z" />
    <glyph glyph-name="Ccedilla" unicode="&#xc7;" horiz-adv-x="586" 
d="M296 -203q-65 0 -114 36l24 38q40 -29 89 -29q60 0 60 45q0 33 -35 33q-23 0 -44 -19l-31 14l21 75q-105 17 -162.5 114t-57.5 268q0 182 71.5 282t192.5 100q185 0 229 -234l-78 -14q-18 87 -53.5 129t-99.5 42q-85 0 -131.5 -80.5t-46.5 -223.5q0 -150 46.5 -230.5
t133.5 -80.5q65 0 102.5 43t57.5 137l77 -13q-23 -113 -81.5 -177.5t-155.5 -64.5l-11 -41q20 15 48 15q27 0 46.5 -17.5t19.5 -51.5q0 -44 -34 -69.5t-83 -25.5z" />
    <glyph glyph-name="Egrave" unicode="&#xc8;" horiz-adv-x="508" 
d="M255 786l-120 156h94l80 -156h-54zM76 0v740h378v-77h-294v-234h215v-76h-215v-277h311v-76h-395z" />
    <glyph glyph-name="Eacute" unicode="&#xc9;" horiz-adv-x="508" 
d="M206 786l81 156h94l-121 -156h-54zM76 0v740h378v-77h-294v-234h215v-76h-215v-277h311v-76h-395z" />
    <glyph glyph-name="Ecircumflex" unicode="&#xca;" horiz-adv-x="508" 
d="M123 783l110 159h56l110 -159h-50l-88 89l-89 -89h-49zM76 0v740h378v-77h-294v-234h215v-76h-215v-277h311v-76h-395z" />
    <glyph glyph-name="Edieresis" unicode="&#xcb;" horiz-adv-x="508" 
d="M142 785v90h81v-90h-81zM301 785v90h80v-90h-80zM76 0v740h378v-77h-294v-234h215v-76h-215v-277h311v-76h-395z" />
    <glyph glyph-name="Igrave" unicode="&#xcc;" horiz-adv-x="248" 
d="M104 786l-120 156h94l80 -156h-54zM82 0v740h84v-740h-84z" />
    <glyph glyph-name="Iacute" unicode="&#xcd;" horiz-adv-x="248" 
d="M92 786l81 156h94l-121 -156h-54zM82 0v740h84v-740h-84z" />
    <glyph glyph-name="Icircumflex" unicode="&#xce;" horiz-adv-x="248" 
d="M-14 783l110 159h56l110 -159h-50l-88 89l-89 -89h-49zM82 0v740h84v-740h-84z" />
    <glyph glyph-name="Idieresis" unicode="&#xcf;" horiz-adv-x="248" 
d="M5 785v90h81v-90h-81zM164 785v90h80v-90h-80zM82 0v740h84v-740h-84z" />
    <glyph glyph-name="Eth" unicode="&#xd0;" horiz-adv-x="599" 
d="M76 355h-62v70h62v315h163q157 0 235.5 -89t78.5 -280t-79.5 -281t-234.5 -90h-163v355zM158 425h131v-70h-131v-280h92q113 0 166 70.5t53 225.5q0 152 -53.5 222t-166.5 70h-91v-238z" />
    <glyph glyph-name="Ntilde" unicode="&#xd1;" horiz-adv-x="627" 
d="M379 781q-29 0 -71.5 28t-57.5 28q-35 0 -35 -54h-49q0 118 82 118q29 0 71.5 -28t58.5 -28q18 0 26 12t8 42h48q0 -118 -81 -118zM76 0v740h98l232 -453l65 -131h2v584h77v-740h-77l-248 477q-42 81 -70 140h-2v-617h-77z" />
    <glyph glyph-name="Ograve" unicode="&#xd2;" horiz-adv-x="627" 
d="M299 786l-120 156h94l80 -156h-54zM314 -14q-120 0 -194 101t-74 283t74 283t194 101q119 0 193 -101t74 -283t-74 -283t-193 -101zM314 62q85 0 133.5 81t48.5 227t-48.5 226.5t-133.5 80.5q-86 0 -135 -80.5t-49 -226.5t49 -227t135 -81z" />
    <glyph glyph-name="Oacute" unicode="&#xd3;" horiz-adv-x="627" 
d="M273 786l81 156h94l-121 -156h-54zM314 -14q-120 0 -194 101t-74 283t74 283t194 101q119 0 193 -101t74 -283t-74 -283t-193 -101zM314 62q85 0 133.5 81t48.5 227t-48.5 226.5t-133.5 80.5q-86 0 -135 -80.5t-49 -226.5t49 -227t135 -81z" />
    <glyph glyph-name="Ocircumflex" unicode="&#xd4;" horiz-adv-x="627" 
d="M175 783l110 159h56l110 -159h-50l-88 89l-89 -89h-49zM314 -14q-120 0 -194 101t-74 283t74 283t194 101q119 0 193 -101t74 -283t-74 -283t-193 -101zM314 62q85 0 133.5 81t48.5 227t-48.5 226.5t-133.5 80.5q-86 0 -135 -80.5t-49 -226.5t49 -227t135 -81z" />
    <glyph glyph-name="Otilde" unicode="&#xd5;" horiz-adv-x="627" 
d="M379 781q-29 0 -71.5 28t-57.5 28q-35 0 -35 -54h-49q0 118 82 118q29 0 71.5 -28t58.5 -28q18 0 26 12t8 42h48q0 -118 -81 -118zM314 -14q-120 0 -194 101t-74 283t74 283t194 101q119 0 193 -101t74 -283t-74 -283t-193 -101zM314 62q85 0 133.5 81t48.5 227
t-48.5 226.5t-133.5 80.5q-86 0 -135 -80.5t-49 -226.5t49 -227t135 -81z" />
    <glyph glyph-name="Odieresis" unicode="&#xd6;" horiz-adv-x="627" 
d="M194 785v90h81v-90h-81zM353 785v90h80v-90h-80zM314 -14q-120 0 -194 101t-74 283t74 283t194 101q119 0 193 -101t74 -283t-74 -283t-193 -101zM314 62q85 0 133.5 81t48.5 227t-48.5 226.5t-133.5 80.5q-86 0 -135 -80.5t-49 -226.5t49 -227t135 -81z" />
    <glyph glyph-name="multiply" unicode="&#xd7;" horiz-adv-x="535" 
d="M109 126l-47 47l158 157l-158 157l47 47l158 -158l157 158l47 -47l-158 -157l158 -157l-47 -47l-157 157z" />
    <glyph glyph-name="Oslash" unicode="&#xd8;" horiz-adv-x="627" 
d="M170 157l251 476q-45 45 -107 45q-86 0 -135.5 -81t-49.5 -227q0 -131 41 -213zM456 583l-251 -475q44 -47 109 -47q85 0 134 81.5t49 227.5q0 131 -41 213zM501 661q80 -104 80 -291q0 -182 -74 -283t-193 -101q-84 0 -146 50l-44 -80l-52 30l53 95q-79 101 -79 289
q0 182 74 283t194 101q82 0 143 -49l46 80l51 -29z" />
    <glyph glyph-name="Ugrave" unicode="&#xd9;" horiz-adv-x="602" 
d="M287 786l-120 156h94l80 -156h-54zM301 -13q-119 0 -175 67.5t-56 188.5v497h84v-486q0 -96 34 -144.5t114 -48.5q79 0 113.5 48t34.5 143v488h81v-495q0 -119 -56.5 -188.5t-173.5 -69.5z" />
    <glyph glyph-name="Uacute" unicode="&#xda;" horiz-adv-x="602" 
d="M261 786l81 156h94l-121 -156h-54zM301 -13q-119 0 -175 67.5t-56 188.5v497h84v-486q0 -96 34 -144.5t114 -48.5q79 0 113.5 48t34.5 143v488h81v-495q0 -119 -56.5 -188.5t-173.5 -69.5z" />
    <glyph glyph-name="Ucircumflex" unicode="&#xdb;" horiz-adv-x="602" 
d="M163 783l110 159h56l110 -159h-50l-88 89l-89 -89h-49zM301 -13q-119 0 -175 67.5t-56 188.5v497h84v-486q0 -96 34 -144.5t114 -48.5q79 0 113.5 48t34.5 143v488h81v-495q0 -119 -56.5 -188.5t-173.5 -69.5z" />
    <glyph glyph-name="Udieresis" unicode="&#xdc;" horiz-adv-x="602" 
d="M182 785v90h81v-90h-81zM341 785v90h80v-90h-80zM301 -13q-119 0 -175 67.5t-56 188.5v497h84v-486q0 -96 34 -144.5t114 -48.5q79 0 113.5 48t34.5 143v488h81v-495q0 -119 -56.5 -188.5t-173.5 -69.5z" />
    <glyph glyph-name="Yacute" unicode="&#xdd;" horiz-adv-x="526" 
d="M223 786l81 156h94l-121 -156h-54zM221 0v305l-205 435h86l162 -358h2l162 358h81l-204 -433v-307h-84z" />
    <glyph glyph-name="Thorn" unicode="&#xde;" horiz-adv-x="553" 
d="M76 0v740h83v-134h124q106 0 167 -52t61 -160q0 -116 -63.5 -167.5t-169.5 -51.5h-119v-175h-83zM159 249h122q75 0 112 33.5t37 109.5q0 72 -37 104.5t-113 32.5h-121v-280z" />
    <glyph glyph-name="germandbls" unicode="&#xdf;" horiz-adv-x="529" 
d="M316 -10q-79 0 -126 37l38 57q37 -29 85 -29q46 0 74 38t28 112q0 87 -45 126t-142 44v64q67 1 100.5 33t33.5 88q0 52 -28 81t-79 29q-54 0 -82.5 -36t-28.5 -105v-529h-81v526q0 102 51.5 158t141.5 56q86 0 134.5 -44.5t48.5 -127.5q0 -57 -29.5 -99.5t-78.5 -56.5
q74 -14 118.5 -64.5t44.5 -139.5q0 -99 -46.5 -158.5t-131.5 -59.5z" />
    <glyph glyph-name="agrave" unicode="&#xe0;" horiz-adv-x="471" 
d="M236 584l-120 156h94l80 -156h-54zM189 59q78 0 142 69v162q-216 -46 -216 -154q0 -77 74 -77zM162 -7q-59 0 -92.5 35t-33.5 97q0 164 295 223v32q0 88 -79 88q-83 0 -156 -71l-45 49q93 93 209 93q150 0 150 -159v-250q0 -95 13 -130h-81q-11 38 -11 68
q-69 -75 -169 -75z" />
    <glyph glyph-name="aacute" unicode="&#xe1;" horiz-adv-x="471" 
d="M180 584l81 156h94l-121 -156h-54zM189 59q78 0 142 69v162q-216 -46 -216 -154q0 -77 74 -77zM162 -7q-59 0 -92.5 35t-33.5 97q0 164 295 223v32q0 88 -79 88q-83 0 -156 -71l-45 49q93 93 209 93q150 0 150 -159v-250q0 -95 13 -130h-81q-11 38 -11 68
q-69 -75 -169 -75z" />
    <glyph glyph-name="acircumflex" unicode="&#xe2;" horiz-adv-x="471" 
d="M97 581l110 159h56l110 -159h-50l-88 89l-89 -89h-49zM189 59q78 0 142 69v162q-216 -46 -216 -154q0 -77 74 -77zM162 -7q-59 0 -92.5 35t-33.5 97q0 164 295 223v32q0 88 -79 88q-83 0 -156 -71l-45 49q93 93 209 93q150 0 150 -159v-250q0 -95 13 -130h-81
q-11 38 -11 68q-69 -75 -169 -75z" />
    <glyph glyph-name="atilde" unicode="&#xe3;" horiz-adv-x="471" 
d="M301 579q-29 0 -71.5 28t-57.5 28q-35 0 -35 -54h-49q0 118 82 118q29 0 71.5 -28t58.5 -28q18 0 26 12t8 42h48q0 -118 -81 -118zM189 59q78 0 142 69v162q-216 -46 -216 -154q0 -77 74 -77zM162 -7q-59 0 -92.5 35t-33.5 97q0 164 295 223v32q0 88 -79 88
q-83 0 -156 -71l-45 49q93 93 209 93q150 0 150 -159v-250q0 -95 13 -130h-81q-11 38 -11 68q-69 -75 -169 -75z" />
    <glyph glyph-name="adieresis" unicode="&#xe4;" horiz-adv-x="471" 
d="M116 583v90h81v-90h-81zM275 583v90h80v-90h-80zM189 59q78 0 142 69v162q-216 -46 -216 -154q0 -77 74 -77zM162 -7q-59 0 -92.5 35t-33.5 97q0 164 295 223v32q0 88 -79 88q-83 0 -156 -71l-45 49q93 93 209 93q150 0 150 -159v-250q0 -95 13 -130h-81q-11 38 -11 68
q-69 -75 -169 -75z" />
    <glyph glyph-name="aring" unicode="&#xe5;" horiz-adv-x="471" 
d="M235 574q-38 0 -61.5 27t-23.5 69t23 68.5t62 26.5q38 0 61.5 -26.5t23.5 -68.5t-23.5 -69t-61.5 -27zM235 613q20 0 31 16.5t11 40.5q0 23 -11 39t-31 16t-31 -16t-11 -39q0 -24 11 -40.5t31 -16.5zM189 59q78 0 142 69v162q-216 -46 -216 -154q0 -77 74 -77zM162 -7
q-59 0 -92.5 35t-33.5 97q0 164 295 223v32q0 88 -79 88q-83 0 -156 -71l-45 49q93 93 209 93q150 0 150 -159v-250q0 -95 13 -130h-81q-11 38 -11 68q-69 -75 -169 -75z" />
    <glyph glyph-name="ae" unicode="&#xe6;" horiz-adv-x="758" 
d="M364 94q-83 -102 -202 -102q-59 0 -92.5 35t-33.5 97q0 165 295 224v32q0 88 -79 88q-83 0 -156 -71l-45 49q93 93 212 93q100 0 125 -82q55 82 143 82q90 0 139.5 -70t49.5 -202v-20h-312q2 -92 35.5 -141t91.5 -49q43 0 71.5 22.5t53.5 69.5l56 -35q-61 -125 -185 -125
q-115 0 -167 105zM409 308h234q-4 75 -32 118.5t-80 43.5q-48 0 -82 -41t-40 -121zM332 289q-217 -46 -217 -154q0 -78 74 -78q79 0 157 85q-15 51 -15 122q0 17 1 25z" />
    <glyph glyph-name="ccedilla" unicode="&#xe7;" horiz-adv-x="456" 
d="M230 -203q-65 0 -114 36l24 38q40 -29 89 -29q60 0 60 45q0 33 -35 33q-23 0 -44 -19l-31 14l21 78q-72 16 -116.5 86t-44.5 185q0 135 58.5 205t147.5 70q74 0 115 -42t62 -115l-74 -20q-15 53 -39 80t-66 27q-54 0 -88.5 -51.5t-34.5 -153.5q0 -97 32.5 -152t90.5 -55
q82 0 111 109l71 -19q-46 -158 -181 -158l-11 -43q20 15 48 15q27 0 46.5 -17.5t19.5 -51.5q0 -44 -34 -69.5t-83 -25.5z" />
    <glyph glyph-name="egrave" unicode="&#xe8;" horiz-adv-x="470" 
d="M228 584l-120 156h94l80 -156h-54zM242 -11q-90 0 -146.5 71t-56.5 204q0 135 59 205t145 70q89 0 138.5 -70t49.5 -202v-20h-312q2 -92 35.5 -141t91.5 -49q44 0 72.5 23t52.5 69l56 -35q-61 -125 -185 -125zM120 308h234q-4 75 -32 118.5t-80 43.5q-48 0 -82 -41
t-40 -121z" />
    <glyph glyph-name="eacute" unicode="&#xe9;" horiz-adv-x="470" 
d="M194 584l81 156h94l-121 -156h-54zM242 -11q-90 0 -146.5 71t-56.5 204q0 135 59 205t145 70q89 0 138.5 -70t49.5 -202v-20h-312q2 -92 35.5 -141t91.5 -49q44 0 72.5 23t52.5 69l56 -35q-61 -125 -185 -125zM120 308h234q-4 75 -32 118.5t-80 43.5q-48 0 -82 -41
t-40 -121z" />
    <glyph glyph-name="ecircumflex" unicode="&#xea;" horiz-adv-x="470" 
d="M96 581l110 159h56l110 -159h-50l-88 89l-89 -89h-49zM242 -11q-90 0 -146.5 71t-56.5 204q0 135 59 205t145 70q89 0 138.5 -70t49.5 -202v-20h-312q2 -92 35.5 -141t91.5 -49q44 0 72.5 23t52.5 69l56 -35q-61 -125 -185 -125zM120 308h234q-4 75 -32 118.5t-80 43.5
q-48 0 -82 -41t-40 -121z" />
    <glyph glyph-name="edieresis" unicode="&#xeb;" horiz-adv-x="470" 
d="M115 583v90h81v-90h-81zM274 583v90h80v-90h-80zM242 -11q-90 0 -146.5 71t-56.5 204q0 135 59 205t145 70q89 0 138.5 -70t49.5 -202v-20h-312q2 -92 35.5 -141t91.5 -49q44 0 72.5 23t52.5 69l56 -35q-61 -125 -185 -125zM120 308h234q-4 75 -32 118.5t-80 43.5
q-48 0 -82 -41t-40 -121z" />
    <glyph glyph-name="igrave" unicode="&#xec;" horiz-adv-x="220" 
d="M89 584l-120 156h94l80 -156h-54zM69 0v528h81v-528h-81z" />
    <glyph glyph-name="iacute" unicode="&#xed;" horiz-adv-x="220" 
d="M78 584l81 156h94l-121 -156h-54zM69 0v528h81v-528h-81z" />
    <glyph glyph-name="icircumflex" unicode="&#xee;" horiz-adv-x="220" 
d="M-28 581l110 159h56l110 -159h-50l-88 89l-89 -89h-49zM69 0v528h81v-528h-81z" />
    <glyph glyph-name="idieresis" unicode="&#xef;" horiz-adv-x="220" 
d="M-9 583v90h81v-90h-81zM150 583v90h80v-90h-80zM69 0v528h81v-528h-81z" />
    <glyph glyph-name="eth" unicode="&#xf0;" horiz-adv-x="495" 
d="M294 601l-73 -42l-29 51l64 37q-26 27 -59 53l45 49q42 -31 75 -66l76 44l28 -52l-65 -38q99 -135 99 -369q0 -134 -57 -206.5t-150 -72.5q-95 0 -152 71.5t-57 196.5t54.5 193.5t143.5 68.5q41 0 76 -20t54 -57q-21 89 -73 159zM248 56q60 0 93.5 55t33.5 147
q0 89 -33 143.5t-94 54.5q-62 0 -95 -52.5t-33 -145.5q0 -91 32.5 -146.5t95.5 -55.5z" />
    <glyph glyph-name="ntilde" unicode="&#xf1;" horiz-adv-x="502" 
d="M317 579q-29 0 -71.5 28t-57.5 28q-35 0 -35 -54h-49q0 118 82 118q29 0 71.5 -28t58.5 -28q18 0 26 12t8 42h48q0 -118 -81 -118zM64 0v528h81v-73q31 34 75.5 59t91.5 25q64 0 97 -37.5t33 -109.5v-392h-80v375q0 48 -17.5 70.5t-57.5 22.5q-68 0 -142 -76v-392h-81z
" />
    <glyph glyph-name="ograve" unicode="&#xf2;" horiz-adv-x="495" 
d="M233 584l-120 156h94l80 -156h-54zM248 -11q-92 0 -150.5 72t-58.5 203q0 132 58.5 203.5t150.5 71.5t150 -71.5t58 -203.5q0 -131 -58.5 -203t-149.5 -72zM248 57q62 0 94.5 55.5t32.5 151.5q0 91 -32 148t-95 57q-62 0 -95 -55t-33 -150q0 -92 31.5 -149.5t96.5 -57.5z
" />
    <glyph glyph-name="oacute" unicode="&#xf3;" horiz-adv-x="495" 
d="M207 584l81 156h94l-121 -156h-54zM248 -11q-92 0 -150.5 72t-58.5 203q0 132 58.5 203.5t150.5 71.5t150 -71.5t58 -203.5q0 -131 -58.5 -203t-149.5 -72zM248 57q62 0 94.5 55.5t32.5 151.5q0 91 -32 148t-95 57q-62 0 -95 -55t-33 -150q0 -92 31.5 -149.5t96.5 -57.5z
" />
    <glyph glyph-name="ocircumflex" unicode="&#xf4;" horiz-adv-x="495" 
d="M109 581l110 159h56l110 -159h-50l-88 89l-89 -89h-49zM248 -11q-92 0 -150.5 72t-58.5 203q0 132 58.5 203.5t150.5 71.5t150 -71.5t58 -203.5q0 -131 -58.5 -203t-149.5 -72zM248 57q62 0 94.5 55.5t32.5 151.5q0 91 -32 148t-95 57q-62 0 -95 -55t-33 -150
q0 -92 31.5 -149.5t96.5 -57.5z" />
    <glyph glyph-name="otilde" unicode="&#xf5;" horiz-adv-x="495" 
d="M313 579q-29 0 -71.5 28t-57.5 28q-35 0 -35 -54h-49q0 118 82 118q29 0 71.5 -28t58.5 -28q18 0 26 12t8 42h48q0 -118 -81 -118zM248 -11q-92 0 -150.5 72t-58.5 203q0 132 58.5 203.5t150.5 71.5t150 -71.5t58 -203.5q0 -131 -58.5 -203t-149.5 -72zM248 57
q62 0 94.5 55.5t32.5 151.5q0 91 -32 148t-95 57q-62 0 -95 -55t-33 -150q0 -92 31.5 -149.5t96.5 -57.5z" />
    <glyph glyph-name="odieresis" unicode="&#xf6;" horiz-adv-x="495" 
d="M128 583v90h81v-90h-81zM287 583v90h80v-90h-80zM248 -11q-92 0 -150.5 72t-58.5 203q0 132 58.5 203.5t150.5 71.5t150 -71.5t58 -203.5q0 -131 -58.5 -203t-149.5 -72zM248 57q62 0 94.5 55.5t32.5 151.5q0 91 -32 148t-95 57q-62 0 -95 -55t-33 -150
q0 -92 31.5 -149.5t96.5 -57.5z" />
    <glyph glyph-name="divide" unicode="&#xf7;" horiz-adv-x="535" 
d="M224 463v91h85v-91h-85zM49 295v69h437v-69h-437zM224 105v92h85v-92h-85z" />
    <glyph glyph-name="oslash" unicode="&#xf8;" horiz-adv-x="495" 
d="M139 138l187 297q-30 35 -78 35q-62 0 -96 -56t-34 -150q0 -74 21 -126zM355 389l-189 -297q31 -36 82 -36q62 0 95 56t33 152q0 72 -21 125zM404 460q52 -72 52 -196q0 -131 -58.5 -203t-149.5 -72q-67 0 -119 40l-45 -70l-45 28l52 83q-52 72 -52 194q0 132 58.5 203.5
t150.5 71.5q68 0 117 -39l45 69l45 -28z" />
    <glyph glyph-name="ugrave" unicode="&#xf9;" horiz-adv-x="502" 
d="M252 584l-120 156h94l80 -156h-54zM190 -11q-64 0 -97 37.5t-33 109.5v392h80v-377q0 -48 18 -70t60 -22q65 0 139 76v393h81v-528h-81v73q-76 -84 -167 -84z" />
    <glyph glyph-name="uacute" unicode="&#xfa;" horiz-adv-x="502" 
d="M196 584l81 156h94l-121 -156h-54zM190 -11q-64 0 -97 37.5t-33 109.5v392h80v-377q0 -48 18 -70t60 -22q65 0 139 76v393h81v-528h-81v73q-76 -84 -167 -84z" />
    <glyph glyph-name="ucircumflex" unicode="&#xfb;" horiz-adv-x="502" 
d="M113 581l110 159h56l110 -159h-50l-88 89l-89 -89h-49zM190 -11q-64 0 -97 37.5t-33 109.5v392h80v-377q0 -48 18 -70t60 -22q65 0 139 76v393h81v-528h-81v73q-76 -84 -167 -84z" />
    <glyph glyph-name="udieresis" unicode="&#xfc;" horiz-adv-x="502" 
d="M132 583v90h81v-90h-81zM291 583v90h80v-90h-80zM190 -11q-64 0 -97 37.5t-33 109.5v392h80v-377q0 -48 18 -70t60 -22q65 0 139 76v393h81v-528h-81v73q-76 -84 -167 -84z" />
    <glyph glyph-name="yacute" unicode="&#xfd;" horiz-adv-x="455" 
d="M187 584l81 156h94l-121 -156h-54zM88 -201q-46 0 -82 12l16 64q35 -8 64 -8q33 0 50.5 18.5t31.5 63.5l15 46l-165 533h83l80 -276q22 -75 43 -159h2q18 71 45 165l78 270h77l-182 -586q-25 -77 -58 -110t-98 -33z" />
    <glyph glyph-name="thorn" unicode="&#xfe;" horiz-adv-x="508" 
d="M270 59q55 0 86.5 50t31.5 155q0 102 -32 153.5t-87 51.5q-61 0 -124 -73v-265q59 -72 125 -72zM64 -200v940h81v-279q64 78 145 78t130 -68.5t49 -205.5t-50.5 -205t-133.5 -68t-140 72v-264h-81z" />
    <glyph glyph-name="ydieresis" unicode="&#xff;" horiz-adv-x="455" 
d="M108 583v90h81v-90h-81zM267 583v90h80v-90h-80zM88 -201q-46 0 -82 12l16 64q35 -8 64 -8q33 0 50.5 18.5t31.5 63.5l15 46l-165 533h83l80 -276q22 -75 43 -159h2q18 71 45 165l78 270h77l-182 -586q-25 -77 -58 -110t-98 -33z" />
    <glyph glyph-name="Amacron" unicode="&#x100;" 
d="M166 785v66h232v-66h-232zM375 286l-32 113q-39 137 -62 228h-2q-23 -91 -62 -226l-32 -115h190zM164 213l-59 -213h-79l217 743h78l217 -743h-84l-59 213h-231z" />
    <glyph glyph-name="amacron" unicode="&#x101;" horiz-adv-x="471" 
d="M119 583v66h232v-66h-232zM189 59q78 0 142 69v162q-216 -46 -216 -154q0 -77 74 -77zM162 -7q-59 0 -92.5 35t-33.5 97q0 164 295 223v32q0 88 -79 88q-83 0 -156 -71l-45 49q93 93 209 93q150 0 150 -159v-250q0 -95 13 -130h-81q-11 38 -11 68q-69 -75 -169 -75z" />
    <glyph glyph-name="Abreve" unicode="&#x102;" 
d="M283 781q-62 0 -95.5 43.5t-37.5 121.5h51q11 -105 82 -105t81 105h51q-4 -78 -37.5 -121.5t-94.5 -43.5zM375 286l-32 113q-39 137 -62 228h-2q-23 -91 -62 -226l-32 -115h190zM164 213l-59 -213h-79l217 743h78l217 -743h-84l-59 213h-231z" />
    <glyph glyph-name="abreve" unicode="&#x103;" horiz-adv-x="471" 
d="M236 579q-62 0 -95.5 43.5t-37.5 121.5h51q11 -105 82 -105t81 105h51q-4 -78 -37.5 -121.5t-94.5 -43.5zM189 59q78 0 142 69v162q-216 -46 -216 -154q0 -77 74 -77zM162 -7q-59 0 -92.5 35t-33.5 97q0 164 295 223v32q0 88 -79 88q-83 0 -156 -71l-45 49q93 93 209 93
q150 0 150 -159v-250q0 -95 13 -130h-81q-11 38 -11 68q-69 -75 -169 -75z" />
    <glyph glyph-name="Aogonek" unicode="&#x104;" 
d="M375 286l-32 113q-39 137 -62 228h-2q-23 -91 -62 -226l-32 -115h190zM586 -152q-56 -37 -116 -37q-42 0 -64.5 20.5t-22.5 57.5q0 30 20.5 61t49.5 52l-58 211h-231l-59 -213h-79l217 743h78l217 -743h-39q-56 -45 -56 -98q0 -47 44 -47q32 0 78 24z" />
    <glyph glyph-name="aogonek" unicode="&#x105;" horiz-adv-x="471" 
d="M189 59q78 0 142 69v162q-216 -46 -216 -154q0 -77 74 -77zM473 -152q-55 -37 -116 -37q-42 0 -64.5 20.5t-22.5 57.5q0 30 21 61t50 53q-10 40 -10 65q-69 -75 -169 -75q-59 0 -92.5 35t-33.5 97q0 164 295 223v32q0 88 -79 88q-83 0 -156 -71l-45 49q93 93 209 93
q150 0 150 -159v-250q0 -95 13 -130h-37q-56 -45 -56 -98q0 -47 44 -47q32 0 78 24z" />
    <glyph glyph-name="Cacute" unicode="&#x106;" horiz-adv-x="586" 
d="M253 786l81 156h94l-121 -156h-54zM309 -13q-124 0 -193.5 99t-69.5 286q0 182 71.5 282t192.5 100q185 0 229 -234l-78 -14q-18 87 -53.5 129t-99.5 42q-85 0 -131.5 -80.5t-46.5 -223.5q0 -150 46.5 -230.5t133.5 -80.5q65 0 102.5 43t57.5 137l77 -13
q-23 -113 -81.5 -177.5t-156.5 -64.5z" />
    <glyph glyph-name="cacute" unicode="&#x107;" horiz-adv-x="456" 
d="M187 584l81 156h94l-121 -156h-54zM240 -11q-87 0 -144 72t-57 203q0 135 58.5 205t147.5 70q74 0 115 -42t62 -115l-74 -20q-15 53 -39 80t-66 27q-54 0 -88.5 -51.5t-34.5 -153.5q0 -97 32.5 -152t90.5 -55q82 0 111 109l71 -19q-46 -158 -185 -158z" />
    <glyph glyph-name="Ccircumflex" unicode="&#x108;" horiz-adv-x="586" 
d="M167 783l110 159h56l110 -159h-50l-88 89l-89 -89h-49zM309 -13q-124 0 -193.5 99t-69.5 286q0 182 71.5 282t192.5 100q185 0 229 -234l-78 -14q-18 87 -53.5 129t-99.5 42q-85 0 -131.5 -80.5t-46.5 -223.5q0 -150 46.5 -230.5t133.5 -80.5q65 0 102.5 43t57.5 137
l77 -13q-23 -113 -81.5 -177.5t-156.5 -64.5z" />
    <glyph glyph-name="ccircumflex" unicode="&#x109;" horiz-adv-x="456" 
d="M102 581l110 159h56l110 -159h-50l-88 89l-89 -89h-49zM240 -11q-87 0 -144 72t-57 203q0 135 58.5 205t147.5 70q74 0 115 -42t62 -115l-74 -20q-15 53 -39 80t-66 27q-54 0 -88.5 -51.5t-34.5 -153.5q0 -97 32.5 -152t90.5 -55q82 0 111 109l71 -19q-46 -158 -185 -158
z" />
    <glyph glyph-name="Cdotaccent" unicode="&#x10a;" horiz-adv-x="586" 
d="M256 788v88h92v-88h-92zM309 -13q-124 0 -193.5 99t-69.5 286q0 182 71.5 282t192.5 100q185 0 229 -234l-78 -14q-18 87 -53.5 129t-99.5 42q-85 0 -131.5 -80.5t-46.5 -223.5q0 -150 46.5 -230.5t133.5 -80.5q65 0 102.5 43t57.5 137l77 -13q-23 -113 -81.5 -177.5
t-156.5 -64.5z" />
    <glyph glyph-name="cdotaccent" unicode="&#x10b;" horiz-adv-x="456" 
d="M194 583v88h92v-88h-92zM240 -11q-87 0 -144 72t-57 203q0 135 58.5 205t147.5 70q74 0 115 -42t62 -115l-74 -20q-15 53 -39 80t-66 27q-54 0 -88.5 -51.5t-34.5 -153.5q0 -97 32.5 -152t90.5 -55q82 0 111 109l71 -19q-46 -158 -185 -158z" />
    <glyph glyph-name="Ccaron" unicode="&#x10c;" horiz-adv-x="586" 
d="M265 786l-110 159h51l88 -91l88 91h49l-110 -159h-56zM309 -13q-124 0 -193.5 99t-69.5 286q0 182 71.5 282t192.5 100q185 0 229 -234l-78 -14q-18 87 -53.5 129t-99.5 42q-85 0 -131.5 -80.5t-46.5 -223.5q0 -150 46.5 -230.5t133.5 -80.5q65 0 102.5 43t57.5 137
l77 -13q-23 -113 -81.5 -177.5t-156.5 -64.5z" />
    <glyph glyph-name="ccaron" unicode="&#x10d;" horiz-adv-x="456" 
d="M199 584l-110 159h51l88 -91l88 91h49l-110 -159h-56zM240 -11q-87 0 -144 72t-57 203q0 135 58.5 205t147.5 70q74 0 115 -42t62 -115l-74 -20q-15 53 -39 80t-66 27q-54 0 -88.5 -51.5t-34.5 -153.5q0 -97 32.5 -152t90.5 -55q82 0 111 109l71 -19q-46 -158 -185 -158z
" />
    <glyph glyph-name="Dcaron" unicode="&#x10e;" horiz-adv-x="599" 
d="M271 786l-110 159h51l88 -91l88 91h49l-110 -159h-56zM76 0v740h163q157 0 235.5 -89t78.5 -280t-79.5 -281t-234.5 -90h-163zM160 75h90q113 0 166 70.5t53 225.5q0 152 -53.5 222t-166.5 70h-89v-588z" />
    <glyph glyph-name="dcaron" unicode="&#x10f;" horiz-adv-x="508" 
d="M495 575l25 96h-30v91h80v-82l-41 -105h-34zM241 59q61 0 124 72v265q-62 73 -125 73q-56 0 -87.5 -51t-31.5 -156q0 -102 32 -152.5t88 -50.5zM219 -8q-82 0 -130.5 67.5t-48.5 204.5t50.5 206t132.5 69q83 0 142 -74v275h80v-610q0 -95 13 -130h-83q-10 28 -10 69
q-65 -77 -146 -77z" />
    <glyph glyph-name="Dcroat" unicode="&#x110;" horiz-adv-x="599" 
d="M76 355h-62v70h62v315h163q157 0 235.5 -89t78.5 -280t-79.5 -281t-234.5 -90h-163v355zM158 425h131v-70h-131v-280h92q113 0 166 70.5t53 225.5q0 152 -53.5 222t-166.5 70h-91v-238z" />
    <glyph glyph-name="dcroat" unicode="&#x111;" horiz-adv-x="508" 
d="M241 58q60 0 124 71v267q-64 74 -125 74q-56 0 -87.5 -50.5t-31.5 -155.5q0 -103 32.5 -154.5t87.5 -51.5zM365 69q-64 -78 -145 -78q-82 0 -131 67.5t-49 204.5t49.5 206.5t131.5 69.5q84 0 144 -78v117h-93v59h93v103h80v-103h69v-59h-69v-448q0 -95 13 -130h-83
q-10 36 -10 69z" />
    <glyph glyph-name="Emacron" unicode="&#x112;" horiz-adv-x="508" 
d="M155 785v66h232v-66h-232zM76 0v740h378v-77h-294v-234h215v-76h-215v-277h311v-76h-395z" />
    <glyph glyph-name="emacron" unicode="&#x113;" horiz-adv-x="470" 
d="M118 583v66h232v-66h-232zM242 -11q-90 0 -146.5 71t-56.5 204q0 135 59 205t145 70q89 0 138.5 -70t49.5 -202v-20h-312q2 -92 35.5 -141t91.5 -49q44 0 72.5 23t52.5 69l56 -35q-61 -125 -185 -125zM120 308h234q-4 75 -32 118.5t-80 43.5q-48 0 -82 -41t-40 -121z" />
    <glyph glyph-name="Ebreve" unicode="&#x114;" horiz-adv-x="508" 
d="M261 784q-62 0 -95.5 43.5t-37.5 121.5h51q11 -105 82 -105t81 105h51q-4 -78 -37.5 -121.5t-94.5 -43.5zM76 0v740h378v-77h-294v-234h215v-76h-215v-277h311v-76h-395z" />
    <glyph glyph-name="ebreve" unicode="&#x115;" horiz-adv-x="470" 
d="M238 579q-62 0 -95.5 43.5t-37.5 121.5h51q11 -105 82 -105t81 105h51q-4 -78 -37.5 -121.5t-94.5 -43.5zM242 -11q-90 0 -146.5 71t-56.5 204q0 135 59 205t145 70q89 0 138.5 -70t49.5 -202v-20h-312q2 -92 35.5 -141t91.5 -49q44 0 72.5 23t52.5 69l56 -35
q-61 -125 -185 -125zM120 308h234q-4 75 -32 118.5t-80 43.5q-48 0 -82 -41t-40 -121z" />
    <glyph glyph-name="Edotaccent" unicode="&#x116;" horiz-adv-x="508" 
d="M225 785v88h92v-88h-92zM76 0v740h378v-77h-294v-234h215v-76h-215v-277h311v-76h-395z" />
    <glyph glyph-name="edotaccent" unicode="&#x117;" horiz-adv-x="470" 
d="M188 583v88h92v-88h-92zM242 -11q-90 0 -146.5 71t-56.5 204q0 135 59 205t145 70q89 0 138.5 -70t49.5 -202v-20h-312q2 -92 35.5 -141t91.5 -49q44 0 72.5 23t52.5 69l56 -35q-61 -125 -185 -125zM120 308h234q-4 75 -32 118.5t-80 43.5q-48 0 -82 -41t-40 -121z" />
    <glyph glyph-name="Eogonek" unicode="&#x118;" horiz-adv-x="508" 
d="M513 -152q-55 -37 -116 -37q-42 0 -64.5 20.5t-22.5 57.5q0 58 68 111h-302v740h378v-77h-294v-234h215v-76h-215v-277h311v-76h-45q-56 -45 -56 -98q0 -47 44 -47q32 0 78 24z" />
    <glyph glyph-name="eogonek" unicode="&#x119;" horiz-adv-x="470" 
d="M258 -189q-42 0 -64.5 20.5t-22.5 57.5q0 48 55 101q-84 6 -135.5 76.5t-51.5 197.5q0 135 59 205t145 70q89 0 138.5 -70t49.5 -202v-20h-312q2 -92 35.5 -141t91.5 -49q44 0 72.5 23t52.5 69l56 -35q-51 -104 -150 -122q-46 -41 -46 -90q0 -47 44 -47q32 0 78 24
l21 -31q-56 -37 -116 -37zM120 308h234q-4 75 -32 118.5t-80 43.5q-48 0 -82 -41t-40 -121z" />
    <glyph glyph-name="Ecaron" unicode="&#x11a;" horiz-adv-x="508" 
d="M243 786l-110 159h51l88 -91l88 91h49l-110 -159h-56zM76 0v740h378v-77h-294v-234h215v-76h-215v-277h311v-76h-395z" />
    <glyph glyph-name="ecaron" unicode="&#x11b;" horiz-adv-x="470" 
d="M206 584l-110 159h51l88 -91l88 91h49l-110 -159h-56zM242 -11q-90 0 -146.5 71t-56.5 204q0 135 59 205t145 70q89 0 138.5 -70t49.5 -202v-20h-312q2 -92 35.5 -141t91.5 -49q44 0 72.5 23t52.5 69l56 -35q-61 -125 -185 -125zM120 308h234q-4 75 -32 118.5t-80 43.5
q-48 0 -82 -41t-40 -121z" />
    <glyph glyph-name="Gcircumflex" unicode="&#x11c;" horiz-adv-x="611" 
d="M167 786l110 159h56l110 -159h-50l-88 89l-89 -89h-49zM303 -13q-123 0 -190 100.5t-67 284.5q0 180 70 281t194 101q181 0 228 -234l-76 -15q-19 89 -55 130.5t-99 41.5q-83 0 -130.5 -78t-47.5 -225q0 -155 47 -233.5t135 -78.5q74 0 115 56t43 164h-141v72h216v-354
h-67v101h-1q-20 -48 -64.5 -81t-109.5 -33z" />
    <glyph glyph-name="gcircumflex" unicode="&#x11d;" horiz-adv-x="493" 
d="M85 581l110 159h56l110 -159h-50l-88 89l-89 -89h-49zM230 219q50 0 78 34.5t28 93.5q0 60 -27.5 94t-79.5 34q-50 0 -78.5 -34.5t-28.5 -93.5t28.5 -93.5t79.5 -34.5zM362 486q45 39 106 49v-76q-44 0 -80 -14q24 -43 24 -97q0 -87 -50.5 -138t-131.5 -51q-40 0 -72 12
q-30 -17 -30 -41q0 -16 12.5 -23.5t48.5 -12.5l82 -10q97 -11 139 -42.5t42 -92.5q0 -69 -64 -109t-165 -40q-208 0 -208 127q0 77 86 118q-44 24 -44 66q0 48 57 83q-70 54 -70 154q0 85 52 138t133 53q83 0 133 -53zM157 29q-67 -31 -67 -90q0 -42 32.5 -61.5t109.5 -19.5
q65 0 105 21.5t40 59.5q0 34 -25.5 51.5t-93.5 25.5l-86 11q-2 1 -7 1t-8 1z" />
    <glyph glyph-name="Gbreve" unicode="&#x11e;" horiz-adv-x="611" 
d="M306 781q-62 0 -95.5 43.5t-37.5 121.5h51q11 -105 82 -105t81 105h51q-4 -78 -37.5 -121.5t-94.5 -43.5zM303 -13q-123 0 -190 100.5t-67 284.5q0 180 70 281t194 101q181 0 228 -234l-76 -15q-19 89 -55 130.5t-99 41.5q-83 0 -130.5 -78t-47.5 -225q0 -155 47 -233.5
t135 -78.5q74 0 115 56t43 164h-141v72h216v-354h-67v101h-1q-20 -48 -64.5 -81t-109.5 -33z" />
    <glyph glyph-name="gbreve" unicode="&#x11f;" horiz-adv-x="493" 
d="M235 579q-62 0 -95.5 43.5t-37.5 121.5h51q11 -105 82 -105t81 105h51q-4 -78 -37.5 -121.5t-94.5 -43.5zM230 219q50 0 78 34.5t28 93.5q0 60 -27.5 94t-79.5 34q-50 0 -78.5 -34.5t-28.5 -93.5t28.5 -93.5t79.5 -34.5zM362 486q45 39 106 49v-76q-44 0 -80 -14
q24 -43 24 -97q0 -87 -50.5 -138t-131.5 -51q-40 0 -72 12q-30 -17 -30 -41q0 -16 12.5 -23.5t48.5 -12.5l82 -10q97 -11 139 -42.5t42 -92.5q0 -69 -64 -109t-165 -40q-208 0 -208 127q0 77 86 118q-44 24 -44 66q0 48 57 83q-70 54 -70 154q0 85 52 138t133 53
q83 0 133 -53zM157 29q-67 -31 -67 -90q0 -42 32.5 -61.5t109.5 -19.5q65 0 105 21.5t40 59.5q0 34 -25.5 51.5t-93.5 25.5l-86 11q-2 1 -7 1t-8 1z" />
    <glyph glyph-name="Gdotaccent" unicode="&#x120;" horiz-adv-x="611" 
d="M259 788v88h92v-88h-92zM303 -13q-123 0 -190 100.5t-67 284.5q0 180 70 281t194 101q181 0 228 -234l-76 -15q-19 89 -55 130.5t-99 41.5q-83 0 -130.5 -78t-47.5 -225q0 -155 47 -233.5t135 -78.5q74 0 115 56t43 164h-141v72h216v-354h-67v101h-1q-20 -48 -64.5 -81
t-109.5 -33z" />
    <glyph glyph-name="gdotaccent" unicode="&#x121;" horiz-adv-x="493" 
d="M182 583v88h92v-88h-92zM230 219q50 0 78 34.5t28 93.5q0 60 -27.5 94t-79.5 34q-50 0 -78.5 -34.5t-28.5 -93.5t28.5 -93.5t79.5 -34.5zM362 486q45 39 106 49v-76q-44 0 -80 -14q24 -43 24 -97q0 -87 -50.5 -138t-131.5 -51q-40 0 -72 12q-30 -17 -30 -41
q0 -16 12.5 -23.5t48.5 -12.5l82 -10q97 -11 139 -42.5t42 -92.5q0 -69 -64 -109t-165 -40q-208 0 -208 127q0 77 86 118q-44 24 -44 66q0 48 57 83q-70 54 -70 154q0 85 52 138t133 53q83 0 133 -53zM157 29q-67 -31 -67 -90q0 -42 32.5 -61.5t109.5 -19.5q65 0 105 21.5
t40 59.5q0 34 -25.5 51.5t-93.5 25.5l-86 11q-2 1 -7 1t-8 1z" />
    <glyph glyph-name="Gcommaaccent" unicode="&#x122;" horiz-adv-x="611" 
d="M303 -13q-123 0 -190 100.5t-67 284.5q0 180 70 281t194 101q181 0 228 -234l-76 -15q-19 89 -55 130.5t-99 41.5q-83 0 -130.5 -78t-47.5 -225q0 -155 47 -233.5t135 -78.5q74 0 115 56t43 164h-141v72h216v-354h-67v101h-1q-20 -48 -64.5 -81t-109.5 -33zM269 -233
l26 99h-31v94h84v-85l-43 -108h-36z" />
    <glyph glyph-name="gcommaaccent" unicode="&#x123;" horiz-adv-x="493" 
d="M193 583v85l43 108h36l-27 -99h32v-94h-84zM230 219q50 0 78 34.5t28 93.5q0 60 -27.5 94t-79.5 34q-50 0 -78.5 -34.5t-28.5 -93.5t28.5 -93.5t79.5 -34.5zM362 486q45 39 106 49v-76q-44 0 -80 -14q24 -43 24 -97q0 -87 -50.5 -138t-131.5 -51q-40 0 -72 12
q-30 -17 -30 -41q0 -16 12.5 -23.5t48.5 -12.5l82 -10q97 -11 139 -42.5t42 -92.5q0 -69 -64 -109t-165 -40q-208 0 -208 127q0 77 86 118q-44 24 -44 66q0 48 57 83q-70 54 -70 154q0 85 52 138t133 53q83 0 133 -53zM157 29q-67 -31 -67 -90q0 -42 32.5 -61.5t109.5 -19.5
q65 0 105 21.5t40 59.5q0 34 -25.5 51.5t-93.5 25.5l-86 11q-2 1 -7 1t-8 1z" />
    <glyph glyph-name="Hcircumflex" unicode="&#x124;" horiz-adv-x="620" 
d="M172 786l110 159h56l110 -159h-50l-88 89l-89 -89h-49zM76 0v740h84v-311h300v311h84v-740h-84v352h-300v-352h-84z" />
    <glyph glyph-name="hcircumflex" unicode="&#x125;" horiz-adv-x="502" 
d="M-33 783l110 159h56l110 -159h-50l-88 89l-89 -89h-49zM64 0v740h81v-285q31 34 75.5 59t91.5 25q64 0 97 -37.5t33 -109.5v-392h-80v375q0 48 -17.5 70.5t-57.5 22.5q-68 0 -142 -76v-392h-81z" />
    <glyph glyph-name="Hbar" unicode="&#x126;" horiz-adv-x="620" 
d="M160 424h300v121h-300v-121zM160 347v-347h-83v545h-62v69h62v126h83v-126h300v126h84v-126h62v-69h-62v-545h-84v347h-300z" />
    <glyph glyph-name="hbar" unicode="&#x127;" horiz-adv-x="502" 
d="M145 393v-393h-80v578h-70v59h70v103h80v-103h93v-59h-93v-126q31 35 75.5 61t91.5 26q130 0 130 -143v-396h-79v376q0 93 -76 93q-66 0 -142 -76z" />
    <glyph glyph-name="Itilde" unicode="&#x128;" horiz-adv-x="248" 
d="M190 784q-29 0 -71.5 28t-57.5 28q-35 0 -35 -54h-49q0 118 82 118q29 0 71.5 -28t58.5 -28q18 0 26 12t8 42h48q0 -118 -81 -118zM82 0v740h84v-740h-84z" />
    <glyph glyph-name="itilde" unicode="&#x129;" horiz-adv-x="220" 
d="M176 579q-29 0 -71.5 28t-57.5 28q-35 0 -35 -54h-49q0 118 82 118q29 0 71.5 -28t58.5 -28q18 0 26 12t8 42h48q0 -118 -81 -118zM69 0v528h81v-528h-81z" />
    <glyph glyph-name="Imacron" unicode="&#x12a;" horiz-adv-x="248" 
d="M8 785v66h232v-66h-232zM82 0v740h84v-740h-84z" />
    <glyph glyph-name="imacron" unicode="&#x12b;" horiz-adv-x="220" 
d="M-6 583v66h232v-66h-232zM69 0v528h81v-528h-81z" />
    <glyph glyph-name="Ibreve" unicode="&#x12c;" horiz-adv-x="248" 
d="M125 784q-62 0 -95.5 43.5t-37.5 121.5h51q11 -105 82 -105t81 105h51q-4 -78 -37.5 -121.5t-94.5 -43.5zM82 0v740h84v-740h-84z" />
    <glyph glyph-name="ibreve" unicode="&#x12d;" horiz-adv-x="220" 
d="M111 579q-62 0 -95.5 43.5t-37.5 121.5h51q11 -105 82 -105t81 105h51q-4 -78 -37.5 -121.5t-94.5 -43.5zM69 0v528h81v-528h-81z" />
    <glyph glyph-name="Iogonek" unicode="&#x12e;" horiz-adv-x="248" 
d="M215 -152q-55 -37 -116 -37q-42 0 -64.5 20.5t-22.5 57.5q0 30 20.5 61t49.5 52v738h84v-740h-38q-56 -45 -56 -98q0 -47 44 -47q32 0 78 24z" />
    <glyph glyph-name="iogonek" unicode="&#x12f;" horiz-adv-x="220" 
d="M69 633v87h82v-87h-82zM202 -152q-55 -37 -116 -37q-42 0 -64.5 20.5t-22.5 57.5q0 30 20.5 61t49.5 52v526h81v-528h-35q-56 -45 -56 -98q0 -47 44 -47q32 0 78 24z" />
    <glyph glyph-name="Idotaccent" unicode="&#x130;" horiz-adv-x="248" 
d="M78 785v88h92v-88h-92zM82 0v740h84v-740h-84z" />
    <glyph glyph-name="dotlessi" unicode="&#x131;" horiz-adv-x="220" 
d="M69 0v528h81v-528h-81z" />
    <glyph glyph-name="IJ" unicode="&#x132;" horiz-adv-x="648" 
d="M82 0v740h84v-740h-84zM405 -8q-94 0 -169 58l40 61q59 -46 123 -46q43 0 68.5 25.5t25.5 78.5v574h84v-575q0 -85 -46 -130.5t-126 -45.5z" />
    <glyph glyph-name="ij" unicode="&#x133;" horiz-adv-x="439" 
d="M288 633v87h82v-87h-82zM69 633v87h82v-87h-82zM69 0v528h81v-528h-81zM259 -201q-32 0 -42 4v63q12 -2 28 -2q43 0 43 57v607h81v-610q0 -61 -25 -90t-85 -29z" />
    <glyph glyph-name="Jcircumflex" unicode="&#x134;" horiz-adv-x="431" 
d="M179 786l110 159h56l110 -159h-50l-88 89l-89 -89h-49zM188 -11q-94 0 -169 58l40 61q59 -46 123 -46q43 0 68.5 25.5t25.5 78.5v574h84v-575q0 -85 -46 -130.5t-126 -45.5z" />
    <glyph glyph-name="jcircumflex" unicode="&#x135;" horiz-adv-x="220" 
d="M-27 581l110 159h56l110 -159h-50l-88 89l-89 -89h-49zM40 -201q-24 0 -42 3v62q12 -2 28 -2q44 0 44 57v609h80v-610q0 -62 -25 -90.5t-85 -28.5z" />
    <glyph glyph-name="Kcommaaccent" unicode="&#x136;" horiz-adv-x="568" 
d="M76 0v740h84v-388q18 31 77 114l192 274h89l-205 -287l238 -453h-89l-201 382l-101 -138v-244h-84zM247 -233l26 99h-31v94h84v-85l-43 -108h-36z" />
    <glyph glyph-name="kcommaaccent" unicode="&#x137;" horiz-adv-x="459" 
d="M64 0v740h80v-484q5 10 73 104l121 168h83l-143 -193l161 -335h-83l-128 269l-84 -111v-158h-80zM193 -233l26 99h-31v94h84v-85l-43 -108h-36z" />
    <glyph glyph-name="kgreenlandic" unicode="&#x138;" horiz-adv-x="459" 
d="M65 0v528h79v-272q5 10 73 104l122 168h82l-143 -193l161 -335h-82l-129 270l-84 -112v-158h-79z" />
    <glyph glyph-name="Lacute" unicode="&#x139;" horiz-adv-x="484" 
d="M92 786l81 156h94l-121 -156h-54zM76 0v740h84v-664h293v-76h-377z" />
    <glyph glyph-name="lacute" unicode="&#x13a;" horiz-adv-x="220" 
d="M78 786l81 156h94l-121 -156h-54zM69 0v740h81v-740h-81z" />
    <glyph glyph-name="Lcommaaccent" unicode="&#x13b;" horiz-adv-x="484" 
d="M76 0v740h84v-664h293v-76h-377zM205 -233l26 99h-31v94h84v-85l-43 -108h-36z" />
    <glyph glyph-name="lcommaaccent" unicode="&#x13c;" horiz-adv-x="220" 
d="M69 0v740h81v-740h-81zM74 -233l26 99h-31v94h84v-85l-43 -108h-36z" />
    <glyph glyph-name="Lcaron" unicode="&#x13d;" horiz-adv-x="484" 
d="M76 0v740h84v-664h293v-76h-377zM261 546l26 99h-31v94h84v-85l-43 -108h-36z" />
    <glyph glyph-name="lcaron" unicode="&#x13e;" horiz-adv-x="220" 
d="M199 575l26 96h-30v91h80v-82l-41 -105h-35zM69 0v740h81v-740h-81z" />
    <glyph glyph-name="Ldot" unicode="&#x13f;" horiz-adv-x="497" 
d="M76 0v740h84v-664h293v-76h-377zM325 356v88h87v-88h-87z" />
    <glyph glyph-name="ldot" unicode="&#x140;" horiz-adv-x="316" 
d="M69 0v740h81v-740h-81zM225 273v88h87v-88h-87z" />
    <glyph glyph-name="Lslash" unicode="&#x141;" horiz-adv-x="484" 
d="M76 0v312l-62 -28v69l62 29v358h84v-326l123 60v-71l-123 -57v-270h293v-76h-377z" />
    <glyph glyph-name="lslash" unicode="&#x142;" horiz-adv-x="260" 
d="M90 0v444l-71 -34v68l71 34v228h80v-198l71 34v-68l-71 -34v-474h-80z" />
    <glyph glyph-name="Nacute" unicode="&#x143;" horiz-adv-x="627" 
d="M273 786l81 156h94l-121 -156h-54zM76 0v740h98l232 -453l65 -131h2v584h77v-740h-77l-248 477q-42 81 -70 140h-2v-617h-77z" />
    <glyph glyph-name="nacute" unicode="&#x144;" horiz-adv-x="502" 
d="M211 584l81 156h94l-121 -156h-54zM64 0v528h81v-73q31 34 75.5 59t91.5 25q64 0 97 -37.5t33 -109.5v-392h-80v375q0 48 -17.5 70.5t-57.5 22.5q-68 0 -142 -76v-392h-81z" />
    <glyph glyph-name="Ncommaaccent" unicode="&#x145;" horiz-adv-x="627" 
d="M76 0v740h98l232 -453l65 -131h2v584h77v-740h-77l-248 477q-42 81 -70 140h-2v-617h-77zM277 -233l26 99h-31v94h84v-85l-43 -108h-36z" />
    <glyph glyph-name="ncommaaccent" unicode="&#x146;" horiz-adv-x="502" 
d="M64 0v528h81v-73q31 34 75.5 59t91.5 25q64 0 97 -37.5t33 -109.5v-392h-80v375q0 48 -17.5 70.5t-57.5 22.5q-68 0 -142 -76v-392h-81zM214 -233l26 99h-31v94h84v-85l-43 -108h-36z" />
    <glyph glyph-name="Ncaron" unicode="&#x147;" horiz-adv-x="627" 
d="M285 786l-110 159h51l88 -91l88 91h49l-110 -159h-56zM76 0v740h98l232 -453l65 -131h2v584h77v-740h-77l-248 477q-42 81 -70 140h-2v-617h-77z" />
    <glyph glyph-name="ncaron" unicode="&#x148;" horiz-adv-x="502" 
d="M223 584l-110 159h51l88 -91l88 91h49l-110 -159h-56zM64 0v528h81v-73q31 34 75.5 59t91.5 25q64 0 97 -37.5t33 -109.5v-392h-80v375q0 48 -17.5 70.5t-57.5 22.5q-68 0 -142 -76v-392h-81z" />
    <glyph glyph-name="Eng" unicode="&#x14a;" horiz-adv-x="627" 
d="M77 0v740h97l234 -453q41 -75 64 -129h2v582h76v-766q0 -86 -43.5 -130.5t-121.5 -44.5q-96 0 -169 58l40 60q61 -46 123 -46q43 0 69 24.5t26 72.5v32l-250 478q-30 56 -69 139h-2v-617h-76z" />
    <glyph glyph-name="eng" unicode="&#x14b;" horiz-adv-x="502" 
d="M65 0v528h80v-73q31 34 75.5 59t91.5 25q64 0 97 -37.5t33 -109.5v-474q0 -62 -25 -90.5t-85 -28.5q-28 0 -40 3v62q10 -2 27 -2q44 0 44 57v457q0 93 -76 93q-68 0 -142 -76v-393h-80z" />
    <glyph glyph-name="Omacron" unicode="&#x14c;" horiz-adv-x="627" 
d="M197 785v66h232v-66h-232zM314 -14q-120 0 -194 101t-74 283t74 283t194 101q119 0 193 -101t74 -283t-74 -283t-193 -101zM314 62q85 0 133.5 81t48.5 227t-48.5 226.5t-133.5 80.5q-86 0 -135 -80.5t-49 -226.5t49 -227t135 -81z" />
    <glyph glyph-name="omacron" unicode="&#x14d;" horiz-adv-x="495" 
d="M131 583v66h232v-66h-232zM248 -11q-92 0 -150.5 72t-58.5 203q0 132 58.5 203.5t150.5 71.5t150 -71.5t58 -203.5q0 -131 -58.5 -203t-149.5 -72zM248 57q62 0 94.5 55.5t32.5 151.5q0 91 -32 148t-95 57q-62 0 -95 -55t-33 -150q0 -92 31.5 -149.5t96.5 -57.5z" />
    <glyph glyph-name="Obreve" unicode="&#x14e;" horiz-adv-x="627" 
d="M314 784q-62 0 -95.5 43.5t-37.5 121.5h51q11 -105 82 -105t81 105h51q-4 -78 -37.5 -121.5t-94.5 -43.5zM314 -14q-120 0 -194 101t-74 283t74 283t194 101q119 0 193 -101t74 -283t-74 -283t-193 -101zM314 62q85 0 133.5 81t48.5 227t-48.5 226.5t-133.5 80.5
q-86 0 -135 -80.5t-49 -226.5t49 -227t135 -81z" />
    <glyph glyph-name="obreve" unicode="&#x14f;" horiz-adv-x="495" 
d="M249 579q-62 0 -95.5 43.5t-37.5 121.5h51q11 -105 82 -105t81 105h51q-4 -78 -37.5 -121.5t-94.5 -43.5zM248 -11q-92 0 -150.5 72t-58.5 203q0 132 58.5 203.5t150.5 71.5t150 -71.5t58 -203.5q0 -131 -58.5 -203t-149.5 -72zM248 57q62 0 94.5 55.5t32.5 151.5
q0 91 -32 148t-95 57q-62 0 -95 -55t-33 -150q0 -92 31.5 -149.5t96.5 -57.5z" />
    <glyph glyph-name="Ohungarumlaut" unicode="&#x150;" horiz-adv-x="627" 
d="M198 786l81 156h96l-121 -156h-56zM344 786l83 156h95l-123 -156h-55zM314 -14q-120 0 -194 101t-74 283t74 283t194 101q119 0 193 -101t74 -283t-74 -283t-193 -101zM314 62q85 0 133.5 81t48.5 227t-48.5 226.5t-133.5 80.5q-86 0 -135 -80.5t-49 -226.5t49 -227
t135 -81z" />
    <glyph glyph-name="ohungarumlaut" unicode="&#x151;" horiz-adv-x="495" 
d="M132 584l81 156h96l-121 -156h-56zM278 584l83 156h95l-123 -156h-55zM248 -11q-92 0 -150.5 72t-58.5 203q0 132 58.5 203.5t150.5 71.5t150 -71.5t58 -203.5q0 -131 -58.5 -203t-149.5 -72zM248 57q62 0 94.5 55.5t32.5 151.5q0 91 -32 148t-95 57q-62 0 -95 -55
t-33 -150q0 -92 31.5 -149.5t96.5 -57.5z" />
    <glyph glyph-name="OE" unicode="&#x152;" horiz-adv-x="927" 
d="M314 62q85 0 133.5 81t48.5 227t-48.5 226.5t-133.5 80.5q-86 0 -135 -80.5t-49 -226.5t49 -227t135 -81zM502 638v102h370v-77h-294v-235h216v-75h-216v-277h312v-76h-388v104q-61 -118 -188 -118q-120 0 -194 101t-74 283t74 283t194 101q125 0 188 -116z" />
    <glyph glyph-name="oe" unicode="&#x153;" horiz-adv-x="803" 
d="M413 435q26 51 68.5 77.5t93.5 26.5q90 0 140 -70t50 -202v-20h-313q3 -92 36.5 -141t91.5 -49q43 0 71.5 23t52.5 69l56 -35q-61 -125 -185 -125q-111 0 -162 103q-55 -103 -165 -103q-92 0 -150.5 72t-58.5 203q0 132 58.5 203.5t150.5 71.5q111 0 165 -104zM453 308
h234q-4 76 -31.5 119t-80.5 43q-47 0 -81 -40.5t-41 -121.5zM248 57q62 0 94.5 55.5t32.5 151.5q0 91 -32 148t-95 57q-62 0 -95 -55t-33 -150q0 -92 31.5 -149.5t96.5 -57.5z" />
    <glyph glyph-name="Racute" unicode="&#x154;" horiz-adv-x="570" 
d="M245 786l81 156h94l-121 -156h-54zM159 387h122q76 0 112.5 32.5t36.5 109.5q0 72 -36.5 103t-112.5 31h-122v-276zM76 0v740h210q109 0 167 -52t58 -158q0 -84 -39 -134t-101 -66l150 -330h-86l-145 315h-131v-315h-83z" />
    <glyph glyph-name="racute" unicode="&#x155;" horiz-adv-x="345" 
d="M133 584l81 156h94l-121 -156h-54zM64 0v528h81v-91h2q58 102 167 102h11l-5 -76q-15 1 -19 1q-50 0 -91 -29.5t-65 -78.5v-356h-81z" />
    <glyph glyph-name="Rcommaaccent" unicode="&#x156;" horiz-adv-x="570" 
d="M159 387h122q76 0 112.5 32.5t36.5 109.5q0 72 -36.5 103t-112.5 31h-122v-276zM76 0v740h210q109 0 167 -52t58 -158q0 -84 -39 -134t-101 -66l150 -330h-86l-145 315h-131v-315h-83zM248 -233l26 99h-31v94h84v-85l-43 -108h-36z" />
    <glyph glyph-name="rcommaaccent" unicode="&#x157;" horiz-adv-x="345" 
d="M64 0v528h81v-91h2q58 102 167 102h11l-5 -76q-15 1 -19 1q-50 0 -91 -29.5t-65 -78.5v-356h-81zM70 -233l26 99h-31v94h84v-85l-43 -108h-36z" />
    <glyph glyph-name="Rcaron" unicode="&#x158;" horiz-adv-x="570" 
d="M257 786l-110 159h51l88 -91l88 91h49l-110 -159h-56zM159 387h122q76 0 112.5 32.5t36.5 109.5q0 72 -36.5 103t-112.5 31h-122v-276zM76 0v740h210q109 0 167 -52t58 -158q0 -84 -39 -134t-101 -66l150 -330h-86l-145 315h-131v-315h-83z" />
    <glyph glyph-name="rcaron" unicode="&#x159;" horiz-adv-x="345" 
d="M145 584l-110 159h51l88 -91l88 91h49l-110 -159h-56zM64 0v528h81v-91h2q58 102 167 102h11l-5 -76q-15 1 -19 1q-50 0 -91 -29.5t-65 -78.5v-356h-81z" />
    <glyph glyph-name="Sacute" unicode="&#x15a;" horiz-adv-x="547" 
d="M233 786l81 156h94l-121 -156h-54zM279 -12q-171 0 -246 175l72 33q58 -134 174 -134q65 0 102 32.5t37 86.5q0 31 -11.5 55.5t-36.5 44t-45.5 31.5t-58.5 30l-48.5 24t-44 24.5t-44 32t-31.5 37t-25 50t-7 60.5q0 80 57.5 132t143.5 52q155 0 221 -156l-72 -35
q-51 117 -150 117q-52 0 -84.5 -30t-32.5 -77q0 -31 11 -55.5t36 -44t45 -31.5t57 -30l42 -20t39 -21t39.5 -25.5t31.5 -29t27.5 -36.5t15.5 -43.5t7 -53.5q0 -83 -60.5 -139t-160.5 -56z" />
    <glyph glyph-name="sacute" unicode="&#x15b;" horiz-adv-x="435" 
d="M178 584l81 156h94l-121 -156h-54zM217 -11q-130 0 -197 108l55 40q54 -82 143 -82q50 0 77.5 20.5t27.5 57.5q0 35 -28.5 58.5t-68.5 37.5t-80.5 31t-69 51t-28.5 86q0 63 46.5 102.5t120.5 39.5q112 0 174 -95l-54 -42q-46 70 -121 70q-43 0 -65.5 -19.5t-22.5 -51.5
q0 -36 28 -58.5t68 -36.5t80.5 -30t68.5 -51t28 -88q0 -67 -52 -107.5t-130 -40.5z" />
    <glyph glyph-name="Scircumflex" unicode="&#x15c;" horiz-adv-x="547" 
d="M126 786l110 159h56l110 -159h-50l-88 89l-89 -89h-49zM279 -12q-171 0 -246 175l72 33q58 -134 174 -134q65 0 102 32.5t37 86.5q0 31 -11.5 55.5t-36.5 44t-45.5 31.5t-58.5 30l-48.5 24t-44 24.5t-44 32t-31.5 37t-25 50t-7 60.5q0 80 57.5 132t143.5 52
q155 0 221 -156l-72 -35q-51 117 -150 117q-52 0 -84.5 -30t-32.5 -77q0 -31 11 -55.5t36 -44t45 -31.5t57 -30l42 -20t39 -21t39.5 -25.5t31.5 -29t27.5 -36.5t15.5 -43.5t7 -53.5q0 -83 -60.5 -139t-160.5 -56z" />
    <glyph glyph-name="scircumflex" unicode="&#x15d;" horiz-adv-x="435" 
d="M71 581l110 159h56l110 -159h-50l-88 89l-89 -89h-49zM217 -11q-130 0 -197 108l55 40q54 -82 143 -82q50 0 77.5 20.5t27.5 57.5q0 35 -28.5 58.5t-68.5 37.5t-80.5 31t-69 51t-28.5 86q0 63 46.5 102.5t120.5 39.5q112 0 174 -95l-54 -42q-46 70 -121 70
q-43 0 -65.5 -19.5t-22.5 -51.5q0 -36 28 -58.5t68 -36.5t80.5 -30t68.5 -51t28 -88q0 -67 -52 -107.5t-130 -40.5z" />
    <glyph glyph-name="Scedilla" unicode="&#x15e;" horiz-adv-x="547" 
d="M276 -203q-65 0 -114 36l24 38q40 -29 89 -29q60 0 60 45q0 33 -35 33q-23 0 -44 -19l-31 14l21 75q-145 15 -213 173l72 33q58 -134 174 -134q65 0 102 32.5t37 86.5q0 31 -11.5 55.5t-36.5 44t-45.5 31.5t-58.5 30l-48.5 24t-44 24.5t-44 32t-31.5 37t-25 50t-7 60.5
q0 80 57.5 132t143.5 52q155 0 221 -156l-72 -35q-51 117 -150 117q-52 0 -84.5 -30t-32.5 -77q0 -31 11 -55.5t36 -44t45 -31.5t57 -30l42 -20t39 -21t39.5 -25.5t31.5 -29t27.5 -36.5t15.5 -43.5t7 -53.5q0 -81 -57.5 -136t-152.5 -59l-11 -42q20 15 48 15
q27 0 46.5 -17.5t19.5 -51.5q0 -44 -34 -69.5t-83 -25.5z" />
    <glyph glyph-name="scedilla" unicode="&#x15f;" horiz-adv-x="435" 
d="M221 -203q-65 0 -114 36l24 38q40 -29 89 -29q60 0 60 45q0 33 -35 33q-23 0 -44 -19l-31 14l21 75q-111 11 -171 107l55 40q54 -82 143 -82q50 0 77.5 20.5t27.5 57.5q0 35 -28.5 58.5t-68.5 37.5t-80.5 31t-69 51t-28.5 86q0 63 46.5 102.5t120.5 39.5q112 0 174 -95
l-54 -42q-46 70 -121 70q-43 0 -65.5 -19.5t-22.5 -51.5q0 -36 28 -58.5t68 -36.5t80.5 -30t68.5 -51t28 -88q0 -63 -46 -102.5t-117 -44.5l-12 -44q20 15 48 15q27 0 46.5 -17.5t19.5 -51.5q0 -44 -34 -69.5t-83 -25.5z" />
    <glyph glyph-name="Scaron" unicode="&#x160;" horiz-adv-x="547" 
d="M245 786l-110 159h51l88 -91l88 91h49l-110 -159h-56zM279 -12q-171 0 -246 175l72 33q58 -134 174 -134q65 0 102 32.5t37 86.5q0 31 -11.5 55.5t-36.5 44t-45.5 31.5t-58.5 30l-48.5 24t-44 24.5t-44 32t-31.5 37t-25 50t-7 60.5q0 80 57.5 132t143.5 52
q155 0 221 -156l-72 -35q-51 117 -150 117q-52 0 -84.5 -30t-32.5 -77q0 -31 11 -55.5t36 -44t45 -31.5t57 -30l42 -20t39 -21t39.5 -25.5t31.5 -29t27.5 -36.5t15.5 -43.5t7 -53.5q0 -83 -60.5 -139t-160.5 -56z" />
    <glyph glyph-name="scaron" unicode="&#x161;" horiz-adv-x="435" 
d="M190 584l-110 159h51l88 -91l88 91h49l-110 -159h-56zM217 -11q-130 0 -197 108l55 40q54 -82 143 -82q50 0 77.5 20.5t27.5 57.5q0 35 -28.5 58.5t-68.5 37.5t-80.5 31t-69 51t-28.5 86q0 63 46.5 102.5t120.5 39.5q112 0 174 -95l-54 -42q-46 70 -121 70
q-43 0 -65.5 -19.5t-22.5 -51.5q0 -36 28 -58.5t68 -36.5t80.5 -30t68.5 -51t28 -88q0 -67 -52 -107.5t-130 -40.5z" />
    <glyph glyph-name="Tcaron" unicode="&#x164;" horiz-adv-x="519" 
d="M232 786l-110 159h51l88 -91l88 91h49l-110 -159h-56zM217 0v663h-191v77h466v-77h-191v-663h-84z" />
    <glyph glyph-name="tcaron" unicode="&#x165;" horiz-adv-x="325" 
d="M231 575l25 96h-30v91h80v-82l-41 -105h-34zM228 -6q-72 0 -102 28.5t-30 96.5v342h-78v67h78v188h80v-188h116v-67h-116v-324q0 -42 14.5 -60t55.5 -18q28 0 45 7v-65q-21 -7 -63 -7z" />
    <glyph glyph-name="Tbar" unicode="&#x166;" horiz-adv-x="519" 
d="M492 330h-191v-330h-83v330h-192v69h192v264h-191v77h465v-77h-191v-264h191v-69z" />
    <glyph glyph-name="tbar" unicode="&#x167;" horiz-adv-x="325" 
d="M291 1q-19 -8 -63 -8q-71 0 -101 29t-30 97v127h-78v60h78v158h-78v64h78v188h79v-188h116v-64h-116v-158h116v-60h-116v-111q0 -42 14.5 -60t55.5 -18q28 0 45 7v-63z" />
    <glyph glyph-name="Utilde" unicode="&#x168;" horiz-adv-x="602" 
d="M367 784q-29 0 -71.5 28t-57.5 28q-35 0 -35 -54h-49q0 118 82 118q29 0 71.5 -28t58.5 -28q18 0 26 12t8 42h48q0 -118 -81 -118zM301 -13q-119 0 -175 67.5t-56 188.5v497h84v-486q0 -96 34 -144.5t114 -48.5q79 0 113.5 48t34.5 143v488h81v-495q0 -119 -56.5 -188.5
t-173.5 -69.5z" />
    <glyph glyph-name="utilde" unicode="&#x169;" horiz-adv-x="502" 
d="M317 579q-29 0 -71.5 28t-57.5 28q-35 0 -35 -54h-49q0 118 82 118q29 0 71.5 -28t58.5 -28q18 0 26 12t8 42h48q0 -118 -81 -118zM190 -11q-64 0 -97 37.5t-33 109.5v392h80v-377q0 -48 18 -70t60 -22q65 0 139 76v393h81v-528h-81v73q-76 -84 -167 -84z" />
    <glyph glyph-name="Umacron" unicode="&#x16a;" horiz-adv-x="602" 
d="M185 785v66h232v-66h-232zM301 -13q-119 0 -175 67.5t-56 188.5v497h84v-486q0 -96 34 -144.5t114 -48.5q79 0 113.5 48t34.5 143v488h81v-495q0 -119 -56.5 -188.5t-173.5 -69.5z" />
    <glyph glyph-name="umacron" unicode="&#x16b;" horiz-adv-x="502" 
d="M135 583v66h232v-66h-232zM190 -11q-64 0 -97 37.5t-33 109.5v392h80v-377q0 -48 18 -70t60 -22q65 0 139 76v393h81v-528h-81v73q-76 -84 -167 -84z" />
    <glyph glyph-name="Ubreve" unicode="&#x16c;" horiz-adv-x="602" 
d="M302 784q-62 0 -95.5 43.5t-37.5 121.5h51q11 -105 82 -105t81 105h51q-4 -78 -37.5 -121.5t-94.5 -43.5zM301 -13q-119 0 -175 67.5t-56 188.5v497h84v-486q0 -96 34 -144.5t114 -48.5q79 0 113.5 48t34.5 143v488h81v-495q0 -119 -56.5 -188.5t-173.5 -69.5z" />
    <glyph glyph-name="ubreve" unicode="&#x16d;" horiz-adv-x="502" 
d="M248 579q-62 0 -95.5 43.5t-37.5 121.5h51q11 -105 82 -105t81 105h51q-4 -78 -37.5 -121.5t-94.5 -43.5zM190 -11q-64 0 -97 37.5t-33 109.5v392h80v-377q0 -48 18 -70t60 -22q65 0 139 76v393h81v-528h-81v73q-76 -84 -167 -84z" />
    <glyph glyph-name="Uring" unicode="&#x16e;" horiz-adv-x="602" 
d="M301 776q-38 0 -61.5 27t-23.5 69t23 68.5t62 26.5q38 0 61.5 -26.5t23.5 -68.5t-23.5 -69t-61.5 -27zM301 815q20 0 31 16.5t11 40.5q0 23 -11 39t-31 16t-31 -16t-11 -39q0 -24 11 -40.5t31 -16.5zM301 -13q-119 0 -175 67.5t-56 188.5v497h84v-486q0 -96 34 -144.5
t114 -48.5q79 0 113.5 48t34.5 143v488h81v-495q0 -119 -56.5 -188.5t-173.5 -69.5z" />
    <glyph glyph-name="uring" unicode="&#x16f;" horiz-adv-x="502" 
d="M251 574q-38 0 -61.5 27t-23.5 69t23 68.5t62 26.5q38 0 61.5 -26.5t23.5 -68.5t-23.5 -69t-61.5 -27zM251 613q20 0 31 16.5t11 40.5q0 23 -11 39t-31 16t-31 -16t-11 -39q0 -24 11 -40.5t31 -16.5zM190 -11q-64 0 -97 37.5t-33 109.5v392h80v-377q0 -48 18 -70t60 -22
q65 0 139 76v393h81v-528h-81v73q-76 -84 -167 -84z" />
    <glyph glyph-name="Uhungarumlaut" unicode="&#x170;" horiz-adv-x="602" 
d="M186 786l81 156h96l-121 -156h-56zM332 786l83 156h95l-123 -156h-55zM301 -13q-119 0 -175 67.5t-56 188.5v497h84v-486q0 -96 34 -144.5t114 -48.5q79 0 113.5 48t34.5 143v488h81v-495q0 -119 -56.5 -188.5t-173.5 -69.5z" />
    <glyph glyph-name="uhungarumlaut" unicode="&#x171;" horiz-adv-x="502" 
d="M136 584l81 156h96l-121 -156h-56zM282 584l83 156h95l-123 -156h-55zM190 -11q-64 0 -97 37.5t-33 109.5v392h80v-377q0 -48 18 -70t60 -22q65 0 139 76v393h81v-528h-81v73q-76 -84 -167 -84z" />
    <glyph glyph-name="Uogonek" unicode="&#x172;" horiz-adv-x="602" 
d="M298 -189q-42 0 -64.5 20.5t-22.5 57.5q0 50 54 100q-195 20 -195 254v497h84v-486q0 -96 34 -144.5t114 -48.5q79 0 113.5 48t34.5 143v488h81v-495q0 -116 -54 -185t-165 -73q-41 -39 -41 -85q0 -47 44 -47q32 0 78 24l21 -31q-56 -37 -116 -37z" />
    <glyph glyph-name="uogonek" unicode="&#x173;" horiz-adv-x="502" 
d="M489 -152q-55 -37 -116 -37q-42 0 -64.5 20.5t-22.5 57.5q0 30 21 61t50 53v70q-76 -84 -167 -84q-64 0 -97 37.5t-33 109.5v392h80v-377q0 -48 18 -70t60 -22q65 0 139 76v393h81v-528h-36q-56 -45 -56 -98q0 -47 44 -47q32 0 78 24z" />
    <glyph glyph-name="Wcircumflex" unicode="&#x174;" horiz-adv-x="777" 
d="M250 786l110 159h56l110 -159h-50l-88 89l-89 -89h-49zM195 -3l-165 743h80l80 -380q26 -120 44 -219h2q8 51 42 219l75 380h76l78 -390q30 -144 41 -209h2q14 81 41 209l81 390h75l-165 -743h-71l-121 596h-2l-122 -596h-71z" />
    <glyph glyph-name="wcircumflex" unicode="&#x175;" horiz-adv-x="638" 
d="M181 581l110 159h56l110 -159h-50l-88 89l-89 -89h-49zM154 -2l-135 530h78l65 -265q13 -54 33 -147h2q12 68 32 150l58 262h71l59 -260q23 -94 33 -153h2q11 55 34 153l62 260h71l-134 -530h-71l-93 403h-2l-95 -403h-70z" />
    <glyph glyph-name="Ycircumflex" unicode="&#x176;" horiz-adv-x="526" 
d="M126 786l110 159h56l110 -159h-50l-88 89l-89 -89h-49zM221 0v305l-205 435h86l162 -358h2l162 358h81l-204 -433v-307h-84z" />
    <glyph glyph-name="ycircumflex" unicode="&#x177;" horiz-adv-x="455" 
d="M87 581l110 159h56l110 -159h-50l-88 89l-89 -89h-49zM88 -201q-46 0 -82 12l16 64q35 -8 64 -8q33 0 50.5 18.5t31.5 63.5l15 46l-165 533h83l80 -276q22 -75 43 -159h2q18 71 45 165l78 270h77l-182 -586q-25 -77 -58 -110t-98 -33z" />
    <glyph glyph-name="Ydieresis" unicode="&#x178;" horiz-adv-x="526" 
d="M144 785v90h81v-90h-81zM303 785v90h80v-90h-80zM221 0v305l-205 435h86l162 -358h2l162 358h81l-204 -433v-307h-84z" />
    <glyph glyph-name="Zacute" unicode="&#x179;" horiz-adv-x="527" 
d="M223 786l81 156h94l-121 -156h-54zM33 0v63l354 600h-330v77h428v-63l-352 -601h352v-76h-452z" />
    <glyph glyph-name="zacute" unicode="&#x17a;" horiz-adv-x="430" 
d="M175 584l81 156h94l-121 -156h-54zM32 0v52l257 409h-235v67h331v-53l-257 -409h268v-66h-364z" />
    <glyph glyph-name="Zdotaccent" unicode="&#x17b;" horiz-adv-x="527" 
d="M217 785v88h92v-88h-92zM33 0v63l354 600h-330v77h428v-63l-352 -601h352v-76h-452z" />
    <glyph glyph-name="zdotaccent" unicode="&#x17c;" horiz-adv-x="430" 
d="M169 583v88h92v-88h-92zM32 0v52l257 409h-235v67h331v-53l-257 -409h268v-66h-364z" />
    <glyph glyph-name="Zcaron" unicode="&#x17d;" horiz-adv-x="527" 
d="M235 786l-110 159h51l88 -91l88 91h49l-110 -159h-56zM33 0v63l354 600h-330v77h428v-63l-352 -601h352v-76h-452z" />
    <glyph glyph-name="zcaron" unicode="&#x17e;" horiz-adv-x="430" 
d="M187 584l-110 159h51l88 -91l88 91h49l-110 -159h-56zM32 0v52l257 409h-235v67h331v-53l-257 -409h268v-66h-364z" />
    <glyph glyph-name="florin" unicode="&#x192;" horiz-adv-x="342" 
d="M109 359h-80l10 66h79l25 183q18 135 159 135q8 0 44 -4l-11 -68q-27 3 -32 3q-71 0 -80 -69l-25 -180h98l-10 -66h-97l-59 -432q-10 -67 -47.5 -98t-105.5 -31q-16 0 -49 3l12 67q12 -3 30 -3q71 0 82 72z" />
    <glyph glyph-name="Scommaaccent" unicode="&#x218;" horiz-adv-x="547" 
d="M279 -12q-171 0 -246 175l72 33q58 -134 174 -134q65 0 102 32.5t37 86.5q0 31 -11.5 55.5t-36.5 44t-45.5 31.5t-58.5 30l-48.5 24t-44 24.5t-44 32t-31.5 37t-25 50t-7 60.5q0 80 57.5 132t143.5 52q155 0 221 -156l-72 -35q-51 117 -150 117q-52 0 -84.5 -30
t-32.5 -77q0 -31 11 -55.5t36 -44t45 -31.5t57 -30l42 -20t39 -21t39.5 -25.5t31.5 -29t27.5 -36.5t15.5 -43.5t7 -53.5q0 -83 -60.5 -139t-160.5 -56zM237 -233l26 99h-31v94h84v-85l-43 -108h-36z" />
    <glyph glyph-name="scommaaccent" unicode="&#x219;" horiz-adv-x="435" 
d="M217 -11q-130 0 -197 108l55 40q54 -82 143 -82q50 0 77.5 20.5t27.5 57.5q0 35 -28.5 58.5t-68.5 37.5t-80.5 31t-69 51t-28.5 86q0 63 46.5 102.5t120.5 39.5q112 0 174 -95l-54 -42q-46 70 -121 70q-43 0 -65.5 -19.5t-22.5 -51.5q0 -36 28 -58.5t68 -36.5t80.5 -30
t68.5 -51t28 -88q0 -67 -52 -107.5t-130 -40.5zM181 -233l26 99h-31v94h84v-85l-43 -108h-36z" />
    <glyph glyph-name="Tcommaaccent" unicode="&#x21a;" horiz-adv-x="519" 
d="M217 0v663h-191v77h466v-77h-191v-663h-84zM223 -233l26 99h-31v94h84v-85l-43 -108h-36z" />
    <glyph glyph-name="tcommaaccent" unicode="&#x21b;" horiz-adv-x="325" 
d="M228 -6q-72 0 -102 28.5t-30 96.5v342h-78v67h78v188h80v-188h116v-67h-116v-324q0 -42 14.5 -60t55.5 -18q28 0 45 7v-65q-21 -7 -63 -7zM101 -233l26 99h-31v94h84v-85l-43 -108h-36z" />
    <glyph glyph-name="schwa" unicode="&#x259;" horiz-adv-x="471" 
d="M228 539q90 0 146.5 -71t56.5 -204q0 -135 -58.5 -205t-144.5 -70q-90 0 -139.5 70t-49.5 202v20h313q-3 92 -36.5 141t-91.5 49q-43 0 -71.5 -23t-52.5 -69l-56 34q29 59 76 92.5t108 33.5zM351 220h-235q4 -76 32 -119t81 -43q47 0 81 40.5t41 121.5z" />
    <glyph glyph-name="circumflex" unicode="&#x2c6;" horiz-adv-x="444" 
d="M84 581l110 159h56l110 -159h-50l-88 89l-89 -89h-49z" />
    <glyph glyph-name="caron" unicode="&#x2c7;" horiz-adv-x="444" 
d="M194 584l-110 159h51l88 -91l88 91h49l-110 -159h-56z" />
    <glyph glyph-name="uni02C9" unicode="&#x2c9;" horiz-adv-x="444" 
d="M106 583v66h232v-66h-232z" />
    <glyph glyph-name="breve" unicode="&#x2d8;" horiz-adv-x="444" 
d="M223 579q-62 0 -95.5 43.5t-37.5 121.5h51q11 -105 82 -105t81 105h51q-4 -78 -37.5 -121.5t-94.5 -43.5z" />
    <glyph glyph-name="dotaccent" unicode="&#x2d9;" horiz-adv-x="444" 
d="M176 583v88h92v-88h-92z" />
    <glyph glyph-name="ring" unicode="&#x2da;" horiz-adv-x="444" 
d="M222 574q-38 0 -61.5 27t-23.5 69t23 68.5t62 26.5q38 0 61.5 -26.5t23.5 -68.5t-23.5 -69t-61.5 -27zM222 613q20 0 31 16.5t11 40.5q0 23 -11 39t-31 16t-31 -16t-11 -39q0 -24 11 -40.5t31 -16.5z" />
    <glyph glyph-name="ogonek" unicode="&#x2db;" horiz-adv-x="444" 
d="M217 -189q-42 0 -64.5 20.5t-22.5 57.5q0 30 21 61.5t53 54.5h48q-62 -46 -62 -103q0 -47 44 -47q32 0 78 24l21 -31q-55 -37 -116 -37z" />
    <glyph glyph-name="tilde" unicode="&#x2dc;" horiz-adv-x="444" 
d="M288 579q-29 0 -71.5 28t-57.5 28q-35 0 -35 -54h-49q0 118 82 118q29 0 71.5 -28t58.5 -28q18 0 26 12t8 42h48q0 -118 -81 -118z" />
    <glyph glyph-name="hungarumlaut" unicode="&#x2dd;" horiz-adv-x="444" 
d="M107 584l81 156h96l-121 -156h-56zM253 584l83 156h95l-123 -156h-55z" />
    <glyph glyph-name="Delta" unicode="&#x394;" horiz-adv-x="563" 
d="M27 0l217 743h76l216 -743h-509zM121 67h317l-95 334q-46 161 -63 228h-2q-16 -69 -62 -227z" />
    <glyph glyph-name="Omega" unicode="&#x3a9;" horiz-adv-x="630" 
d="M316 754q118 0 189 -100.5t71 -255.5q0 -106 -41 -191.5t-98 -136.5h134v-70h-210v66q133 125 133 326q0 129 -47 209.5t-132 80.5q-83 0 -131.5 -79t-48.5 -210q0 -201 134 -327v-66h-210v70h133q-56 49 -97 135.5t-41 192.5q0 156 72 256t190 100z" />
    <glyph glyph-name="mu" unicode="&#x3bc;" horiz-adv-x="503" 
d="M61 -200v728h80v-377q0 -48 18 -71t59 -23q64 0 141 75v396h80v-528h-80v76q-76 -80 -153 -84q-46 0 -65 22v-214h-80z" />
    <glyph glyph-name="pi" unicode="&#x3c0;" horiz-adv-x="559" 
d="M12 464v65h535v-65h-81v-464h-78v464h-217v-464h-78v464h-81z" />
    <glyph glyph-name="Wgrave" unicode="&#x1e80;" horiz-adv-x="777" 
d="M363 789l-120 156h94l80 -156h-54zM195 -3l-165 743h80l80 -380q26 -120 44 -219h2q8 51 42 219l75 380h76l78 -390q30 -144 41 -209h2q14 81 41 209l81 390h75l-165 -743h-71l-121 596h-2l-122 -596h-71z" />
    <glyph glyph-name="wgrave" unicode="&#x1e81;" horiz-adv-x="638" 
d="M291 584l-120 156h94l80 -156h-54zM154 -2l-135 530h78l65 -265q13 -54 33 -147h2q12 68 32 150l58 262h71l59 -260q23 -94 33 -153h2q11 55 34 153l62 260h71l-134 -530h-71l-93 403h-2l-95 -403h-70z" />
    <glyph glyph-name="Wacute" unicode="&#x1e82;" horiz-adv-x="777" 
d="M364 789l81 156h94l-121 -156h-54zM195 -3l-165 743h80l80 -380q26 -120 44 -219h2q8 51 42 219l75 380h76l78 -390q30 -144 41 -209h2q14 81 41 209l81 390h75l-165 -743h-71l-121 596h-2l-122 -596h-71z" />
    <glyph glyph-name="wacute" unicode="&#x1e83;" horiz-adv-x="638" 
d="M296 584l81 156h94l-121 -156h-54zM154 -2l-135 530h78l65 -265q13 -54 33 -147h2q12 68 32 150l58 262h71l59 -260q23 -94 33 -153h2q11 55 34 153l62 260h71l-134 -530h-71l-93 403h-2l-95 -403h-70z" />
    <glyph glyph-name="Wdieresis" unicode="&#x1e84;" horiz-adv-x="777" 
d="M269 788v90h81v-90h-81zM428 788v90h80v-90h-80zM195 -3l-165 743h80l80 -380q26 -120 44 -219h2q8 51 42 219l75 380h76l78 -390q30 -144 41 -209h2q14 81 41 209l81 390h75l-165 -743h-71l-121 596h-2l-122 -596h-71z" />
    <glyph glyph-name="wdieresis" unicode="&#x1e85;" horiz-adv-x="638" 
d="M200 583v90h81v-90h-81zM359 583v90h80v-90h-80zM154 -2l-135 530h78l65 -265q13 -54 33 -147h2q12 68 32 150l58 262h71l59 -260q23 -94 33 -153h2q11 55 34 153l62 260h71l-134 -530h-71l-93 403h-2l-95 -403h-70z" />
    <glyph glyph-name="Ygrave" unicode="&#x1ef2;" horiz-adv-x="526" 
d="M249 789l-120 156h94l80 -156h-54zM221 0v305l-205 435h86l162 -358h2l162 358h81l-204 -433v-307h-84z" />
    <glyph glyph-name="ygrave" unicode="&#x1ef3;" horiz-adv-x="455" 
d="M202 584l-120 156h94l80 -156h-54zM88 -201q-46 0 -82 12l16 64q35 -8 64 -8q33 0 50.5 18.5t31.5 63.5l15 46l-165 533h83l80 -276q22 -75 43 -159h2q18 71 45 165l78 270h77l-182 -586q-25 -77 -58 -110t-98 -33z" />
    <glyph glyph-name="space.en" unicode="&#x2002;" horiz-adv-x="500" 
 />
    <glyph glyph-name="space.em" unicode="&#x2003;" horiz-adv-x="1000" 
 />
    <glyph glyph-name="space.tab_en" unicode="&#x2007;" 
 />
    <glyph glyph-name="space.thin" unicode="&#x2009;" horiz-adv-x="200" 
 />
    <glyph glyph-name="endash.tab" unicode="&#x2012;" 
d="M56 277v72h453v-72h-453z" />
    <glyph glyph-name="endash" unicode="&#x2013;" horiz-adv-x="557" 
d="M52 277v72h453v-72h-453z" />
    <glyph glyph-name="emdash" unicode="&#x2014;" horiz-adv-x="762" 
d="M51 277v72h659v-72h-659z" />
    <glyph glyph-name="emdash.salt_em" unicode="&#x2015;" horiz-adv-x="1000" 
d="M0 279v66h1000v-66h-1000z" />
    <glyph glyph-name="quoteleft" unicode="&#x2018;" horiz-adv-x="238" 
d="M73 532v96l47 112h38l-27 -105h33v-103h-91z" />
    <glyph glyph-name="quoteright" unicode="&#x2019;" horiz-adv-x="238" 
d="M80 532l27 104h-35v104h92v-96l-46 -112h-38z" />
    <glyph glyph-name="quotesinglbase" unicode="&#x201a;" horiz-adv-x="238" 
d="M80 -105l27 105h-35v104h92v-96l-46 -113h-38z" />
    <glyph glyph-name="quotedblleft" unicode="&#x201c;" horiz-adv-x="411" 
d="M73 532v96l47 112h38l-27 -105h33v-103h-91zM247 532v96l46 112h37l-26 -105h34v-103h-91z" />
    <glyph glyph-name="quotedblright" unicode="&#x201d;" horiz-adv-x="411" 
d="M80 532l27 104h-35v104h92v-96l-46 -112h-38zM254 532l27 104h-34v104h90v-96l-46 -112h-37z" />
    <glyph glyph-name="quotedblbase" unicode="&#x201e;" horiz-adv-x="411" 
d="M80 -105l27 105h-35v104h92v-96l-46 -113h-38zM254 -105l27 105h-34v104h90v-96l-46 -113h-37z" />
    <glyph glyph-name="dagger" unicode="&#x2020;" horiz-adv-x="484" 
d="M198 -200l14 616l-173 -10v77l173 -12l-14 269h87l-13 -269l173 12v-77l-173 10l13 -616h-87z" />
    <glyph glyph-name="daggerdbl" unicode="&#x2021;" horiz-adv-x="483" 
d="M198 -200l14 234l-166 -11v76l166 -11l-10 184l10 181l-166 -11v76l166 -11l-14 233h87l-14 -233l166 11v-76l-166 11l11 -181l-11 -184l166 11v-76l-166 11l14 -234h-87z" />
    <glyph glyph-name="bullet" unicode="&#x2022;" horiz-adv-x="463" 
d="M231 232q-51 0 -84.5 33.5t-33.5 84.5q0 52 33.5 85.5t84.5 33.5q52 0 85.5 -33.5t33.5 -85.5q0 -51 -33.5 -84.5t-85.5 -33.5z" />
    <glyph glyph-name="ellipsis" unicode="&#x2026;" horiz-adv-x="711" 
d="M71 0v104h93v-104h-93zM308 0v104h93v-104h-93zM545 0v104h93v-104h-93z" />
    <glyph glyph-name="perthousand" unicode="&#x2030;" horiz-adv-x="1170" 
d="M191 299q-70 0 -108 58.5t-38 168.5t38 168t108 58t107 -58t37 -168q0 -111 -37 -169t-107 -58zM194 0l376 740h70l-376 -740h-70zM191 362q39 0 57 39.5t18 124.5q0 163 -75 163q-39 0 -57.5 -39.5t-18.5 -123.5q0 -164 76 -164zM646 -10q-70 0 -108 58.5t-38 168.5
t38 168t108 58q69 0 106 -58t37 -168q0 -111 -37 -169t-106 -58zM981 -10q-70 0 -108 58.5t-38 168.5t38 168t108 58q69 0 106 -58t37 -168q0 -111 -37 -169t-106 -58zM646 52q39 0 57 40t18 125q0 162 -75 162q-40 0 -58.5 -39t-18.5 -123q0 -165 77 -165zM981 52
q39 0 57 40t18 125q0 162 -75 162q-40 0 -58.5 -39t-18.5 -123q0 -165 77 -165z" />
    <glyph glyph-name="minute" unicode="&#x2032;" horiz-adv-x="210" 
d="M58 487l20 199l9 54h78l-58 -253h-49z" />
    <glyph glyph-name="second" unicode="&#x2033;" horiz-adv-x="367" 
d="M58 487l20 199l9 54h77l-58 -253h-48zM217 487l20 199l10 54h76l-58 -253h-48z" />
    <glyph glyph-name="guilsinglleft" unicode="&#x2039;" horiz-adv-x="276" 
d="M154 0l-124 264l124 263h79l-121 -263l121 -264h-79z" />
    <glyph glyph-name="guilsinglright" unicode="&#x203a;" horiz-adv-x="276" 
d="M42 0l122 264l-122 263h80l124 -263l-124 -264h-80z" />
    <glyph glyph-name="fraction" unicode="&#x2044;" horiz-adv-x="439" 
d="M-4 0l372 740h74l-372 -740h-74z" />
    <glyph glyph-name="zero.sups" unicode="&#x2070;" horiz-adv-x="409" 
d="M205 295q-72 0 -111 58t-39 168q0 111 39 169.5t111 58.5t110.5 -58.5t38.5 -169.5q0 -110 -38.5 -168t-110.5 -58zM205 353q43 0 62.5 39.5t19.5 128.5q0 168 -82 168q-42 0 -62 -39.5t-20 -128.5q0 -88 20.5 -128t61.5 -40z" />
    <glyph glyph-name="four.sups" unicode="&#x2074;" horiz-adv-x="359" 
d="M200 303v102h-169v45l165 290h68v-277h59v-58h-59v-102h-64zM98 461h104v188z" />
    <glyph glyph-name="five.sups" unicode="&#x2075;" horiz-adv-x="364" 
d="M180 295q-53 0 -83.5 22t-52.5 66l52 27q16 -31 33.5 -44.5t48.5 -13.5q70 0 70 96q0 90 -63 90q-42 0 -65 -36l-53 8l14 230h211l-4 -59h-155l-7 -116q29 26 74 26q114 0 114 -143q0 -76 -35.5 -114.5t-98.5 -38.5z" />
    <glyph glyph-name="six.sups" unicode="&#x2076;" horiz-adv-x="377" 
d="M194 295q-67 0 -103 55.5t-36 166.5q0 232 149 232q73 0 115 -64l-50 -33q-30 41 -67 41q-42 0 -61.5 -36.5t-21.5 -112.5q46 42 91 42q117 0 117 -142q0 -65 -35.5 -107t-97.5 -42zM196 351q68 0 68 93q0 88 -65 88q-42 0 -79 -47q9 -134 76 -134z" />
    <glyph glyph-name="seven.sups" unicode="&#x2077;" horiz-adv-x="324" 
d="M67 303l154 378h-174v59h242v-56l-154 -381h-68z" />
    <glyph glyph-name="eight.sups" unicode="&#x2078;" horiz-adv-x="376" 
d="M189 295q-68 0 -105 32t-37 83q0 74 87 123q-35 21 -52 45t-17 62q0 46 32.5 77.5t91.5 31.5t91 -30.5t32 -78.5q0 -37 -17 -60.5t-53 -45.5q45 -24 66 -51t21 -72q0 -51 -37 -83.5t-103 -32.5zM192 560q31 17 44 34t13 42q0 60 -59 60q-31 0 -46 -17t-15 -42
q0 -26 14.5 -42.5t48.5 -34.5zM188 346q35 0 55.5 18.5t20.5 50.5q0 29 -19 48.5t-60 42.5q-39 -22 -56.5 -42t-17.5 -49q0 -30 21 -49.5t56 -19.5z" />
    <glyph glyph-name="nine.sups" unicode="&#x2079;" horiz-adv-x="377" 
d="M179 510q42 0 79 48q-9 134 -76 134q-68 0 -68 -94q0 -88 65 -88zM174 295q-74 0 -115 63l49 33q32 -41 68 -41q41 0 60.5 36.5t22.5 112.5q-48 -42 -92 -42q-117 0 -117 142q0 66 36 108t98 42q138 0 138 -223q0 -231 -148 -231z" />
    <glyph glyph-name="zero.sinf" unicode="&#x2080;" horiz-adv-x="409" 
d="M205 -207q-72 0 -111 58t-39 168q0 111 39 169.5t111 58.5t110.5 -58.5t38.5 -169.5q0 -110 -38.5 -168t-110.5 -58zM205 -149q43 0 62.5 39.5t19.5 128.5q0 168 -82 168q-42 0 -62 -39.5t-20 -128.5q0 -88 20.5 -128t61.5 -40z" />
    <glyph glyph-name="one.sinf" unicode="&#x2081;" horiz-adv-x="297" 
d="M53 -199v59h67v305q-28 -13 -66 -13v59q51 1 75 27h59v-378h60v-59h-195z" />
    <glyph glyph-name="two.sinf" unicode="&#x2082;" horiz-adv-x="341" 
d="M41 -195v20q0 49 20 87t48 62.5t56 46t48 48t20 58.5q0 64 -56 64q-46 0 -76 -75l-57 24q42 109 135 109q58 0 89 -31.5t31 -89.5q0 -37 -18 -67.5t-44.5 -53l-53 -43t-46.5 -46t-22 -53.5h184v-60h-258z" />
    <glyph glyph-name="three.sinf" unicode="&#x2083;" horiz-adv-x="351" 
d="M173 -201q-101 0 -142 106l54 25q17 -40 37.5 -56.5t49.5 -16.5q34 0 53 20t19 53q0 42 -23.5 62.5t-75.5 20.5h-21v47h30q82 0 82 71q0 27 -14.5 43.5t-44.5 16.5q-43 0 -84 -51l-46 33q53 77 135 77q58 0 88 -31.5t30 -80.5q0 -70 -61 -98q69 -30 69 -111
q0 -58 -37 -94t-98 -36z" />
    <glyph glyph-name="four.sinf" unicode="&#x2084;" horiz-adv-x="359" 
d="M200 -199v102h-169v45l165 290h68v-277h59v-58h-59v-102h-64zM98 -41h104v188z" />
    <glyph glyph-name="five.sinf" unicode="&#x2085;" horiz-adv-x="364" 
d="M180 -207q-53 0 -83.5 22t-52.5 66l52 27q16 -31 33.5 -44.5t48.5 -13.5q70 0 70 96q0 90 -63 90q-42 0 -65 -36l-53 8l14 230h211l-4 -59h-155l-7 -116q29 26 74 26q114 0 114 -143q0 -76 -35.5 -114.5t-98.5 -38.5z" />
    <glyph glyph-name="six.sinf" unicode="&#x2086;" horiz-adv-x="377" 
d="M194 -207q-67 0 -103 55.5t-36 166.5q0 232 149 232q73 0 115 -64l-50 -33q-30 41 -67 41q-42 0 -61.5 -36.5t-21.5 -112.5q46 42 91 42q117 0 117 -142q0 -65 -35.5 -107t-97.5 -42zM196 -151q68 0 68 93q0 88 -65 88q-42 0 -79 -47q9 -134 76 -134z" />
    <glyph glyph-name="seven.sinf" unicode="&#x2087;" horiz-adv-x="324" 
d="M67 -199l154 378h-174v59h242v-56l-154 -381h-68z" />
    <glyph glyph-name="eight.sinf" unicode="&#x2088;" horiz-adv-x="376" 
d="M189 -207q-68 0 -105 32t-37 83q0 74 87 123q-35 21 -52 45t-17 62q0 46 32.5 77.5t91.5 31.5t91 -30.5t32 -78.5q0 -37 -17 -60.5t-53 -45.5q45 -24 66 -51t21 -72q0 -51 -37 -83.5t-103 -32.5zM192 58q31 17 44 34t13 42q0 60 -59 60q-31 0 -46 -17t-15 -42
q0 -26 14.5 -42.5t48.5 -34.5zM188 -156q35 0 55.5 18.5t20.5 50.5q0 29 -19 48.5t-60 42.5q-39 -22 -56.5 -42t-17.5 -49q0 -30 21 -49.5t56 -19.5z" />
    <glyph glyph-name="nine.sinf" unicode="&#x2089;" horiz-adv-x="377" 
d="M179 8q42 0 79 48q-9 134 -76 134q-68 0 -68 -94q0 -88 65 -88zM174 -207q-74 0 -115 63l49 33q32 -41 68 -41q41 0 60.5 36.5t22.5 112.5q-48 -42 -92 -42q-117 0 -117 142q0 66 36 108t98 42q138 0 138 -223q0 -231 -148 -231z" />
    <glyph glyph-name="Euro" unicode="&#x20ac;" horiz-adv-x="604" 
d="M114 413h-99v64h104q16 141 76.5 209t154.5 68q89 0 141.5 -57.5t69.5 -154.5l-78 -14q-14 73 -44.5 112.5t-87.5 39.5q-128 0 -151 -203h176v-64h-181q-1 -13 -1 -39q0 -33 1 -48h181v-64h-176q24 -203 155 -203q110 0 140 160l76 -12q-17 -98 -72.5 -159.5
t-143.5 -61.5q-203 0 -236 276h-104v64h99q-1 15 -1 47q0 27 1 40z" />
    <glyph glyph-name="uni2117" unicode="&#x2117;" horiz-adv-x="712" 
d="M356 -14q-136 0 -226.5 111t-90.5 272q0 162 91 273.5t226 111.5t226 -111t91 -272t-91.5 -273t-225.5 -112zM356 30q115 0 192 98.5t77 240.5q0 143 -77 242t-192 99t-192 -98.5t-77 -240.5q0 -143 77 -242t192 -99zM246 155v421h124q131 0 131 -122q0 -126 -135 -126
h-60v-173h-60zM306 382h62q73 0 73 70q0 37 -18.5 53t-55.5 16h-61v-139z" />
    <glyph glyph-name="trademark" unicode="&#x2122;" horiz-adv-x="748" 
d="M130 311v374h-105v55h272v-55h-107v-374h-60zM350 311v429h74l98 -341l98 341h76v-429h-58v316l-92 -316h-50l-93 317v-317h-53z" />
    <glyph glyph-name="uni2126" unicode="&#x2126;" horiz-adv-x="630" 
d="M316 754q118 0 189 -100.5t71 -255.5q0 -106 -41 -191.5t-98 -136.5h134v-70h-210v66q133 125 133 326q0 129 -47 209.5t-132 80.5q-83 0 -131.5 -79t-48.5 -210q0 -201 134 -327v-66h-210v70h133q-56 49 -97 135.5t-41 192.5q0 156 72 256t190 100z" />
    <glyph glyph-name="estimated" unicode="&#x212e;" horiz-adv-x="697" 
d="M664 318h-490v-220q71 -71 174 -71q84 0 137.5 37t99.5 108l37 -23q-50 -78 -114 -119.5t-160 -41.5q-138 0 -224 96t-86 235q0 141 85.5 236t227.5 95t226.5 -95.5t86.5 -236.5zM525 358v182q-76 71 -175 71q-105 0 -176 -71v-182h351z" />
    <glyph glyph-name="uni2153" unicode="&#x2153;" horiz-adv-x="880" 
d="M208 0l372 740h74l-372 -740h-74zM33 298v59h67v305q-28 -13 -66 -13v59q51 1 75 27h59v-378h60v-59h-195zM722 -1q-101 0 -142 106l54 25q17 -40 37.5 -56.5t49.5 -16.5q34 0 53 20t19 53q0 42 -23.5 62.5t-75.5 20.5h-21v47h30q82 0 82 71q0 27 -14.5 43.5t-44.5 16.5
q-43 0 -84 -51l-46 33q53 77 135 77q58 0 88 -31.5t30 -80.5q0 -70 -61 -98q69 -30 69 -111q0 -58 -37 -94t-98 -36z" />
    <glyph glyph-name="uni2154" unicode="&#x2154;" horiz-adv-x="910" 
d="M21 302v20q0 49 20 87t48 62.5t56 46t48 48t20 58.5q0 64 -56 64q-46 0 -76 -75l-57 24q42 109 135 109q58 0 89 -31.5t31 -89.5q0 -37 -18 -67.5t-44.5 -53l-53 -43t-46.5 -46t-22 -53.5h184v-60h-258zM238 0l372 740h74l-372 -740h-74zM752 -1q-101 0 -142 106l54 25
q17 -40 37.5 -56.5t49.5 -16.5q34 0 53 20t19 53q0 42 -23.5 62.5t-75.5 20.5h-21v47h30q82 0 82 71q0 27 -14.5 43.5t-44.5 16.5q-43 0 -84 -51l-46 33q53 77 135 77q58 0 88 -31.5t30 -80.5q0 -70 -61 -98q69 -30 69 -111q0 -58 -37 -94t-98 -36z" />
    <glyph glyph-name="uni2155" unicode="&#x2155;" horiz-adv-x="896" 
d="M208 0l372 740h74l-372 -740h-74zM33 298v59h67v305q-28 -13 -66 -13v59q51 1 75 27h59v-378h60v-59h-195zM732 -7q-53 0 -83.5 22t-52.5 66l52 27q16 -31 33.5 -44.5t48.5 -13.5q70 0 70 96q0 90 -63 90q-42 0 -65 -36l-53 8l14 230h211l-4 -59h-155l-7 -116
q29 26 74 26q114 0 114 -143q0 -76 -35.5 -114.5t-98.5 -38.5z" />
    <glyph glyph-name="uni2156" unicode="&#x2156;" horiz-adv-x="926" 
d="M21 302v20q0 49 20 87t48 62.5t56 46t48 48t20 58.5q0 64 -56 64q-46 0 -76 -75l-57 24q42 109 135 109q58 0 89 -31.5t31 -89.5q0 -37 -18 -67.5t-44.5 -53l-53 -43t-46.5 -46t-22 -53.5h184v-60h-258zM238 0l372 740h74l-372 -740h-74zM762 -7q-53 0 -83.5 22t-52.5 66
l52 27q16 -31 33.5 -44.5t48.5 -13.5q70 0 70 96q0 90 -63 90q-42 0 -65 -36l-53 8l14 230h211l-4 -59h-155l-7 -116q29 26 74 26q114 0 114 -143q0 -76 -35.5 -114.5t-98.5 -38.5z" />
    <glyph glyph-name="uni2157" unicode="&#x2157;" horiz-adv-x="906" 
d="M218 0l372 740h74l-372 -740h-74zM153 296q-101 0 -142 106l54 25q17 -40 37.5 -56.5t49.5 -16.5q34 0 53 20t19 53q0 42 -23.5 62.5t-75.5 20.5h-21v47h30q82 0 82 71q0 27 -14.5 43.5t-44.5 16.5q-43 0 -84 -51l-46 33q53 77 135 77q58 0 88 -31.5t30 -80.5
q0 -70 -61 -98q69 -30 69 -111q0 -58 -37 -94t-98 -36zM742 -7q-53 0 -83.5 22t-52.5 66l52 27q16 -31 33.5 -44.5t48.5 -13.5q70 0 70 96q0 90 -63 90q-42 0 -65 -36l-53 8l14 230h211l-4 -59h-155l-7 -116q29 26 74 26q114 0 114 -143q0 -76 -35.5 -114.5t-98.5 -38.5z
" />
    <glyph glyph-name="uni2158" unicode="&#x2158;" horiz-adv-x="931" 
d="M243 0l372 740h74l-372 -740h-74zM180 298v102h-169v45l165 290h68v-277h59v-58h-59v-102h-64zM78 456h104v188zM767 -7q-53 0 -83.5 22t-52.5 66l52 27q16 -31 33.5 -44.5t48.5 -13.5q70 0 70 96q0 90 -63 90q-42 0 -65 -36l-53 8l14 230h211l-4 -59h-155l-7 -116
q29 26 74 26q114 0 114 -143q0 -76 -35.5 -114.5t-98.5 -38.5z" />
    <glyph glyph-name="uni2159" unicode="&#x2159;" horiz-adv-x="886" 
d="M208 0l372 740h74l-372 -740h-74zM33 298v59h67v305q-28 -13 -66 -13v59q51 1 75 27h59v-378h60v-59h-195zM723 -7q-67 0 -103 55.5t-36 166.5q0 232 149 232q73 0 115 -64l-50 -33q-30 41 -67 41q-42 0 -61.5 -36.5t-21.5 -112.5q46 42 91 42q117 0 117 -142
q0 -65 -35.5 -107t-97.5 -42zM725 49q68 0 68 93q0 88 -65 88q-42 0 -79 -47q9 -134 76 -134z" />
    <glyph glyph-name="uni215A" unicode="&#x215a;" horiz-adv-x="913" 
d="M235 0l372 740h74l-372 -740h-74zM160 290q-53 0 -83.5 22t-52.5 66l52 27q16 -31 33.5 -44.5t48.5 -13.5q70 0 70 96q0 90 -63 90q-42 0 -65 -36l-53 8l14 230h211l-4 -59h-155l-7 -116q29 26 74 26q114 0 114 -143q0 -76 -35.5 -114.5t-98.5 -38.5zM750 -7
q-67 0 -103 55.5t-36 166.5q0 232 149 232q73 0 115 -64l-50 -33q-30 41 -67 41q-42 0 -61.5 -36.5t-21.5 -112.5q46 42 91 42q117 0 117 -142q0 -65 -35.5 -107t-97.5 -42zM752 49q68 0 68 93q0 88 -65 88q-42 0 -79 -47q9 -134 76 -134z" />
    <glyph glyph-name="uni215B" unicode="&#x215b;" horiz-adv-x="902" 
d="M208 0l372 740h74l-372 -740h-74zM33 298v59h67v305q-28 -13 -66 -13v59q51 1 75 27h59v-378h60v-59h-195zM735 -7q-68 0 -105 32t-37 83q0 74 87 123q-35 21 -52 45t-17 62q0 46 32.5 77.5t91.5 31.5t91 -30.5t32 -78.5q0 -37 -17 -60.5t-53 -45.5q45 -24 66 -51t21 -72
q0 -51 -37 -83.5t-103 -32.5zM738 258q31 17 44 34t13 42q0 60 -59 60q-31 0 -46 -17t-15 -42q0 -26 14.5 -42.5t48.5 -34.5zM734 44q35 0 55.5 18.5t20.5 50.5q0 29 -19 48.5t-60 42.5q-39 -22 -56.5 -42t-17.5 -49q0 -30 21 -49.5t56 -19.5z" />
    <glyph glyph-name="uni215C" unicode="&#x215c;" horiz-adv-x="912" 
d="M218 0l372 740h74l-372 -740h-74zM745 -7q-68 0 -105 32t-37 83q0 74 87 123q-35 21 -52 45t-17 62q0 46 32.5 77.5t91.5 31.5t91 -30.5t32 -78.5q0 -37 -17 -60.5t-53 -45.5q45 -24 66 -51t21 -72q0 -51 -37 -83.5t-103 -32.5zM153 296q-101 0 -142 106l54 25
q17 -40 37.5 -56.5t49.5 -16.5q34 0 53 20t19 53q0 42 -23.5 62.5t-75.5 20.5h-21v47h30q82 0 82 71q0 27 -14.5 43.5t-44.5 16.5q-43 0 -84 -51l-46 33q53 77 135 77q58 0 88 -31.5t30 -80.5q0 -70 -61 -98q69 -30 69 -111q0 -58 -37 -94t-98 -36zM748 258q31 17 44 34
t13 42q0 60 -59 60q-31 0 -46 -17t-15 -42q0 -26 14.5 -42.5t48.5 -34.5zM744 44q35 0 55.5 18.5t20.5 50.5q0 29 -19 48.5t-60 42.5q-39 -22 -56.5 -42t-17.5 -49q0 -30 21 -49.5t56 -19.5z" />
    <glyph glyph-name="uni215D" unicode="&#x215d;" horiz-adv-x="929" 
d="M235 0l372 740h74l-372 -740h-74zM762 -7q-68 0 -105 32t-37 83q0 74 87 123q-35 21 -52 45t-17 62q0 46 32.5 77.5t91.5 31.5t91 -30.5t32 -78.5q0 -37 -17 -60.5t-53 -45.5q45 -24 66 -51t21 -72q0 -51 -37 -83.5t-103 -32.5zM160 290q-53 0 -83.5 22t-52.5 66l52 27
q16 -31 33.5 -44.5t48.5 -13.5q70 0 70 96q0 90 -63 90q-42 0 -65 -36l-53 8l14 230h211l-4 -59h-155l-7 -116q29 26 74 26q114 0 114 -143q0 -76 -35.5 -114.5t-98.5 -38.5zM765 258q31 17 44 34t13 42q0 60 -59 60q-31 0 -46 -17t-15 -42q0 -26 14.5 -42.5t48.5 -34.5z
M761 44q35 0 55.5 18.5t20.5 50.5q0 29 -19 48.5t-60 42.5q-39 -22 -56.5 -42t-17.5 -49q0 -30 21 -49.5t56 -19.5z" />
    <glyph glyph-name="uni215E" unicode="&#x215e;" horiz-adv-x="835" 
d="M141 0l372 740h74l-372 -740h-74zM47 298l154 378h-174v59h242v-56l-154 -381h-68zM668 -7q-68 0 -105 32t-37 83q0 74 87 123q-35 21 -52 45t-17 62q0 46 32.5 77.5t91.5 31.5t91 -30.5t32 -78.5q0 -37 -17 -60.5t-53 -45.5q45 -24 66 -51t21 -72q0 -51 -37 -83.5
t-103 -32.5zM671 258q31 17 44 34t13 42q0 60 -59 60q-31 0 -46 -17t-15 -42q0 -26 14.5 -42.5t48.5 -34.5zM667 44q35 0 55.5 18.5t20.5 50.5q0 29 -19 48.5t-60 42.5q-39 -22 -56.5 -42t-17.5 -49q0 -30 21 -49.5t56 -19.5z" />
    <glyph glyph-name="partialdiff" unicode="&#x2202;" horiz-adv-x="484" 
d="M207 -11q-86 0 -134 57.5t-48 155.5q0 143 67.5 230.5t159.5 87.5q42 0 78 -20t49 -57q-5 78 -41 148t-89 110l51 47q149 -116 149 -354q0 -203 -69.5 -304t-172.5 -101zM210 53q61 0 107 73.5t46 183.5q0 67 -27 108t-80 41q-62 0 -107 -76t-45 -184q0 -66 26 -106
t80 -40z" />
    <glyph glyph-name="uni2206" unicode="&#x2206;" horiz-adv-x="563" 
d="M27 0l217 743h76l216 -743h-509zM121 67h317l-95 334q-46 161 -63 228h-2q-16 -69 -62 -227z" />
    <glyph glyph-name="product" unicode="&#x220f;" horiz-adv-x="615" 
d="M77 -200v940h461v-940h-82v868h-297v-868h-82z" />
    <glyph glyph-name="summation" unicode="&#x2211;" horiz-adv-x="485" 
d="M313 285l-184 -415h322v-70h-418v62l191 423l-177 394v61h398v-72h-304z" />
    <glyph glyph-name="minus" unicode="&#x2212;" horiz-adv-x="535" 
d="M49 295v69h437v-69h-437z" />
    <glyph glyph-name="uni2215" unicode="&#x2215;" horiz-adv-x="439" 
d="M-4 0l372 740h74l-372 -740h-74z" />
    <glyph glyph-name="uni2219" unicode="&#x2219;" horiz-adv-x="266" 
d="M82 257v105h102v-105h-102z" />
    <glyph glyph-name="radical" unicode="&#x221a;" horiz-adv-x="548" 
d="M308 -3h-83l-140 463h-71v67h130l86 -301q37 -137 38 -142h2l38 143l149 513h73z" />
    <glyph glyph-name="infinity" unicode="&#x221e;" horiz-adv-x="666" 
d="M182 183q-68 0 -107 45t-39 131q0 87 39 132.5t107 45.5q91 0 151 -111q62 111 151 111q69 0 107.5 -45.5t38.5 -132.5t-38 -131.5t-108 -44.5q-89 0 -151 113q-60 -113 -151 -113zM480 249q40 0 61 28.5t21 81.5q0 54 -21 83t-61 29q-37 0 -62.5 -28.5t-52.5 -81.5
q27 -54 52.5 -83t62.5 -29zM187 249q37 0 63 28.5t52 81.5q-27 54 -52.5 83t-62.5 29q-40 0 -61 -29t-21 -83q0 -53 21 -81.5t61 -28.5z" />
    <glyph glyph-name="integral" unicode="&#x222b;" horiz-adv-x="296" 
d="M98 609q0 132 143 132q5 0 22 -1h17v-65q-2 1 -30 1q-73 0 -73 -67v-692q0 -61 -25 -89t-84 -28q-32 0 -40 2v62q15 -3 27 -3q43 0 43 57v691z" />
    <glyph glyph-name="approxequal" unicode="&#x2248;" 
d="M397 356q-37 1 -121 36.5t-104 36.5q-42 2 -48 -46l-55 7q5 56 33 84t72 26q36 -2 119 -37t104 -36q43 -3 48 46l56 -6q-5 -57 -33 -85t-71 -26zM391 163q-37 1 -121 36.5t-103 36.5q-43 2 -49 -47l-55 8q6 56 34 83.5t71 25.5q36 -1 119.5 -36t103.5 -36q43 -2 48 45
l56 -6q-5 -56 -32.5 -84t-71.5 -26z" />
    <glyph glyph-name="notequal" unicode="&#x2260;" 
d="M121 -1l73 187h-131v65h155l61 149h-216v66h241l76 189h71l-75 -189h125v-66h-149l-63 -149h212v-65h-236l-72 -187h-72z" />
    <glyph glyph-name="lessequal" unicode="&#x2264;" horiz-adv-x="572" 
d="M501 160l-438 180v56l438 180v-74l-343 -134l343 -133v-75zM58 60v65h451v-65h-451z" />
    <glyph glyph-name="greaterequal" unicode="&#x2265;" horiz-adv-x="571" 
d="M76 160v75l344 133l-344 134v74l439 -180v-56zM64 60v65h451v-65h-451z" />
    <glyph glyph-name="lozenge" unicode="&#x25ca;" horiz-adv-x="553" 
d="M242 0l-196 370l196 370h67l198 -370l-197 -370h-68zM276 90l150 280l-150 279l-149 -279z" />
    <glyph glyph-name="uni2713" unicode="&#x2713;" horiz-adv-x="501" 
d="M177 -2l-160 530h81l85 -300q22 -77 38 -142h2l38 142l147 512h76l-223 -742h-84z" />
    <glyph glyph-name="uniE000" unicode="&#xe000;" horiz-adv-x="1179" 
d="M208 0l372 740h74l-372 -740h-74zM33 298v59h67v305q-28 -13 -66 -13v59q51 1 75 27h59v-378h60v-59h-195zM618 1v59h67v305q-28 -13 -66 -13v59q51 1 75 27h59v-378h60v-59h-195zM1016 -7q-67 0 -103 55.5t-36 166.5q0 232 149 232q73 0 115 -64l-50 -33q-30 41 -67 41
q-42 0 -61.5 -36.5t-21.5 -112.5q46 42 91 42q117 0 117 -142q0 -65 -35.5 -107t-97.5 -42zM1018 49q68 0 68 93q0 88 -65 88q-42 0 -79 -47q9 -134 76 -134z" />
    <glyph glyph-name="uniE001" unicode="&#xe001;" horiz-adv-x="1189" 
d="M218 0l372 740h74l-372 -740h-74zM628 1v59h67v305q-28 -13 -66 -13v59q51 1 75 27h59v-378h60v-59h-195zM153 296q-101 0 -142 106l54 25q17 -40 37.5 -56.5t49.5 -16.5q34 0 53 20t19 53q0 42 -23.5 62.5t-75.5 20.5h-21v47h30q82 0 82 71q0 27 -14.5 43.5t-44.5 16.5
q-43 0 -84 -51l-46 33q53 77 135 77q58 0 88 -31.5t30 -80.5q0 -70 -61 -98q69 -30 69 -111q0 -58 -37 -94t-98 -36zM1026 -7q-67 0 -103 55.5t-36 166.5q0 232 149 232q73 0 115 -64l-50 -33q-30 41 -67 41q-42 0 -61.5 -36.5t-21.5 -112.5q46 42 91 42q117 0 117 -142
q0 -65 -35.5 -107t-97.5 -42zM1028 49q68 0 68 93q0 88 -65 88q-42 0 -79 -47q9 -134 76 -134z" />
    <glyph glyph-name="uniE002" unicode="&#xe002;" horiz-adv-x="1206" 
d="M235 0l372 740h74l-372 -740h-74zM645 1v59h67v305q-28 -13 -66 -13v59q51 1 75 27h59v-378h60v-59h-195zM160 290q-53 0 -83.5 22t-52.5 66l52 27q16 -31 33.5 -44.5t48.5 -13.5q70 0 70 96q0 90 -63 90q-42 0 -65 -36l-53 8l14 230h211l-4 -59h-155l-7 -116
q29 26 74 26q114 0 114 -143q0 -76 -35.5 -114.5t-98.5 -38.5zM1043 -7q-67 0 -103 55.5t-36 166.5q0 232 149 232q73 0 115 -64l-50 -33q-30 41 -67 41q-42 0 -61.5 -36.5t-21.5 -112.5q46 42 91 42q117 0 117 -142q0 -65 -35.5 -107t-97.5 -42zM1045 49q68 0 68 93
q0 88 -65 88q-42 0 -79 -47q9 -134 76 -134z" />
    <glyph glyph-name="uniE003" unicode="&#xe003;" horiz-adv-x="1112" 
d="M141 0l372 740h74l-372 -740h-74zM47 298l154 378h-174v59h242v-56l-154 -381h-68zM551 1v59h67v305q-28 -13 -66 -13v59q51 1 75 27h59v-378h60v-59h-195zM949 -7q-67 0 -103 55.5t-36 166.5q0 232 149 232q73 0 115 -64l-50 -33q-30 41 -67 41q-42 0 -61.5 -36.5
t-21.5 -112.5q46 42 91 42q117 0 117 -142q0 -65 -35.5 -107t-97.5 -42zM951 49q68 0 68 93q0 88 -65 88q-42 0 -79 -47q9 -134 76 -134z" />
    <glyph glyph-name="uniE004" unicode="&#xe004;" horiz-adv-x="1202" 
d="M231 0l372 740h74l-372 -740h-74zM159 505q42 0 79 48q-9 134 -76 134q-68 0 -68 -94q0 -88 65 -88zM641 1v59h67v305q-28 -13 -66 -13v59q51 1 75 27h59v-378h60v-59h-195zM1039 -7q-67 0 -103 55.5t-36 166.5q0 232 149 232q73 0 115 -64l-50 -33q-30 41 -67 41
q-42 0 -61.5 -36.5t-21.5 -112.5q46 42 91 42q117 0 117 -142q0 -65 -35.5 -107t-97.5 -42zM154 290q-74 0 -115 63l49 33q32 -41 68 -41q41 0 60.5 36.5t22.5 112.5q-48 -42 -92 -42q-117 0 -117 142q0 66 36 108t98 42q138 0 138 -223q0 -231 -148 -231zM1041 49
q68 0 68 93q0 88 -65 88q-42 0 -79 -47q9 -134 76 -134z" />
    <glyph glyph-name="uniE005" unicode="&#xe005;" horiz-adv-x="1436" 
d="M465 0l372 740h74l-372 -740h-74zM290 298v59h67v305q-28 -13 -66 -13v59q51 1 75 27h59v-378h60v-59h-195zM33 298v59h67v305q-28 -13 -66 -13v59q51 1 75 27h59v-378h60v-59h-195zM875 1v59h67v305q-28 -13 -66 -13v59q51 1 75 27h59v-378h60v-59h-195zM1273 -7
q-67 0 -103 55.5t-36 166.5q0 232 149 232q73 0 115 -64l-50 -33q-30 41 -67 41q-42 0 -61.5 -36.5t-21.5 -112.5q46 42 91 42q117 0 117 -142q0 -65 -35.5 -107t-97.5 -42zM1275 49q68 0 68 93q0 88 -65 88q-42 0 -79 -47q9 -134 76 -134z" />
    <glyph glyph-name="uniE006" unicode="&#xe006;" horiz-adv-x="1446" 
d="M475 0l372 740h74l-372 -740h-74zM33 298v59h67v305q-28 -13 -66 -13v59q51 1 75 27h59v-378h60v-59h-195zM885 1v59h67v305q-28 -13 -66 -13v59q51 1 75 27h59v-378h60v-59h-195zM410 296q-101 0 -142 106l54 25q17 -40 37.5 -56.5t49.5 -16.5q34 0 53 20t19 53
q0 42 -23.5 62.5t-75.5 20.5h-21v47h30q82 0 82 71q0 27 -14.5 43.5t-44.5 16.5q-43 0 -84 -51l-46 33q53 77 135 77q58 0 88 -31.5t30 -80.5q0 -70 -61 -98q69 -30 69 -111q0 -58 -37 -94t-98 -36zM1283 -7q-67 0 -103 55.5t-36 166.5q0 232 149 232q73 0 115 -64l-50 -33
q-30 41 -67 41q-42 0 -61.5 -36.5t-21.5 -112.5q46 42 91 42q117 0 117 -142q0 -65 -35.5 -107t-97.5 -42zM1285 49q68 0 68 93q0 88 -65 88q-42 0 -79 -47q9 -134 76 -134z" />
    <glyph glyph-name="uniE007" unicode="&#xe007;" horiz-adv-x="1463" 
d="M492 0l372 740h74l-372 -740h-74zM33 298v59h67v305q-28 -13 -66 -13v59q51 1 75 27h59v-378h60v-59h-195zM902 1v59h67v305q-28 -13 -66 -13v59q51 1 75 27h59v-378h60v-59h-195zM417 290q-53 0 -83.5 22t-52.5 66l52 27q16 -31 33.5 -44.5t48.5 -13.5q70 0 70 96
q0 90 -63 90q-42 0 -65 -36l-53 8l14 230h211l-4 -59h-155l-7 -116q29 26 74 26q114 0 114 -143q0 -76 -35.5 -114.5t-98.5 -38.5zM1300 -7q-67 0 -103 55.5t-36 166.5q0 232 149 232q73 0 115 -64l-50 -33q-30 41 -67 41q-42 0 -61.5 -36.5t-21.5 -112.5q46 42 91 42
q117 0 117 -142q0 -65 -35.5 -107t-97.5 -42zM1302 49q68 0 68 93q0 88 -65 88q-42 0 -79 -47q9 -134 76 -134z" />
    <glyph glyph-name="commaaccent" unicode="&#xf6c3;" horiz-adv-x="237" 
d="M82 -233l26 99h-31v94h84v-85l-43 -108h-36z" />
    <glyph glyph-name="apple" unicode="&#xf8ff;" horiz-adv-x="775" 
d="M361 396v134l-125 -7l-8 -127h133zM540 523l-125 7v-134h133zM236 218l125 -8v132h-133zM415 342v-132l125 8l8 124h-133zM192 565v25l166 -11l-13 161h86l-14 -161l167 11v-25h24l-11 -166l160 13v-86l-160 14l11 -167h-24v-22l-167 11l14 -162h-86l13 162l-166 -11v22
h-24l11 167l-162 -14v86l162 -13l-11 166h24z" />
    <glyph glyph-name="A.sc" horiz-adv-x="500" 
d="M170 227h156l-53 180q-2 8 -10 34.5l-14 46.5h-1q-15 -51 -24 -79zM27 0l185 593h79l183 -593h-81l-50 170h-189l-51 -170h-76z" />
    <glyph glyph-name="AE.sc" horiz-adv-x="725" 
d="M215 239h137v284h-1zM19 0l288 592h369v-70h-246v-177h180v-67h-180v-208h260v-70h-338v176h-164l-85 -176h-84z" />
    <glyph glyph-name="Aacute.sc" horiz-adv-x="500" 
d="M217 642l81 156h94l-121 -156h-54zM170 227h156l-53 180q-2 8 -10 34.5l-14 46.5h-1q-15 -51 -24 -79zM27 0l185 593h79l183 -593h-81l-50 170h-189l-51 -170h-76z" />
    <glyph glyph-name="Abreve.sc" horiz-adv-x="500" 
d="M251 637q-62 0 -95.5 43.5t-37.5 121.5h51q11 -105 82 -105t81 105h51q-4 -78 -37.5 -121.5t-94.5 -43.5zM170 227h156l-53 180q-2 8 -10 34.5l-14 46.5h-1q-15 -51 -24 -79zM27 0l185 593h79l183 -593h-81l-50 170h-189l-51 -170h-76z" />
    <glyph glyph-name="Acircumflex.sc" horiz-adv-x="500" 
d="M112 639l110 159h56l110 -159h-50l-88 89l-89 -89h-49zM170 227h156l-53 180q-2 8 -10 34.5l-14 46.5h-1q-15 -51 -24 -79zM27 0l185 593h79l183 -593h-81l-50 170h-189l-51 -170h-76z" />
    <glyph glyph-name="Adieresis.sc" horiz-adv-x="500" 
d="M131 641v90h81v-90h-81zM290 641v90h80v-90h-80zM170 227h156l-53 180q-2 8 -10 34.5l-14 46.5h-1q-15 -51 -24 -79zM27 0l185 593h79l183 -593h-81l-50 170h-189l-51 -170h-76z" />
    <glyph glyph-name="Agrave.sc" horiz-adv-x="500" 
d="M228 642l-120 156h94l80 -156h-54zM170 227h156l-53 180q-2 8 -10 34.5l-14 46.5h-1q-15 -51 -24 -79zM27 0l185 593h79l183 -593h-81l-50 170h-189l-51 -170h-76z" />
    <glyph glyph-name="Amacron.sc" horiz-adv-x="500" 
d="M134 641v66h232v-66h-232zM170 227h156l-53 180q-2 8 -10 34.5l-14 46.5h-1q-15 -51 -24 -79zM27 0l185 593h79l183 -593h-81l-50 170h-189l-51 -170h-76z" />
    <glyph glyph-name="Aogonek.sc" horiz-adv-x="500" 
d="M170 227h156l-53 180q-2 8 -10 34.5l-14 46.5h-1q-15 -51 -24 -79zM525 -152q-55 -37 -116 -37q-42 0 -64.5 20.5t-22.5 57.5q0 30 20.5 61t49.5 52l-49 168h-189l-51 -170h-76l185 593h79l183 -593h-36q-56 -45 -56 -98q0 -47 44 -47q32 0 78 24z" />
    <glyph glyph-name="Aring.sc" horiz-adv-x="500" 
d="M250 595q20 0 31 16.5t11 40.5q0 23 -11 39t-31 16t-31 -16t-11 -39q0 -24 11 -40.5t31 -16.5zM170 227h156l-53 180q-2 8 -10 34.5l-14 46.5h-1q-15 -51 -24 -79zM154 170l-51 -170h-76l177 569q-39 26 -39 83q0 42 23 68.5t62 26.5q38 0 61.5 -26.5t23.5 -68.5
q0 -55 -37 -81l176 -571h-81l-50 170h-189z" />
    <glyph glyph-name="Atilde.sc" horiz-adv-x="500" 
d="M316 637q-29 0 -71.5 28t-57.5 28q-35 0 -35 -54h-49q0 118 82 118q29 0 71.5 -28t58.5 -28q18 0 26 12t8 42h48q0 -118 -81 -118zM170 227h156l-53 180q-2 8 -10 34.5l-14 46.5h-1q-15 -51 -24 -79zM27 0l185 593h79l183 -593h-81l-50 170h-189l-51 -170h-76z" />
    <glyph glyph-name="B.sc" horiz-adv-x="505" 
d="M70 0v592h185q188 0 188 -149q0 -56 -28 -89.5t-74 -44.5v-2q55 -11 88 -46t33 -99q0 -29 -9.5 -56t-30 -51.5t-60 -39.5t-92.5 -15h-200zM147 335h107q113 0 113 96q0 49 -26.5 71.5t-88.5 22.5h-105v-190zM147 65h119q62 0 90.5 25t28.5 77q0 55 -32.5 80t-96.5 25
h-109v-207z" />
    <glyph glyph-name="C.sc" horiz-adv-x="513" 
d="M269 -10q-105 0 -164.5 78.5t-59.5 229.5q0 147 60.5 225.5t163.5 78.5q87 0 134.5 -48.5t63.5 -140.5l-75 -15q-14 69 -42.5 101.5t-81.5 32.5q-69 0 -106.5 -60.5t-37.5 -172.5q0 -117 37.5 -178t108.5 -61q54 0 85.5 34t45.5 107l74 -14q-39 -197 -206 -197z" />
    <glyph glyph-name="Cacute.sc" horiz-adv-x="513" 
d="M216 642l81 156h94l-121 -156h-54zM269 -10q-105 0 -164.5 78.5t-59.5 229.5q0 147 60.5 225.5t163.5 78.5q87 0 134.5 -48.5t63.5 -140.5l-75 -15q-14 69 -42.5 101.5t-81.5 32.5q-69 0 -106.5 -60.5t-37.5 -172.5q0 -117 37.5 -178t108.5 -61q54 0 85.5 34t45.5 107
l74 -14q-39 -197 -206 -197z" />
    <glyph glyph-name="Ccaron.sc" horiz-adv-x="513" 
d="M228 642l-110 159h51l88 -91l88 91h49l-110 -159h-56zM269 -10q-105 0 -164.5 78.5t-59.5 229.5q0 147 60.5 225.5t163.5 78.5q87 0 134.5 -48.5t63.5 -140.5l-75 -15q-14 69 -42.5 101.5t-81.5 32.5q-69 0 -106.5 -60.5t-37.5 -172.5q0 -117 37.5 -178t108.5 -61
q54 0 85.5 34t45.5 107l74 -14q-39 -197 -206 -197z" />
    <glyph glyph-name="Ccedilla.sc" horiz-adv-x="513" 
d="M259 -203q-65 0 -114 36l24 38q40 -29 89 -29q60 0 60 45q0 33 -35 33q-23 0 -44 -19l-31 14l21 78q-87 15 -135.5 92t-48.5 213q0 147 60.5 225.5t163.5 78.5q87 0 134.5 -48.5t63.5 -140.5l-75 -15q-14 69 -42.5 101.5t-81.5 32.5q-69 0 -106.5 -60.5t-37.5 -172.5
q0 -117 37.5 -178t108.5 -61q54 0 85.5 34t45.5 107l74 -14q-39 -197 -201 -197l-12 -44q20 15 48 15q27 0 46.5 -17.5t19.5 -51.5q0 -44 -34 -69.5t-83 -25.5z" />
    <glyph glyph-name="Ccircumflex.sc" horiz-adv-x="513" 
d="M124 638l110 159h56l110 -159h-50l-88 89l-89 -89h-49zM269 -10q-105 0 -164.5 78.5t-59.5 229.5q0 147 60.5 225.5t163.5 78.5q87 0 134.5 -48.5t63.5 -140.5l-75 -15q-14 69 -42.5 101.5t-81.5 32.5q-69 0 -106.5 -60.5t-37.5 -172.5q0 -117 37.5 -178t108.5 -61
q54 0 85.5 34t45.5 107l74 -14q-39 -197 -206 -197z" />
    <glyph glyph-name="Cdotaccent.sc" horiz-adv-x="513" 
d="M217 640v88h92v-88h-92zM269 -10q-105 0 -164.5 78.5t-59.5 229.5q0 147 60.5 225.5t163.5 78.5q87 0 134.5 -48.5t63.5 -140.5l-75 -15q-14 69 -42.5 101.5t-81.5 32.5q-69 0 -106.5 -60.5t-37.5 -172.5q0 -117 37.5 -178t108.5 -61q54 0 85.5 34t45.5 107l74 -14
q-39 -197 -206 -197z" />
    <glyph glyph-name="D.sc" horiz-adv-x="524" 
d="M69 0v592h143q133 0 200 -69t67 -226t-67.5 -227t-199.5 -70h-143zM150 71h70q94 0 137 53.5t43 172.5q0 118 -43 171t-138 53h-69v-450z" />
    <glyph glyph-name="Dcaron.sc" horiz-adv-x="524" 
d="M234 642l-110 159h51l88 -91l88 91h49l-110 -159h-56zM69 0v592h143q133 0 200 -69t67 -226t-67.5 -227t-199.5 -70h-143zM150 71h70q94 0 137 53.5t43 172.5q0 118 -43 171t-138 53h-69v-450z" />
    <glyph glyph-name="Dcroat.sc" horiz-adv-x="524" 
d="M70 0v283h-54v56h54v253h142q133 0 200 -69t67 -226t-67.5 -227t-199.5 -70h-142zM148 66h72q94 0 137.5 55.5t43.5 175.5q0 118 -44 173.5t-138 55.5h-71v-187h103v-56h-103v-217z" />
    <glyph glyph-name="E.sc" horiz-adv-x="445" 
d="M410 0h-341v592h327v-72h-246v-174h179v-69h-179v-205h260v-72z" />
    <glyph glyph-name="Eacute.sc" horiz-adv-x="445" 
d="M190 642l81 156h94l-121 -156h-54zM410 0h-341v592h327v-72h-246v-174h179v-69h-179v-205h260v-72z" />
    <glyph glyph-name="Ebreve.sc" horiz-adv-x="445" 
d="M228 638q-62 0 -95.5 43.5t-37.5 121.5h51q11 -105 82 -105t81 105h51q-4 -78 -37.5 -121.5t-94.5 -43.5zM410 0h-341v592h327v-72h-246v-174h179v-69h-179v-205h260v-72z" />
    <glyph glyph-name="Ecaron.sc" horiz-adv-x="445" 
d="M203 642l-110 159h51l88 -91l88 91h49l-110 -159h-56zM410 0h-341v592h327v-72h-246v-174h179v-69h-179v-205h260v-72z" />
    <glyph glyph-name="Ecircumflex.sc" horiz-adv-x="445" 
d="M93 639l110 159h56l110 -159h-50l-88 89l-89 -89h-49zM410 0h-341v592h327v-72h-246v-174h179v-69h-179v-205h260v-72z" />
    <glyph glyph-name="Edieresis.sc" horiz-adv-x="445" 
d="M112 641v90h81v-90h-81zM271 641v90h80v-90h-80zM410 0h-341v592h327v-72h-246v-174h179v-69h-179v-205h260v-72z" />
    <glyph glyph-name="Edotaccent.sc" horiz-adv-x="445" 
d="M185 641v88h92v-88h-92zM410 0h-341v592h327v-72h-246v-174h179v-69h-179v-205h260v-72z" />
    <glyph glyph-name="Egrave.sc" horiz-adv-x="445" 
d="M216 642l-120 156h94l80 -156h-54zM410 0h-341v592h327v-72h-246v-174h179v-69h-179v-205h260v-72z" />
    <glyph glyph-name="Emacron.sc" horiz-adv-x="445" 
d="M115 641v66h232v-66h-232zM410 0h-341v592h327v-72h-246v-174h179v-69h-179v-205h260v-72z" />
    <glyph glyph-name="Eng.sc" horiz-adv-x="544" 
d="M143 0h-74v592h93l189 -355l51 -97h1l1 452h73v-642q0 -151 -149 -151q-84 0 -145 46l37 56q48 -37 101 -37q83 0 83 90v49l-197 364q-1 2 -17.5 32l-30 55t-14.5 28h-2v-482z" />
    <glyph glyph-name="Eogonek.sc" horiz-adv-x="445" 
d="M449 -152q-55 -37 -116 -37q-42 0 -64.5 20.5t-22.5 57.5q0 58 68 111h-245v592h327v-72h-246v-174h179v-69h-179v-205h260v-72h-48q-56 -45 -56 -98q0 -47 44 -47q32 0 78 24z" />
    <glyph glyph-name="Eth.sc" horiz-adv-x="524" 
d="M70 0v283h-54v56h54v253h142q133 0 200 -69t67 -226t-67.5 -227t-199.5 -70h-142zM148 66h72q94 0 137.5 55.5t43.5 175.5q0 118 -44 173.5t-138 55.5h-71v-187h103v-56h-103v-217z" />
    <glyph glyph-name="Euro.sc" horiz-adv-x="500" 
d="M289 -12q-163 0 -193 216h-79v56h75q-1 11 -1 35q0 22 1 32h-75v56h79q14 113 66 166.5t128 53.5q137 0 171 -175l-69 -12q-14 64 -36.5 92t-66.5 28q-47 0 -78.5 -38.5t-40.5 -114.5h137v-56h-141v-31q0 -28 1 -36h140v-56h-136q20 -148 121 -148q44 0 69 30.5t39 95.5
l68 -10q-38 -184 -179 -184z" />
    <glyph glyph-name="Euro.tab" 
d="M327 -12q-198 0 -231 274h-94v63h89q-2 52 -1 88h-88v62h93q17 142 78.5 209.5t152.5 67.5q87 0 135.5 -53t69.5 -156l-74 -16q-18 82 -46 117.5t-85 35.5q-61 0 -101 -52t-52 -153h171v-62h-175q-1 -9 -1 -41.5t1 -46.5h175v-63h-170q23 -202 154 -202q59 0 90.5 39
t48.5 123l73 -15q-47 -219 -213 -219z" />
    <glyph glyph-name="F.sc" horiz-adv-x="419" 
d="M150 0h-81v592h323v-72h-242v-180h176v-69h-176v-271z" />
    <glyph glyph-name="G.sc" horiz-adv-x="535" 
d="M261 -8q-105 0 -160.5 80t-55.5 226q0 147 60.5 225.5t165.5 78.5q158 0 198 -191l-74 -14q-15 70 -45 102t-80 32q-67 0 -106.5 -58t-39.5 -173q0 -119 38.5 -180t110.5 -61q61 0 94.5 43t34.5 121h-116v65h188v-288h-63v82h-1q-40 -90 -149 -90z" />
    <glyph glyph-name="Gbreve.sc" horiz-adv-x="535" 
d="M268 637q-62 0 -95.5 43.5t-37.5 121.5h51q11 -105 82 -105t81 105h51q-4 -78 -37.5 -121.5t-94.5 -43.5zM261 -8q-105 0 -160.5 80t-55.5 226q0 147 60.5 225.5t165.5 78.5q158 0 198 -191l-74 -14q-15 70 -45 102t-80 32q-67 0 -106.5 -58t-39.5 -173q0 -119 38.5 -180
t110.5 -61q61 0 94.5 43t34.5 121h-116v65h188v-288h-63v82h-1q-40 -90 -149 -90z" />
    <glyph glyph-name="Gcircumflex.sc" horiz-adv-x="535" 
d="M127 640l110 159h56l110 -159h-50l-88 89l-89 -89h-49zM261 -8q-105 0 -160.5 80t-55.5 226q0 147 60.5 225.5t165.5 78.5q158 0 198 -191l-74 -14q-15 70 -45 102t-80 32q-67 0 -106.5 -58t-39.5 -173q0 -119 38.5 -180t110.5 -61q61 0 94.5 43t34.5 121h-116v65h188
v-288h-63v82h-1q-40 -90 -149 -90z" />
    <glyph glyph-name="Gcommaaccent.sc" horiz-adv-x="535" 
d="M261 -8q-105 0 -160.5 80t-55.5 226q0 147 60.5 225.5t165.5 78.5q158 0 198 -191l-74 -14q-15 70 -45 102t-80 32q-67 0 -106.5 -58t-39.5 -173q0 -119 38.5 -180t110.5 -61q61 0 94.5 43t34.5 121h-116v65h188v-288h-63v82h-1q-40 -90 -149 -90zM228 -233l26 99h-31v94
h84v-85l-43 -108h-36z" />
    <glyph glyph-name="Gdotaccent.sc" horiz-adv-x="535" 
d="M222 642v88h92v-88h-92zM261 -8q-105 0 -160.5 80t-55.5 226q0 147 60.5 225.5t165.5 78.5q158 0 198 -191l-74 -14q-15 70 -45 102t-80 32q-67 0 -106.5 -58t-39.5 -173q0 -119 38.5 -180t110.5 -61q61 0 94.5 43t34.5 121h-116v65h188v-288h-63v82h-1q-40 -90 -149 -90
z" />
    <glyph glyph-name="H.sc" horiz-adv-x="543" 
d="M150 0h-81v592h81v-244h244v244h80v-592h-80v277h-244v-277z" />
    <glyph glyph-name="Hbar.sc" horiz-adv-x="543" 
d="M150 339h244v90h-244v-90zM150 269v-269h-81v429h-53v56h53v107h81v-107h244v107h80v-107h54v-56h-54v-429h-80v269h-244z" />
    <glyph glyph-name="Hcircumflex.sc" horiz-adv-x="543" 
d="M133 640l110 159h56l110 -159h-50l-88 89l-89 -89h-49zM150 0h-81v592h81v-244h244v244h80v-592h-80v277h-244v-277z" />
    <glyph glyph-name="I.sc" horiz-adv-x="232" 
d="M156 0h-80v592h80v-592z" />
    <glyph glyph-name="IJ.sc" horiz-adv-x="590" 
d="M156 0h-80v592h80v-592zM224 38l38 60q49 -38 100 -38q83 0 83 91v441h80v-449q0 -152 -156 -152q-85 0 -145 47z" />
    <glyph glyph-name="Iacute.sc" horiz-adv-x="232" 
d="M84 642l81 156h94l-121 -156h-54zM156 0h-80v592h80v-592z" />
    <glyph glyph-name="Ibreve.sc" horiz-adv-x="232" 
d="M117 638q-62 0 -95.5 43.5t-37.5 121.5h51q11 -105 82 -105t81 105h51q-4 -78 -37.5 -121.5t-94.5 -43.5zM156 0h-80v592h80v-592z" />
    <glyph glyph-name="Icircumflex.sc" horiz-adv-x="232" 
d="M-22 639l110 159h56l110 -159h-50l-88 89l-89 -89h-49zM156 0h-80v592h80v-592z" />
    <glyph glyph-name="Idieresis.sc" horiz-adv-x="232" 
d="M-3 641v90h81v-90h-81zM156 641v90h80v-90h-80zM156 0h-80v592h80v-592z" />
    <glyph glyph-name="Idotaccent.sc" horiz-adv-x="232" 
d="M70 641v88h92v-88h-92zM156 0h-80v592h80v-592z" />
    <glyph glyph-name="Igrave.sc" horiz-adv-x="232" 
d="M95 642l-120 156h94l80 -156h-54zM156 0h-80v592h80v-592z" />
    <glyph glyph-name="Imacron.sc" horiz-adv-x="232" 
d="M0 641v66h232v-66h-232zM156 0h-80v592h80v-592z" />
    <glyph glyph-name="Iogonek.sc" horiz-adv-x="232" 
d="M210 -152q-56 -37 -116 -37q-42 0 -64.5 20.5t-22.5 57.5q0 58 69 112v591h80v-592h-33q-56 -45 -56 -98q0 -47 44 -47q32 0 78 24z" />
    <glyph glyph-name="Itilde.sc" horiz-adv-x="232" 
d="M182 638q-29 0 -71.5 28t-57.5 28q-35 0 -35 -54h-49q0 118 82 118q29 0 71.5 -28t58.5 -28q18 0 26 12t8 42h48q0 -118 -81 -118zM156 0h-80v592h80v-592z" />
    <glyph glyph-name="J.sc" horiz-adv-x="383" 
d="M17 38l38 60q49 -38 100 -38q83 0 83 91v441h80v-449q0 -152 -156 -152q-85 0 -145 47z" />
    <glyph glyph-name="Jcircumflex.sc" horiz-adv-x="383" 
d="M140 640l110 159h56l110 -159h-50l-88 89l-89 -89h-49zM17 38l38 60q49 -38 100 -38q83 0 83 91v441h80v-449q0 -152 -156 -152q-85 0 -145 47z" />
    <glyph glyph-name="K.sc" horiz-adv-x="495" 
d="M148 0h-79v592h79v-291l93 122l126 169h86l-177 -228l202 -364h-84l-168 303l-78 -96v-207z" />
    <glyph glyph-name="Kcommaaccent.sc" horiz-adv-x="495" 
d="M148 0h-79v592h79v-291l93 122l126 169h86l-177 -228l202 -364h-84l-168 303l-78 -96v-207zM210 -233l26 99h-31v94h84v-85l-43 -108h-36z" />
    <glyph glyph-name="L.sc" horiz-adv-x="418" 
d="M391 0h-322v592h81v-520h241v-72z" />
    <glyph glyph-name="Lacute.sc" horiz-adv-x="418" 
d="M83 642l81 156h94l-121 -156h-54zM391 0h-322v592h81v-520h241v-72z" />
    <glyph glyph-name="Lcaron.sc" horiz-adv-x="418" 
d="M391 0h-322v592h81v-520h241v-72zM229 406l25 96h-30v90h80v-81l-41 -105h-34z" />
    <glyph glyph-name="Lcommaaccent.sc" horiz-adv-x="418" 
d="M391 0h-322v592h81v-520h241v-72zM179 -233l26 99h-31v94h84v-85l-43 -108h-36z" />
    <glyph glyph-name="Ldot.sc" horiz-adv-x="433" 
d="M391 0h-322v592h81v-520h241v-72zM280 277v88h87v-88h-87z" />
    <glyph glyph-name="Lslash.sc" horiz-adv-x="418" 
d="M70 0v263l-55 -16v59l55 17v269h79v-244l100 30v-60l-100 -29v-222h242v-67h-321z" />
    <glyph glyph-name="M.sc" horiz-adv-x="638" 
d="M140 0h-71v592h100l151 -481h1l149 481h99v-592h-76v388q0 12 0.5 36t0.5 47h-1q-11 -48 -31 -114l-114 -357h-62l-114 357q-9 28 -19.5 66t-12.5 46h-1q1 -23 1 -85v-384z" />
    <glyph glyph-name="N.sc" horiz-adv-x="544" 
d="M143 0h-74v592h93l189 -352q16 -28 51 -99h1l1 451h73v-592h-74l-197 364l-61 115h-2v-479z" />
    <glyph glyph-name="Nacute.sc" horiz-adv-x="544" 
d="M231 642l81 156h94l-121 -156h-54zM143 0h-74v592h93l189 -352q16 -28 51 -99h1l1 451h73v-592h-74l-197 364l-61 115h-2v-479z" />
    <glyph glyph-name="Ncaron.sc" horiz-adv-x="544" 
d="M243 642l-110 159h51l88 -91l88 91h49l-110 -159h-56zM143 0h-74v592h93l189 -352q16 -28 51 -99h1l1 451h73v-592h-74l-197 364l-61 115h-2v-479z" />
    <glyph glyph-name="Ncommaaccent.sc" horiz-adv-x="544" 
d="M143 0h-74v592h93l189 -352q16 -28 51 -99h1l1 451h73v-592h-74l-197 364l-61 115h-2v-479zM235 -233l26 99h-31v94h84v-85l-43 -108h-36z" />
    <glyph glyph-name="Ntilde.sc" horiz-adv-x="544" 
d="M337 637q-29 0 -71.5 28t-57.5 28q-35 0 -35 -54h-49q0 118 82 118q29 0 71.5 -28t58.5 -28q18 0 26 12t8 42h48q0 -118 -81 -118zM143 0h-74v592h93l189 -352q16 -28 51 -99h1l1 451h73v-592h-74l-197 364l-61 115h-2v-479z" />
    <glyph glyph-name="O.sc" horiz-adv-x="547" 
d="M274 -10q-101 0 -165 80t-64 226q0 147 63.5 226.5t165.5 79.5t166 -79.5t64 -226.5q0 -146 -64.5 -226t-165.5 -80zM274 61q70 0 110.5 61t40.5 174t-40.5 174t-110.5 61t-110 -61t-40 -174t40 -174t110 -61z" />
    <glyph glyph-name="OE.sc" horiz-adv-x="790" 
d="M272 60q69 0 108 60.5t39 175.5q0 114 -39 175t-108 61q-70 0 -109.5 -61t-39.5 -175t39.5 -175t109.5 -61zM272 -10q-102 0 -164.5 80t-62.5 226q0 147 62.5 226.5t164.5 79.5q101 0 150 -88v78h320v-71h-245v-175h179v-69h-179v-206h258v-71h-333v79q-49 -89 -150 -89z
" />
    <glyph glyph-name="Oacute.sc" horiz-adv-x="547" 
d="M233 642l81 156h94l-121 -156h-54zM274 -10q-101 0 -165 80t-64 226q0 147 63.5 226.5t165.5 79.5t166 -79.5t64 -226.5q0 -146 -64.5 -226t-165.5 -80zM274 61q70 0 110.5 61t40.5 174t-40.5 174t-110.5 61t-110 -61t-40 -174t40 -174t110 -61z" />
    <glyph glyph-name="Obreve.sc" horiz-adv-x="547" 
d="M274 638q-62 0 -95.5 43.5t-37.5 121.5h51q11 -105 82 -105t81 105h51q-4 -78 -37.5 -121.5t-94.5 -43.5zM274 -10q-101 0 -165 80t-64 226q0 147 63.5 226.5t165.5 79.5t166 -79.5t64 -226.5q0 -146 -64.5 -226t-165.5 -80zM274 61q70 0 110.5 61t40.5 174t-40.5 174
t-110.5 61t-110 -61t-40 -174t40 -174t110 -61z" />
    <glyph glyph-name="Ocircumflex.sc" horiz-adv-x="547" 
d="M135 639l110 159h56l110 -159h-50l-88 89l-89 -89h-49zM274 -10q-101 0 -165 80t-64 226q0 147 63.5 226.5t165.5 79.5t166 -79.5t64 -226.5q0 -146 -64.5 -226t-165.5 -80zM274 61q70 0 110.5 61t40.5 174t-40.5 174t-110.5 61t-110 -61t-40 -174t40 -174t110 -61z" />
    <glyph glyph-name="Odieresis.sc" horiz-adv-x="547" 
d="M154 641v90h81v-90h-81zM313 641v90h80v-90h-80zM274 -10q-101 0 -165 80t-64 226q0 147 63.5 226.5t165.5 79.5t166 -79.5t64 -226.5q0 -146 -64.5 -226t-165.5 -80zM274 61q70 0 110.5 61t40.5 174t-40.5 174t-110.5 61t-110 -61t-40 -174t40 -174t110 -61z" />
    <glyph glyph-name="Ograve.sc" horiz-adv-x="547" 
d="M259 642l-120 156h94l80 -156h-54zM274 -10q-101 0 -165 80t-64 226q0 147 63.5 226.5t165.5 79.5t166 -79.5t64 -226.5q0 -146 -64.5 -226t-165.5 -80zM274 61q70 0 110.5 61t40.5 174t-40.5 174t-110.5 61t-110 -61t-40 -174t40 -174t110 -61z" />
    <glyph glyph-name="Ohungarumlaut.sc" horiz-adv-x="547" 
d="M158 642l81 156h96l-121 -156h-56zM304 642l83 156h95l-123 -156h-55zM274 -10q-101 0 -165 80t-64 226q0 147 63.5 226.5t165.5 79.5t166 -79.5t64 -226.5q0 -146 -64.5 -226t-165.5 -80zM274 61q70 0 110.5 61t40.5 174t-40.5 174t-110.5 61t-110 -61t-40 -174t40 -174
t110 -61z" />
    <glyph glyph-name="Omacron.sc" horiz-adv-x="547" 
d="M157 641v66h232v-66h-232zM274 -10q-101 0 -165 80t-64 226q0 147 63.5 226.5t165.5 79.5t166 -79.5t64 -226.5q0 -146 -64.5 -226t-165.5 -80zM274 61q70 0 110.5 61t40.5 174t-40.5 174t-110.5 61t-110 -61t-40 -174t40 -174t110 -61z" />
    <glyph glyph-name="Oslash.sc" horiz-adv-x="547" 
d="M124 296q0 -101 38 -159l198 364q-36 33 -86 33q-69 0 -109.5 -62t-40.5 -176zM274 57q69 0 109.5 63t40.5 176q0 99 -38 158l-198 -364q36 -33 86 -33zM274 -10q-67 0 -122 38l-36 -65q-2 1 -22 12t-24 13l43 76q-68 81 -68 232q0 147 63 226.5t166 79.5q70 0 122 -39
l38 66l45 -26l-44 -75q69 -80 69 -232q0 -146 -64.5 -226t-165.5 -80z" />
    <glyph glyph-name="Otilde.sc" horiz-adv-x="547" 
d="M339 637q-29 0 -71.5 28t-57.5 28q-35 0 -35 -54h-49q0 118 82 118q29 0 71.5 -28t58.5 -28q18 0 26 12t8 42h48q0 -118 -81 -118zM274 -10q-101 0 -165 80t-64 226q0 147 63.5 226.5t165.5 79.5t166 -79.5t64 -226.5q0 -146 -64.5 -226t-165.5 -80zM274 61
q70 0 110.5 61t40.5 174t-40.5 174t-110.5 61t-110 -61t-40 -174t40 -174t110 -61z" />
    <glyph glyph-name="P.sc" horiz-adv-x="481" 
d="M149 0h-80v592h179q200 0 200 -171q0 -94 -55 -138t-147 -44h-97v-239zM149 523v-218h102q121 0 121 111q0 57 -29.5 82t-92.5 25h-101z" />
    <glyph glyph-name="Q.sc" horiz-adv-x="548" 
d="M458 -86v-67h-54q-170 0 -172 148q-85 16 -136 92.5t-51 208.5q0 147 63.5 226.5t165.5 79.5t166 -79.5t64 -226.5q0 -135 -53 -212t-142 -90q2 -46 28 -63t83 -17h38zM274 60q71 0 110.5 60.5t39.5 175.5q0 114 -39.5 174t-110.5 60q-70 0 -110 -60t-40 -174
q0 -115 39.5 -175.5t110.5 -60.5z" />
    <glyph glyph-name="R.sc" horiz-adv-x="501" 
d="M148 523v-209h102q63 0 92 25t29 82q0 56 -29 79t-92 23h-102zM148 0h-79v592h182q198 0 198 -167q0 -134 -119 -163l126 -262h-84l-121 251h-103v-251z" />
    <glyph glyph-name="Racute.sc" horiz-adv-x="501" 
d="M210 642l81 156h94l-121 -156h-54zM148 523v-209h102q63 0 92 25t29 82q0 56 -29 79t-92 23h-102zM148 0h-79v592h182q198 0 198 -167q0 -134 -119 -163l126 -262h-84l-121 251h-103v-251z" />
    <glyph glyph-name="Rcaron.sc" horiz-adv-x="501" 
d="M222 642l-110 159h51l88 -91l88 91h49l-110 -159h-56zM148 523v-209h102q63 0 92 25t29 82q0 56 -29 79t-92 23h-102zM148 0h-79v592h182q198 0 198 -167q0 -134 -119 -163l126 -262h-84l-121 251h-103v-251z" />
    <glyph glyph-name="Rcommaaccent.sc" horiz-adv-x="501" 
d="M148 523v-209h102q63 0 92 25t29 82q0 56 -29 79t-92 23h-102zM148 0h-79v592h182q198 0 198 -167q0 -134 -119 -163l126 -262h-84l-121 251h-103v-251zM213 -233l26 99h-31v94h84v-85l-43 -108h-36z" />
    <glyph glyph-name="S.sc" horiz-adv-x="484" 
d="M240 -10q-149 0 -209 142l67 30q47 -104 142 -104q56 0 85 23t29 65q0 45 -27.5 69t-95.5 53q-44 19 -69.5 32.5t-52 35.5t-38 51.5t-11.5 69.5q0 64 48 105t123 41q138 0 190 -124l-66 -30q-38 87 -123 87q-44 0 -69.5 -20.5t-25.5 -57.5q0 -46 28.5 -70.5t93.5 -53.5
q89 -36 130.5 -74.5t41.5 -111.5q0 -69 -51.5 -113.5t-139.5 -44.5z" />
    <glyph glyph-name="Sacute.sc" horiz-adv-x="484" 
d="M202 642l81 156h94l-121 -156h-54zM240 -10q-149 0 -209 142l67 30q47 -104 142 -104q56 0 85 23t29 65q0 45 -27.5 69t-95.5 53q-44 19 -69.5 32.5t-52 35.5t-38 51.5t-11.5 69.5q0 64 48 105t123 41q138 0 190 -124l-66 -30q-38 87 -123 87q-44 0 -69.5 -20.5
t-25.5 -57.5q0 -46 28.5 -70.5t93.5 -53.5q89 -36 130.5 -74.5t41.5 -111.5q0 -69 -51.5 -113.5t-139.5 -44.5z" />
    <glyph glyph-name="Scaron.sc" horiz-adv-x="484" 
d="M214 642l-110 159h51l88 -91l88 91h49l-110 -159h-56zM240 -10q-149 0 -209 142l67 30q47 -104 142 -104q56 0 85 23t29 65q0 45 -27.5 69t-95.5 53q-44 19 -69.5 32.5t-52 35.5t-38 51.5t-11.5 69.5q0 64 48 105t123 41q138 0 190 -124l-66 -30q-38 87 -123 87
q-44 0 -69.5 -20.5t-25.5 -57.5q0 -46 28.5 -70.5t93.5 -53.5q89 -36 130.5 -74.5t41.5 -111.5q0 -69 -51.5 -113.5t-139.5 -44.5z" />
    <glyph glyph-name="Scedilla.sc" horiz-adv-x="484" 
d="M245 -203q-65 0 -114 36l24 38q40 -29 89 -29q60 0 60 45q0 33 -35 33q-23 0 -44 -19l-31 14l21 76q-129 11 -184 141l67 30q47 -104 142 -104q56 0 85 23t29 65q0 45 -27.5 69t-95.5 53q-44 19 -69.5 32.5t-52 35.5t-38 51.5t-11.5 69.5q0 64 48 105t123 41
q138 0 190 -124l-66 -30q-38 87 -123 87q-44 0 -69.5 -20.5t-25.5 -57.5q0 -46 28.5 -70.5t93.5 -53.5q89 -36 130.5 -74.5t41.5 -111.5q0 -65 -45.5 -108.5t-125.5 -48.5l-12 -45q20 15 48 15q27 0 46.5 -17.5t19.5 -51.5q0 -44 -34 -69.5t-83 -25.5z" />
    <glyph glyph-name="Scircumflex.sc" horiz-adv-x="484" 
d="M95 640l110 159h56l110 -159h-50l-88 89l-89 -89h-49zM240 -10q-149 0 -209 142l67 30q47 -104 142 -104q56 0 85 23t29 65q0 45 -27.5 69t-95.5 53q-44 19 -69.5 32.5t-52 35.5t-38 51.5t-11.5 69.5q0 64 48 105t123 41q138 0 190 -124l-66 -30q-38 87 -123 87
q-44 0 -69.5 -20.5t-25.5 -57.5q0 -46 28.5 -70.5t93.5 -53.5q89 -36 130.5 -74.5t41.5 -111.5q0 -69 -51.5 -113.5t-139.5 -44.5z" />
    <glyph glyph-name="Scommaaccent.sc" horiz-adv-x="484" 
d="M240 -10q-149 0 -209 142l67 30q47 -104 142 -104q56 0 85 23t29 65q0 45 -27.5 69t-95.5 53q-44 19 -69.5 32.5t-52 35.5t-38 51.5t-11.5 69.5q0 64 48 105t123 41q138 0 190 -124l-66 -30q-38 87 -123 87q-44 0 -69.5 -20.5t-25.5 -57.5q0 -46 28.5 -70.5t93.5 -53.5
q89 -36 130.5 -74.5t41.5 -111.5q0 -69 -51.5 -113.5t-139.5 -44.5zM205 -233l26 99h-31v94h84v-85l-43 -108h-36z" />
    <glyph glyph-name="T.sc" horiz-adv-x="453" 
d="M266 0h-81v520h-159v72h401v-72h-161v-520z" />
    <glyph glyph-name="Tbar.sc" horiz-adv-x="453" 
d="M427 251h-161v-251h-81v251h-159v56h159v213h-159v72h401v-72h-161v-213h161v-56z" />
    <glyph glyph-name="Tcaron.sc" horiz-adv-x="453" 
d="M198 642l-110 159h51l88 -91l88 91h49l-110 -159h-56zM266 0h-81v520h-159v72h401v-72h-161v-520z" />
    <glyph glyph-name="Tcommaaccent.sc" horiz-adv-x="453" 
d="M266 0h-81v520h-159v72h401v-72h-161v-520zM189 -233l26 99h-31v94h84v-85l-43 -108h-36z" />
    <glyph glyph-name="Thorn.sc" horiz-adv-x="479" 
d="M148 0h-79v592h80v-104h99q198 0 198 -173q0 -178 -202 -178h-96v-137zM148 419v-216h101q61 0 91 26t30 83q0 56 -30 81.5t-92 25.5h-100z" />
    <glyph glyph-name="U.sc" horiz-adv-x="525" 
d="M263 -9q-101 0 -149.5 56.5t-48.5 152.5v392h80v-385q0 -72 28 -108.5t92 -36.5q63 0 90.5 36t27.5 108v386h78v-391q0 -97 -48 -153.5t-150 -56.5z" />
    <glyph glyph-name="Uacute.sc" horiz-adv-x="525" 
d="M222 642l81 156h94l-121 -156h-54zM263 -9q-101 0 -149.5 56.5t-48.5 152.5v392h80v-385q0 -72 28 -108.5t92 -36.5q63 0 90.5 36t27.5 108v386h78v-391q0 -97 -48 -153.5t-150 -56.5z" />
    <glyph glyph-name="Ubreve.sc" horiz-adv-x="525" 
d="M264 638q-62 0 -95.5 43.5t-37.5 121.5h51q11 -105 82 -105t81 105h51q-4 -78 -37.5 -121.5t-94.5 -43.5zM263 -9q-101 0 -149.5 56.5t-48.5 152.5v392h80v-385q0 -72 28 -108.5t92 -36.5q63 0 90.5 36t27.5 108v386h78v-391q0 -97 -48 -153.5t-150 -56.5z" />
    <glyph glyph-name="Ucircumflex.sc" horiz-adv-x="525" 
d="M124 639l110 159h56l110 -159h-50l-88 89l-89 -89h-49zM263 -9q-101 0 -149.5 56.5t-48.5 152.5v392h80v-385q0 -72 28 -108.5t92 -36.5q63 0 90.5 36t27.5 108v386h78v-391q0 -97 -48 -153.5t-150 -56.5z" />
    <glyph glyph-name="Udieresis.sc" horiz-adv-x="525" 
d="M143 641v90h81v-90h-81zM302 641v90h80v-90h-80zM263 -9q-101 0 -149.5 56.5t-48.5 152.5v392h80v-385q0 -72 28 -108.5t92 -36.5q63 0 90.5 36t27.5 108v386h78v-391q0 -97 -48 -153.5t-150 -56.5z" />
    <glyph glyph-name="Ugrave.sc" horiz-adv-x="525" 
d="M248 642l-120 156h94l80 -156h-54zM263 -9q-101 0 -149.5 56.5t-48.5 152.5v392h80v-385q0 -72 28 -108.5t92 -36.5q63 0 90.5 36t27.5 108v386h78v-391q0 -97 -48 -153.5t-150 -56.5z" />
    <glyph glyph-name="Uhungarumlaut.sc" horiz-adv-x="525" 
d="M147 642l81 156h96l-121 -156h-56zM293 642l83 156h95l-123 -156h-55zM263 -9q-101 0 -149.5 56.5t-48.5 152.5v392h80v-385q0 -72 28 -108.5t92 -36.5q63 0 90.5 36t27.5 108v386h78v-391q0 -97 -48 -153.5t-150 -56.5z" />
    <glyph glyph-name="Umacron.sc" horiz-adv-x="525" 
d="M146 641v66h232v-66h-232zM263 -9q-101 0 -149.5 56.5t-48.5 152.5v392h80v-385q0 -72 28 -108.5t92 -36.5q63 0 90.5 36t27.5 108v386h78v-391q0 -97 -48 -153.5t-150 -56.5z" />
    <glyph glyph-name="Uogonek.sc" horiz-adv-x="525" 
d="M270 -189q-42 0 -64.5 20.5t-22.5 57.5q0 50 58 103q-89 6 -132.5 61.5t-43.5 146.5v392h80v-385q0 -72 28 -108.5t92 -36.5q63 0 90.5 36t27.5 108v386h78v-391q0 -90 -42 -145.5t-130 -63.5q-46 -41 -46 -90q0 -47 44 -47q32 0 78 24l21 -31q-56 -37 -116 -37z" />
    <glyph glyph-name="Uring.sc" horiz-adv-x="525" 
d="M262 632q-38 0 -61.5 27t-23.5 69t23 68.5t62 26.5q38 0 61.5 -26.5t23.5 -68.5t-23.5 -69t-61.5 -27zM262 671q20 0 31 16.5t11 40.5q0 23 -11 39t-31 16t-31 -16t-11 -39q0 -24 11 -40.5t31 -16.5zM263 -9q-101 0 -149.5 56.5t-48.5 152.5v392h80v-385q0 -72 28 -108.5
t92 -36.5q63 0 90.5 36t27.5 108v386h78v-391q0 -97 -48 -153.5t-150 -56.5z" />
    <glyph glyph-name="Utilde.sc" horiz-adv-x="525" 
d="M331 638q-29 0 -71.5 28t-57.5 28q-35 0 -35 -54h-49q0 118 82 118q29 0 71.5 -28t58.5 -28q18 0 26 12t8 42h48q0 -118 -81 -118zM263 -9q-101 0 -149.5 56.5t-48.5 152.5v392h80v-385q0 -72 28 -108.5t92 -36.5q63 0 90.5 36t27.5 108v386h78v-391q0 -97 -48 -153.5
t-150 -56.5z" />
    <glyph glyph-name="V.sc" horiz-adv-x="490" 
d="M282 -2h-75l-180 594h81l111 -380q9 -29 26 -99h2q2 8 11 41t17 59l112 379h76z" />
    <glyph glyph-name="W.sc" horiz-adv-x="679" 
d="M238 -1h-68l-140 593h79l72 -334q18 -82 27 -131h2q9 57 25 130l73 335h71l73 -336l26 -129h1q5 29 26 127l72 338h73l-136 -593h-70l-101 476h-1z" />
    <glyph glyph-name="Wacute.sc" horiz-adv-x="679" 
d="M317 643l81 156h94l-121 -156h-54zM238 -1h-68l-140 593h79l72 -334q18 -82 27 -131h2q9 57 25 130l73 335h71l73 -336l26 -129h1q5 29 26 127l72 338h73l-136 -593h-70l-101 476h-1z" />
    <glyph glyph-name="Wcircumflex.sc" horiz-adv-x="679" 
d="M203 640l110 159h56l110 -159h-50l-88 89l-89 -89h-49zM238 -1h-68l-140 593h79l72 -334q18 -82 27 -131h2q9 57 25 130l73 335h71l73 -336l26 -129h1q5 29 26 127l72 338h73l-136 -593h-70l-101 476h-1z" />
    <glyph glyph-name="Wdieresis.sc" horiz-adv-x="679" 
d="M222 642v90h81v-90h-81zM381 642v90h80v-90h-80zM238 -1h-68l-140 593h79l72 -334q18 -82 27 -131h2q9 57 25 130l73 335h71l73 -336l26 -129h1q5 29 26 127l72 338h73l-136 -593h-70l-101 476h-1z" />
    <glyph glyph-name="Wgrave.sc" horiz-adv-x="679" 
d="M313 643l-120 156h94l80 -156h-54zM238 -1h-68l-140 593h79l72 -334q18 -82 27 -131h2q9 57 25 130l73 335h71l73 -336l26 -129h1q5 29 26 127l72 338h73l-136 -593h-70l-101 476h-1z" />
    <glyph glyph-name="X.sc" horiz-adv-x="487" 
d="M102 0h-75l176 316l-154 276h84l114 -210l112 210h75l-153 -273l179 -319h-83l-139 253z" />
    <glyph glyph-name="Y.sc" horiz-adv-x="466" 
d="M273 0h-81v243l-172 349h81l94 -196q36 -78 39 -86h1q15 34 40 86l93 196h78l-173 -349v-243z" />
    <glyph glyph-name="Yacute.sc" horiz-adv-x="466" 
d="M192 642l81 156h94l-121 -156h-54zM273 0h-81v243l-172 349h81l94 -196q36 -78 39 -86h1q15 34 40 86l93 196h78l-173 -349v-243z" />
    <glyph glyph-name="Ycircumflex.sc" horiz-adv-x="466" 
d="M96 640l110 159h56l110 -159h-50l-88 89l-89 -89h-49zM273 0h-81v243l-172 349h81l94 -196q36 -78 39 -86h1q15 34 40 86l93 196h78l-173 -349v-243z" />
    <glyph glyph-name="Ydieresis.sc" horiz-adv-x="466" 
d="M113 641v90h81v-90h-81zM272 641v90h80v-90h-80zM273 0h-81v243l-172 349h81l94 -196q36 -78 39 -86h1q15 34 40 86l93 196h78l-173 -349v-243z" />
    <glyph glyph-name="Ygrave.sc" horiz-adv-x="466" 
d="M210 643l-120 156h94l80 -156h-54zM273 0h-81v243l-172 349h81l94 -196q36 -78 39 -86h1q15 34 40 86l93 196h78l-173 -349v-243z" />
    <glyph glyph-name="Z.sc" horiz-adv-x="463" 
d="M422 0h-389v61l295 461h-274v70h368v-60l-292 -462h292v-70z" />
    <glyph glyph-name="Zacute.sc" horiz-adv-x="463" 
d="M191 642l81 156h94l-121 -156h-54zM422 0h-389v61l295 461h-274v70h368v-60l-292 -462h292v-70z" />
    <glyph glyph-name="Zcaron.sc" horiz-adv-x="463" 
d="M203 642l-110 159h51l88 -91l88 91h49l-110 -159h-56zM422 0h-389v61l295 461h-274v70h368v-60l-292 -462h292v-70z" />
    <glyph glyph-name="Zdotaccent.sc" horiz-adv-x="463" 
d="M185 641v88h92v-88h-92zM422 0h-389v61l295 461h-274v70h368v-60l-292 -462h292v-70z" />
    <glyph glyph-name="ampersand.sc" horiz-adv-x="548" 
d="M192 467q0 -50 26 -103q41 27 63 54t22 63q0 62 -49 62q-31 0 -46.5 -20.5t-15.5 -55.5zM223 53q59 0 103 41q-11 12 -87 108q-36 45 -53 73q-79 -61 -79 -125q0 -45 29.5 -71t86.5 -26zM221 -10q-94 0 -142 40.5t-48 112.5q0 61 34 104t93 82q-38 73 -38 135t35 100.5
t100 38.5q58 0 87 -31.5t29 -86.5t-34 -94.5t-92 -77.5q21 -35 49 -69q38 -50 80 -97q39 63 48 155h69q-15 -122 -65 -198q48 -40 100 -43v-67q-79 1 -148 55q-64 -59 -157 -59z" />
    <glyph glyph-name="asterisk.tab" 
d="M211 375l-49 28l93 138l-165 -11v55l166 -12l-94 139l49 29l72 -151l72 151l48 -29l-93 -138l165 11v-55l-165 11l93 -138l-48 -28l-72 150z" />
    <glyph glyph-name="backslash.sc" horiz-adv-x="417" 
d="M100 592l294 -592h-77l-293 592h76z" />
    <glyph glyph-name="braceleft.uc" horiz-adv-x="335" 
d="M245 -130q-123 0 -123 137v185q0 70 -21 93.5t-73 23.5v62q52 0 73 24t21 93v185q0 137 125 137h61v-63h-37q-67 0 -67 -74v-189q0 -69 -18 -98.5t-57 -44.5v-2q39 -15 57 -44.5t18 -98.5v-190q0 -38 16 -55.5t51 -17.5h37v-63h-63z" />
    <glyph glyph-name="braceright.uc" horiz-adv-x="335" 
d="M27 -130v63h37q35 0 51 17.5t16 55.5v193q0 68 17.5 96.5t57.5 43.5v2q-40 15 -57.5 43.5t-17.5 96.5v192q0 74 -67 74h-37v63h65q64 0 92.5 -33.5t28.5 -100.5v-188q0 -69 21 -93t73 -24v-62q-52 0 -73 -23.5t-21 -93.5v-188q0 -67 -28.5 -100.5t-91.5 -33.5h-66z" />
    <glyph glyph-name="bracketleft.uc" horiz-adv-x="339" 
d="M71 -130v940h232v-63h-150v-814h150v-63h-232z" />
    <glyph glyph-name="bracketright.uc" horiz-adv-x="339" 
d="M35 -130v63h150v814h-150v63h232v-940h-232z" />
    <glyph glyph-name="cent.scrap" horiz-adv-x="456" 
d="M119 264q0 -124 48 -179l84 390h-8q-54 0 -89 -54t-35 -157zM241 -11q-18 0 -36 3l-24 -112h-64l29 135q-50 31 -78.5 95.5t-28.5 153.5q0 134 57.5 204.5t146.5 70.5q11 0 17 -1l20 95h64l-24 -110q72 -33 102 -140l-73 -20q-20 67 -50 93l-85 -400q12 -4 29 -4
q80 0 112 114l70 -19q-47 -158 -184 -158z" />
    <glyph glyph-name="cent.tab" 
d="M173 264q0 -124 48 -179l84 390h-8q-54 0 -89 -54t-35 -157zM295 -11q-18 0 -36 3l-24 -112h-64l29 135q-50 31 -78.5 95.5t-28.5 153.5q0 134 57.5 204.5t146.5 70.5q11 0 17 -1l20 95h64l-24 -110q72 -33 102 -140l-73 -20q-20 67 -50 93l-85 -400q12 -4 29 -4
q80 0 112 114l70 -19q-47 -158 -184 -158z" />
    <glyph glyph-name="colon.tab" horiz-adv-x="282" 
d="M93 425v103h95v-103h-95zM93 0v104h95v-104h-95z" />
    <glyph glyph-name="comma.tab" horiz-adv-x="282" 
d="M105 -105l27 105h-39v104h96v-94l-48 -115h-36z" />
    <glyph glyph-name="commaaccent.scrap" horiz-adv-x="237" 
d="M77 583v85l43 108h36l-27 -99h32v-94h-84z" />
    <glyph glyph-name="divide.sc" horiz-adv-x="535" 
d="M224 434v91h85v-91h-85zM49 266v69h437v-69h-437zM224 76v92h85v-92h-85z" />
    <glyph glyph-name="divide.tab" 
d="M238 468v91h86v-91h-86zM63 299v68h439v-68h-439zM238 105v91h86v-91h-86z" />
    <glyph glyph-name="dollar.sc" horiz-adv-x="503" 
d="M148 458q0 -36 19 -60t58 -43v180q-35 -5 -56 -25t-21 -52zM371 146q0 40 -23.5 64.5t-74.5 47.5v-199q47 4 72.5 26.5t25.5 60.5zM277 -75h-56v71q-126 15 -179 136l67 30q39 -88 116 -101v217q-76 33 -114.5 71.5t-38.5 107.5q0 58 41.5 96t107.5 44v58h56v-58
q117 -13 160 -118l-65 -30q-30 72 -99 85v-201q45 -19 71 -33t53 -35.5t39 -50t12 -66.5q0 -64 -46 -105.5t-125 -47.5v-70z" />
    <glyph glyph-name="dollar.scrap" horiz-adv-x="565" 
d="M153 569q0 -46 26.5 -75.5t76.5 -54.5v234q-43 -6 -73 -32t-30 -72zM432 181q0 54 -31.5 87t-90.5 61v-263q122 12 122 115zM315 -93h-63v92q-144 16 -202 157l69 26q49 -104 137 -115v285q-43 19 -68.5 33t-55.5 39t-44.5 59.5t-14.5 79.5q0 72 47 122t132 57v77h63v-78
q123 -15 177 -139l-66 -32q-42 88 -116 101v-257q28 -13 42 -19t39.5 -20t38.5 -25t31.5 -29t27.5 -36t15.5 -43t6.5 -54q0 -80 -51 -131t-145 -58v-92z" />
    <glyph glyph-name="dollar.tab" 
d="M153 569q0 -46 26.5 -75.5t76.5 -54.5v234q-43 -6 -73 -32t-30 -72zM432 181q0 54 -31.5 87t-90.5 61v-263q122 12 122 115zM315 -93h-63v92q-144 16 -202 157l69 26q49 -104 137 -115v285q-43 19 -68.5 33t-55.5 39t-44.5 59.5t-14.5 79.5q0 72 47 122t132 57v77h63v-78
q123 -15 177 -139l-66 -32q-42 88 -116 101v-257q28 -13 42 -19t39.5 -20t38.5 -25t31.5 -29t27.5 -36t15.5 -43t6.5 -54q0 -80 -51 -131t-145 -58v-92z" />
    <glyph glyph-name="dollarsc.scrap" horiz-adv-x="503" 
d="M148 458q0 -36 19 -60t58 -43v180q-35 -5 -56 -25t-21 -52zM371 146q0 40 -23.5 64.5t-74.5 47.5v-199q47 4 72.5 26.5t25.5 60.5zM277 -75h-56v71q-126 15 -179 136l67 30q39 -88 116 -101v217q-76 33 -114.5 71.5t-38.5 107.5q0 58 41.5 96t107.5 44v58h56v-58
q117 -13 160 -118l-65 -30q-30 72 -99 85v-201q45 -19 71 -33t53 -35.5t39 -50t12 -66.5q0 -64 -46 -105.5t-125 -47.5v-70z" />
    <glyph glyph-name="eight.dnom" horiz-adv-x="336" 
d="M169 -7q-68 0 -105 32t-37 83q0 74 87 123q-35 21 -52 45t-17 62q0 46 32.5 77.5t91.5 31.5t91 -30.5t32 -78.5q0 -37 -17 -60.5t-53 -45.5q45 -24 66 -51t21 -72q0 -51 -37 -83.5t-103 -32.5zM172 258q31 17 44 34t13 42q0 60 -59 60q-31 0 -46 -17t-15 -42
q0 -26 14.5 -42.5t48.5 -34.5zM168 44q35 0 55.5 18.5t20.5 50.5q0 29 -19 48.5t-60 42.5q-39 -22 -56.5 -42t-17.5 -49q0 -30 21 -49.5t56 -19.5z" />
    <glyph glyph-name="eight.numr" horiz-adv-x="336" 
d="M169 290q-68 0 -105 32t-37 83q0 74 87 123q-35 21 -52 45t-17 62q0 46 32.5 77.5t91.5 31.5t91 -30.5t32 -78.5q0 -37 -17 -60.5t-53 -45.5q45 -24 66 -51t21 -72q0 -51 -37 -83.5t-103 -32.5zM172 555q31 17 44 34t13 42q0 60 -59 60q-31 0 -46 -17t-15 -42
q0 -26 14.5 -42.5t48.5 -34.5zM168 341q35 0 55.5 18.5t20.5 50.5q0 29 -19 48.5t-60 42.5q-39 -22 -56.5 -42t-17.5 -49q0 -30 21 -49.5t56 -19.5z" />
    <glyph glyph-name="eight.sc" horiz-adv-x="444" 
d="M221 -12q-90 0 -140 43.5t-50 110.5q0 58 33 97.5t96 72.5q-51 29 -78 63.5t-27 85.5q0 59 45 100t121 41q79 0 123 -40.5t44 -100.5q0 -88 -106 -146q65 -34 97 -73t32 -100q0 -66 -50.5 -110t-139.5 -44zM225 347q48 25 68 50t20 61q0 35 -22.5 58t-68.5 23
q-45 0 -69.5 -22.5t-24.5 -55.5q0 -38 22.5 -63t74.5 -51zM221 49q53 0 83.5 26t30.5 71q0 43 -28.5 73t-88.5 60q-59 -31 -85 -60.5t-26 -72.5q0 -44 31 -70.5t83 -26.5z" />
    <glyph glyph-name="eight.tab" 
d="M283 -14q-108 0 -170 54t-62 137q0 71 42.5 121.5t123.5 93.5q-69 38 -103 79.5t-34 106.5q0 73 55 124t148 51q95 0 149 -51t54 -124q0 -62 -34.5 -104.5t-102.5 -79.5q84 -45 125 -92.5t41 -124.5q0 -82 -62.5 -136.5t-169.5 -54.5zM286 428q65 34 93.5 66.5t28.5 79.5
q0 46 -31.5 78.5t-92.5 32.5q-60 0 -93.5 -32t-33.5 -76q0 -49 30 -81t99 -68zM283 54q68 0 110 34.5t42 92.5q0 57 -38 95.5t-117 79.5q-78 -42 -114 -81t-36 -94q0 -56 42.5 -91.5t110.5 -35.5z" />
    <glyph glyph-name="emdash.uc" horiz-adv-x="762" 
d="M51 347v72h659v-72h-659z" />
    <glyph glyph-name="emdash.uc_salt_em" horiz-adv-x="1000" 
d="M0 349v66h1000v-66h-1000z" />
    <glyph glyph-name="endash.salt_en" horiz-adv-x="500" 
d="M0 279v66h500v-66h-500z" />
    <glyph glyph-name="endash.uc" horiz-adv-x="557" 
d="M52 347v72h453v-72h-453z" />
    <glyph glyph-name="endash.uc_salt_en" horiz-adv-x="500" 
d="M0 349v66h500v-66h-500z" />
    <glyph glyph-name="equal.sc" horiz-adv-x="535" 
d="M63 380v67h409v-67h-409zM63 155v67h409v-67h-409z" />
    <glyph glyph-name="equal.tab" 
d="M64 400v66h437v-66h-437zM64 186v65h437v-65h-437z" />
    <glyph glyph-name="exclam.sc" horiz-adv-x="262" 
d="M85 592h92l-18 -428h-55zM86 86h91v-86h-91v86z" />
    <glyph glyph-name="exclamdown.sc" horiz-adv-x="262" 
d="M177 506h-90v86h90v-86zM179 0h-93l18 429h56z" />
    <glyph glyph-name="fi.sc" horiz-adv-x="651" 
d="M575 0h-80v592h80v-592zM150 0h-81v592h323v-72h-242v-180h176v-69h-176v-271z" />
    <glyph glyph-name="five.dnom" horiz-adv-x="324" 
d="M160 -7q-53 0 -83.5 22t-52.5 66l52 27q16 -31 33.5 -44.5t48.5 -13.5q70 0 70 96q0 90 -63 90q-42 0 -65 -36l-53 8l14 230h211l-4 -59h-155l-7 -116q29 26 74 26q114 0 114 -143q0 -76 -35.5 -114.5t-98.5 -38.5z" />
    <glyph glyph-name="five.numr" horiz-adv-x="324" 
d="M160 290q-53 0 -83.5 22t-52.5 66l52 27q16 -31 33.5 -44.5t48.5 -13.5q70 0 70 96q0 90 -63 90q-42 0 -65 -36l-53 8l14 230h211l-4 -59h-155l-7 -116q29 26 74 26q114 0 114 -143q0 -76 -35.5 -114.5t-98.5 -38.5z" />
    <glyph glyph-name="five.sc" horiz-adv-x="452" 
d="M220 -11q-121 0 -180 124l61 29q45 -90 118 -90q56 0 84 41.5t28 102.5q0 66 -27 101.5t-74 35.5q-66 0 -106 -69l-58 13l20 315h291l-5 -67h-220l-14 -184q34 53 107 53q74 0 117.5 -50.5t43.5 -144.5q0 -97 -50 -153.5t-136 -56.5z" />
    <glyph glyph-name="five.tab" 
d="M276 -13q-77 0 -133 42t-85 111l69 32q49 -111 147 -111q72 0 108.5 51.5t36.5 131.5q0 85 -36 129.5t-98 44.5q-84 0 -133 -84l-61 17l24 389h349l-6 -75h-275l-16 -239q46 64 137 64q90 0 143 -62.5t53 -180.5q0 -119 -60.5 -189.5t-163.5 -70.5z" />
    <glyph glyph-name="fl.sc" horiz-adv-x="837" 
d="M810 0h-322v592h81v-520h241v-72zM150 0h-81v592h323v-72h-242v-180h176v-69h-176v-271z" />
    <glyph glyph-name="florin.sc" horiz-adv-x="301" 
d="M-16 -160h-13.5h-17.5l-8 1l7 60q8 -1 28 -1q56 0 64 53l50 352h-62l7 58h63q2 13 9 62.5t9 59.5q9 55 40 81.5t95 26.5q3 0 12 -0.5t17 -0.5h8l-8 -61q-18 2 -27 2q-56 0 -63 -50q-8 -46 -17 -120h79l-7 -58h-79q-8 -47 -26.5 -180t-26.5 -180q-9 -55 -40.5 -80
t-92.5 -25z" />
    <glyph glyph-name="florin.tab" 
d="M46 -200l10 65q6 -1 30 -1q72 0 83 71l64 452h-79q2 5 10 63h78l22 158q10 70 48.5 101.5t113.5 31.5q5 0 22.5 -0.5t18.5 -0.5l-10 -66q-12 2 -30 2q-75 0 -83 -67l-22 -159h98l-8 -63h-99l-65 -458q-10 -69 -48 -99.5t-111 -30.5q-6 0 -25 1h-18z" />
    <glyph glyph-name="four.dnom" horiz-adv-x="319" 
d="M180 1v102h-169v45l165 290h68v-277h59v-58h-59v-102h-64zM78 159h104v188z" />
    <glyph glyph-name="four.numr" horiz-adv-x="319" 
d="M180 298v102h-169v45l165 290h68v-277h59v-58h-59v-102h-64zM78 456h104v188z" />
    <glyph glyph-name="four.sc" horiz-adv-x="458" 
d="M347 0h-74v138h-241v54l234 400h81v-391h84v-63h-84v-138zM273 483l-163 -282h164v282h-1z" />
    <glyph glyph-name="four.tab" 
d="M347 0v176h-300v60l285 504h94v-494h102v-70h-102v-176h-79zM130 246h218v379h-2z" />
    <glyph glyph-name="germandbls.sc" horiz-adv-x="968" 
d="M724 -10q-149 0 -209 142l67 30q47 -104 142 -104q56 0 85 23t29 65q0 45 -27.5 69t-95.5 53q-44 19 -69.5 32.5t-52 35.5t-38 51.5t-11.5 69.5q0 64 48 105t123 41q138 0 190 -124l-66 -30q-38 87 -123 87q-44 0 -69.5 -20.5t-25.5 -57.5q0 -46 28.5 -70.5t93.5 -53.5
q89 -36 130.5 -74.5t41.5 -111.5q0 -69 -51.5 -113.5t-139.5 -44.5zM240 -10q-149 0 -209 142l67 30q47 -104 142 -104q56 0 85 23t29 65q0 45 -27.5 69t-95.5 53q-44 19 -69.5 32.5t-52 35.5t-38 51.5t-11.5 69.5q0 64 48 105t123 41q138 0 190 -124l-66 -30
q-38 87 -123 87q-44 0 -69.5 -20.5t-25.5 -57.5q0 -46 28.5 -70.5t93.5 -53.5q89 -36 130.5 -74.5t41.5 -111.5q0 -69 -51.5 -113.5t-139.5 -44.5z" />
    <glyph glyph-name="greater.sc" horiz-adv-x="571" 
d="M64 48v75l366 178l-366 178v75l451 -223v-60z" />
    <glyph glyph-name="greater.tab" 
d="M72 82v74l354 168l-354 169v75l439 -215v-57z" />
    <glyph glyph-name="guillemotleft.uc" horiz-adv-x="455" 
d="M157 70l-124 264l124 263h79l-120 -263l120 -264h-79zM337 70l-124 264l124 263h79l-121 -263l121 -264h-79z" />
    <glyph glyph-name="guillemotright.uc" horiz-adv-x="455" 
d="M39 70l122 264l-122 263h80l123 -263l-123 -264h-80zM220 70l120 264l-120 263h79l122 -263l-122 -264h-79z" />
    <glyph glyph-name="guilsinglleft.uc" horiz-adv-x="276" 
d="M154 70l-124 264l124 263h79l-121 -263l121 -264h-79z" />
    <glyph glyph-name="guilsinglright.uc" horiz-adv-x="276" 
d="M42 70l122 264l-122 263h80l124 -263l-124 -264h-80z" />
    <glyph glyph-name="hyphen.uc" horiz-adv-x="308" 
d="M52 349v68h205v-68h-205z" />
    <glyph glyph-name="i.trk" horiz-adv-x="220" 
d="M69 633v87h82v-87h-82zM69 0v528h81v-528h-81z" />
    <glyph glyph-name="less.sc" horiz-adv-x="571" 
d="M508 48l-450 223v60l450 223v-75l-367 -178l367 -178v-75z" />
    <glyph glyph-name="less.tab" 
d="M500 82l-439 214v57l439 215v-75l-354 -169l354 -168v-74z" />
    <glyph glyph-name="minus.sc" horiz-adv-x="535" 
d="M49 266v69h437v-69h-437z" />
    <glyph glyph-name="minus.tab" 
d="M64 299v68h437v-68h-437z" />
    <glyph glyph-name="minute.tab" horiz-adv-x="282" 
d="M95 487l20 199l9 54h78l-59 -253h-48z" />
    <glyph glyph-name="multiply.sc" horiz-adv-x="535" 
d="M109 97l-47 47l158 157l-158 157l47 47l158 -158l157 158l47 -47l-158 -157l158 -157l-47 -47l-157 157z" />
    <glyph glyph-name="multiply.tab" 
d="M132 125l-47 46l150 149l-150 148l48 48l149 -149l149 149l48 -47l-150 -149l151 -147l-47 -47l-151 148z" />
    <glyph glyph-name="nine.dnom" horiz-adv-x="337" 
d="M159 208q42 0 79 48q-9 134 -76 134q-68 0 -68 -94q0 -88 65 -88zM154 -7q-74 0 -115 63l49 33q32 -41 68 -41q41 0 60.5 36.5t22.5 112.5q-48 -42 -92 -42q-117 0 -117 142q0 66 36 108t98 42q138 0 138 -223q0 -231 -148 -231z" />
    <glyph glyph-name="nine.numr" horiz-adv-x="337" 
d="M159 505q42 0 79 48q-9 134 -76 134q-68 0 -68 -94q0 -88 65 -88zM154 290q-74 0 -115 63l49 33q32 -41 68 -41q41 0 60.5 36.5t22.5 112.5q-48 -42 -92 -42q-117 0 -117 142q0 66 36 108t98 42q138 0 138 -223q0 -231 -148 -231z" />
    <glyph glyph-name="nine.sc" horiz-adv-x="458" 
d="M213 279q73 0 123 65q-4 94 -36.5 143.5t-82.5 49.5t-77.5 -33.5t-27.5 -97.5q0 -127 101 -127zM205 -11q-92 0 -149 83l56 39q21 -28 42 -41.5t55 -13.5q61 0 93 59t34 166q-23 -28 -58.5 -46.5t-75.5 -18.5q-81 0 -123 52t-42 137q0 88 48.5 143t133.5 55
q88 0 140.5 -75t52.5 -222q0 -144 -55 -230.5t-152 -86.5z" />
    <glyph glyph-name="nine.tab" 
d="M263 347q96 0 159 86q-8 124 -48.5 186t-106.5 62q-64 0 -100 -44.5t-36 -126.5q0 -163 132 -163zM255 -13q-111 0 -178 98l61 43q26 -34 51.5 -50.5t66.5 -16.5q78 0 121.5 78.5t45.5 217.5q-74 -81 -172 -81q-100 0 -149.5 63t-49.5 169q0 108 58.5 176.5t160.5 68.5
q106 0 168.5 -93t62.5 -277q0 -182 -66 -289t-181 -107z" />
    <glyph glyph-name="numbersign.sc" horiz-adv-x="538" 
d="M202 231h107q0 1 5.5 31l11.5 63t7 38h-107q0 -1 -5.5 -31l-11.5 -63t-7 -38zM89 0l30 167h-78v65h89q0 1 5.5 30.5l11.5 62t7 37.5h-84v64h96q0 21 29 166h72l-29 -166h106q0 2 6.5 38l14 76.5l9.5 51.5h72l-30 -166h81v-64h-93l-6 -30l-10.5 -62.5t-6.5 -37.5h86v-65
h-98q0 -11 -30 -167h-71l29 167h-106q0 -2 -6.5 -38l-14 -77l-9.5 -52h-72z" />
    <glyph glyph-name="numbersign.tab" 
d="M196 280h138l32 181h-138zM81 0l36 214h-89v66h99l32 181h-97v65h106l36 214h69l-35 -214h137l37 214h69l-36 -214h92v-65h-102l-32 -181h99v-66h-108l-36 -214h-69l35 214h-138l-36 -214h-69z" />
    <glyph glyph-name="one.dnom" horiz-adv-x="257" 
d="M33 1v59h67v305q-28 -13 -66 -13v59q51 1 75 27h59v-378h60v-59h-195z" />
    <glyph glyph-name="one.numr" horiz-adv-x="257" 
d="M33 298v59h67v305q-28 -13 -66 -13v59q51 1 75 27h59v-378h60v-59h-195z" />
    <glyph glyph-name="one.sc" horiz-adv-x="372" 
d="M337 0h-286v70h111v441q-48 -31 -110 -31v69q73 2 113 43h73v-522h99v-70z" />
    <glyph glyph-name="one.tab" 
d="M115 0v74h141v579q-23 -14 -65 -24t-74 -10v73q102 4 142 48h78v-666h127v-74h-349z" />
    <glyph glyph-name="ordfeminine.sc" horiz-adv-x="375" 
d="M142 365h87l-41 153h-2zM40 226l114 367h67l113 -367h-64l-27 93h-114l-28 -93h-61z" />
    <glyph glyph-name="ordmasculine.sc" horiz-adv-x="381" 
d="M191 216q-66 0 -107.5 50t-41.5 143t41.5 143t107.5 50q65 0 106.5 -50t41.5 -143t-41.5 -143t-106.5 -50zM191 266q41 0 62.5 39t21.5 104q0 63 -20.5 102.5t-63.5 39.5q-42 0 -64 -38.5t-22 -103.5q0 -63 21 -103t65 -40z" />
    <glyph glyph-name="parenleft.tab" horiz-adv-x="282" 
d="M232 -205q-213 208 -213 478q0 269 213 477l42 -36q-177 -193 -177 -441q0 -126 47 -240t131 -203z" />
    <glyph glyph-name="parenleft.uc" horiz-adv-x="349" 
d="M262 -135q-213 208 -213 479q0 269 213 477l47 -39q-174 -194 -174 -438q0 -125 46.5 -238.5t128.5 -201.5z" />
    <glyph glyph-name="parenright.tab" horiz-adv-x="282" 
d="M52 -205l-44 35q179 194 179 443q0 125 -47 239t-131 202l43 36q212 -207 212 -477q0 -269 -212 -478z" />
    <glyph glyph-name="parenright.uc" horiz-adv-x="349" 
d="M86 -135l-47 39q175 193 175 439q0 125 -47 238t-128 201l47 39q213 -208 213 -478q0 -268 -213 -478z" />
    <glyph glyph-name="percent.sc" horiz-adv-x="725" 
d="M162 243q-62 0 -94 49t-32 130q0 84 33 133t94 49q59 0 90.5 -48.5t31.5 -131.5q0 -82 -31 -131.5t-92 -49.5zM245 0h-70l305 592h70zM162 298q61 0 61 125t-61 125q-62 0 -62 -124q0 -126 62 -126zM565 -11q-61 0 -93.5 49.5t-32.5 131.5q0 83 33.5 132.5t93.5 49.5
q59 0 91 -49t32 -131t-32 -132.5t-92 -50.5zM566 46q59 0 59 125q0 124 -60 124q-61 0 -61 -123q0 -126 62 -126z" />
    <glyph glyph-name="percent.tab" horiz-adv-x="854" 
d="M210 304q-72 0 -108 59t-36 162q0 105 37.5 164.5t107.5 59.5t107 -59t37 -162t-37 -163.5t-108 -60.5zM215 0l362 740h62l-361 -740h-63zM211 365q75 0 75 161t-76 161q-75 0 -75 -159q0 -163 76 -163zM644 -9q-71 0 -107 60t-36 162q0 104 37 164t108 60
q70 0 106.5 -59t36.5 -163q0 -102 -36.5 -163t-108.5 -61zM645 53q38 0 57 43.5t19 117.5q0 161 -77 161q-75 0 -75 -160q0 -162 76 -162z" />
    <glyph glyph-name="period.tab" horiz-adv-x="282" 
d="M93 0v104h96v-104h-96z" />
    <glyph glyph-name="periodcentered.tab" horiz-adv-x="282" 
d="M95 261v99h94v-99h-94z" />
    <glyph glyph-name="periodcentered.uc" horiz-adv-x="266" 
d="M82 327v105h102v-105h-102z" />
    <glyph glyph-name="perthousand.sc" horiz-adv-x="1029" 
d="M162 243q-62 0 -94 49t-32 130q0 83 33.5 132.5t93.5 49.5q59 0 90.5 -48.5t31.5 -131.5q0 -82 -31 -131.5t-92 -49.5zM245 0h-70l305 592h70zM162 298q61 0 61 125t-61 125q-62 0 -62 -124q0 -126 62 -126zM565 -11q-61 0 -93.5 49.5t-32.5 131.5q0 83 33.5 132.5
t93.5 49.5q59 0 91 -49t32 -131t-32 -132.5t-92 -50.5zM868 -11q-62 0 -94 49.5t-32 131.5q0 83 33.5 132.5t94.5 49.5q59 0 91 -49t32 -131t-32.5 -132.5t-92.5 -50.5zM566 46q59 0 59 125q0 124 -60 124q-61 0 -61 -123q0 -126 62 -126zM869 46q60 0 60 125q0 124 -61 124
t-61 -123q0 -126 62 -126z" />
    <glyph glyph-name="plus.sc" horiz-adv-x="535" 
d="M232 54v212h-183v69h183v213h71v-213h183v-69h-183v-212h-71z" />
    <glyph glyph-name="plus.tab" 
d="M247 93v206h-184v68h184v206h72v-206h183v-68h-183v-206h-72z" />
    <glyph glyph-name="question.sc" horiz-adv-x="419" 
d="M225 162h-68q-2 35 -1 50q1 45 17.5 73t51.5 55q41 30 58.5 53.5t17.5 62.5q0 77 -93 77q-76 0 -123 -75l-56 38q59 107 185 107q81 0 123 -39.5t42 -102.5q0 -52 -22.5 -84t-68.5 -68q-39 -29 -52 -58.5t-11 -88.5zM236 87v-87h-90v87h90z" />
    <glyph glyph-name="questiondown.sc" horiz-adv-x="416" 
d="M182 506v86h90v-86h-90zM193 431h67q2 -17 2 -50q-2 -45 -18.5 -73.5t-50.5 -54.5q-41 -30 -58.5 -53.5t-17.5 -62.5q0 -77 92 -77q78 0 123 74l57 -37q-58 -108 -185 -108q-81 0 -123 39.5t-42 102.5q0 53 23 85.5t69 66.5q38 30 50.5 59.5t11.5 88.5z" />
    <glyph glyph-name="registered.salt_big" horiz-adv-x="712" 
d="M356 -14q-136 0 -226.5 111t-90.5 272q0 162 91 273.5t226 111.5t226 -111t91 -272t-91.5 -273t-225.5 -112zM356 29q115 0 192 99t77 241q0 143 -77.5 242.5t-191.5 99.5q-115 0 -192.5 -99t-77.5 -241q0 -143 77.5 -242.5t192.5 -99.5zM293 391h60q37 0 54.5 16.5
t17.5 53.5q0 67 -72 67h-60v-137zM235 171v412h121q62 0 95 -30.5t33 -90.5q0 -88 -72 -114l78 -177h-63l-75 169h-59v-169h-58z" />
    <glyph glyph-name="second.tab" 
d="M158 487l20 199l9 54h77l-58 -253h-48zM316 487l21 199l9 54h77l-58 -253h-49z" />
    <glyph glyph-name="semicolon.tab" horiz-adv-x="282" 
d="M93 425v103h95v-103h-95zM105 -105l26 105h-38v104h95v-93l-47 -116h-36z" />
    <glyph glyph-name="seven.dnom" horiz-adv-x="284" 
d="M47 1l154 378h-174v59h242v-56l-154 -381h-68z" />
    <glyph glyph-name="seven.numr" horiz-adv-x="284" 
d="M47 298l154 378h-174v59h242v-56l-154 -381h-68z" />
    <glyph glyph-name="seven.sc" horiz-adv-x="413" 
d="M166 0h-78l209 522h-254v70h334v-65z" />
    <glyph glyph-name="seven.tab" 
d="M141 0l264 665h-321v75h405v-70l-265 -670h-83z" />
    <glyph glyph-name="six.dnom" horiz-adv-x="337" 
d="M174 -7q-67 0 -103 55.5t-36 166.5q0 232 149 232q73 0 115 -64l-50 -33q-30 41 -67 41q-42 0 -61.5 -36.5t-21.5 -112.5q46 42 91 42q117 0 117 -142q0 -65 -35.5 -107t-97.5 -42zM176 49q68 0 68 93q0 88 -65 88q-42 0 -79 -47q9 -134 76 -134z" />
    <glyph glyph-name="six.numr" horiz-adv-x="337" 
d="M174 290q-67 0 -103 55.5t-36 166.5q0 232 149 232q73 0 115 -64l-50 -33q-30 41 -67 41q-42 0 -61.5 -36.5t-21.5 -112.5q46 42 91 42q117 0 117 -142q0 -65 -35.5 -107t-97.5 -42zM176 346q68 0 68 93q0 88 -65 88q-42 0 -79 -47q9 -134 76 -134z" />
    <glyph glyph-name="six.sc" horiz-adv-x="458" 
d="M239 -11q-88 0 -140 74.5t-52 222.5q0 145 54.5 230.5t151.5 85.5q90 0 143 -77l-57 -40q-35 52 -90 52q-62 0 -93.5 -60t-33.5 -168q20 29 57 48t77 19q82 0 123.5 -52t41.5 -137q0 -88 -48.5 -143t-133.5 -55zM241 54q50 0 77.5 33t27.5 98q0 127 -101 127
q-75 0 -122 -66q5 -94 36.5 -143t81.5 -49z" />
    <glyph glyph-name="six.tab" 
d="M293 -13q-106 0 -168.5 93t-62.5 277q0 182 66 289t181 107q109 0 172 -93l-61 -44q-24 32 -48.5 47.5t-63.5 15.5q-78 0 -121.5 -78.5t-45.5 -217.5q74 83 172 83q100 0 149.5 -63t49.5 -170q0 -109 -58.5 -177.5t-160.5 -68.5zM297 59q64 0 100 44.5t36 127.5
q0 162 -132 162q-96 0 -159 -85q8 -124 48.5 -186.5t106.5 -62.5z" />
    <glyph glyph-name="slash.sc" horiz-adv-x="417" 
d="M100 0h-76l293 592h77z" />
    <glyph glyph-name="slash.tab" 
d="M61 0l364 740h80l-364 -740h-80z" />
    <glyph glyph-name="space.frac" horiz-adv-x="80" 
 />
    <glyph glyph-name="space.tab" horiz-adv-x="282" 
 />
    <glyph glyph-name="space.tab_em" horiz-adv-x="1130" 
 />
    <glyph glyph-name="space.tab_thin" horiz-adv-x="140" 
 />
    <glyph glyph-name="space.thin_fra" horiz-adv-x="120" 
 />
    <glyph glyph-name="sterling.sc" horiz-adv-x="456" 
d="M110 -12q-39 0 -67 22.5t-28 65.5q0 42 27 67.5t70 25.5t74 -33q2 18 2 35q-1 47 -30 110h-94v55h66q-33 68 -33 119q0 65 39.5 105t107.5 40q137 0 150 -156l-70 -9q-7 100 -79 100q-35 0 -54 -21t-19 -59q0 -43 38 -119h118v-55h-94q23 -65 23 -111q0 -42 -12 -81
q37 -39 70 -39q55 0 59 107h64q-5 -169 -117 -169q-56 0 -110 48q-37 -48 -101 -48zM112 40q42 0 60 41q-33 37 -59 37q-18 0 -29.5 -10.5t-11.5 -28.5q0 -39 40 -39z" />
    <glyph glyph-name="sterling.tab" 
d="M143 -12q-44 0 -74.5 26.5t-30.5 74.5q0 49 29.5 79.5t77.5 30.5q45 0 88 -39q5 27 3 60q-1 51 -36 138h-110v61h80q-39 87 -39 153q0 81 45.5 130.5t123.5 49.5q86 0 127.5 -51.5t46.5 -135.5l-74 -10q-7 128 -99 128q-44 0 -67.5 -28.5t-23.5 -81.5q0 -62 42 -154h144
v-61h-116q29 -79 29 -146q0 -55 -16 -105q55 -53 90 -53t51.5 31.5t19.5 104.5h69q-2 -97 -32 -149.5t-101 -52.5q-64 0 -129 65q-42 -65 -118 -65zM144 42q54 0 76 57q-42 46 -74 46q-22 0 -36 -14.5t-14 -39.5q0 -23 14 -36t34 -13z" />
    <glyph glyph-name="three.dnom" horiz-adv-x="311" 
d="M153 -1q-101 0 -142 106l54 25q17 -40 37.5 -56.5t49.5 -16.5q34 0 53 20t19 53q0 42 -23.5 62.5t-75.5 20.5h-21v47h30q82 0 82 71q0 27 -14.5 43.5t-44.5 16.5q-43 0 -84 -51l-46 33q53 77 135 77q58 0 88 -31.5t30 -80.5q0 -70 -61 -98q69 -30 69 -111q0 -58 -37 -94
t-98 -36z" />
    <glyph glyph-name="three.numr" horiz-adv-x="311" 
d="M153 296q-101 0 -142 106l54 25q17 -40 37.5 -56.5t49.5 -16.5q34 0 53 20t19 53q0 42 -23.5 62.5t-75.5 20.5h-21v47h30q82 0 82 71q0 27 -14.5 43.5t-44.5 16.5q-43 0 -84 -51l-46 33q53 77 135 77q58 0 88 -31.5t30 -80.5q0 -70 -61 -98q69 -30 69 -111q0 -58 -37 -94
t-98 -36z" />
    <glyph glyph-name="three.sc" horiz-adv-x="453" 
d="M221 -12q-129 0 -186 126l61 32q44 -90 124 -90q52 0 79 28.5t27 78.5q0 63 -31.5 90t-114.5 27h-22v65h24q77 0 106 23.5t29 76.5q0 90 -94 90q-65 0 -111 -73l-55 36q61 105 171 105q83 0 124 -42t41 -108q0 -55 -25.5 -91t-73.5 -46q111 -24 111 -154
q0 -77 -49.5 -125.5t-134.5 -48.5z" />
    <glyph glyph-name="three.tab" 
d="M271 -13q-80 0 -138.5 40t-89.5 110l69 32q51 -109 157 -109q66 0 103 39t37 103q0 81 -43.5 118t-148.5 37h-26v71h32q94 0 133 31t39 100q0 120 -122 120q-89 0 -140 -89l-63 37q75 125 208 125q98 0 148 -52t50 -133q0 -69 -33.5 -114t-89.5 -58q69 -18 103 -64
t34 -129q0 -95 -59.5 -155t-159.5 -60z" />
    <glyph glyph-name="two.dnom" horiz-adv-x="301" 
d="M21 5v20q0 49 20 87t48 62.5t56 46t48 48t20 58.5q0 64 -56 64q-46 0 -76 -75l-57 24q42 109 135 109q58 0 89 -31.5t31 -89.5q0 -37 -18 -67.5t-44.5 -53l-53 -43t-46.5 -46t-22 -53.5h184v-60h-258z" />
    <glyph glyph-name="two.numr" horiz-adv-x="301" 
d="M21 302v20q0 49 20 87t48 62.5t56 46t48 48t20 58.5q0 64 -56 64q-46 0 -76 -75l-57 24q42 109 135 109q58 0 89 -31.5t31 -89.5q0 -37 -18 -67.5t-44.5 -53l-53 -43t-46.5 -46t-22 -53.5h184v-60h-258z" />
    <glyph glyph-name="two.sc" horiz-adv-x="441" 
d="M41 0v16q0 78 37.5 138t128.5 124q59 43 83.5 77.5t24.5 82.5q0 97 -91 97q-76 0 -114 -97l-62 26q52 139 180 139q74 0 117.5 -43.5t43.5 -116.5q0 -63 -31 -111t-101 -98q-66 -48 -97.5 -86.5t-34.5 -78.5h266v-69h-350z" />
    <glyph glyph-name="two.tab" 
d="M65 0v16q0 73 27 134t71 107.5t118 101.5q64 49 94 93t30 101q0 124 -116 124q-99 0 -144 -120l-70 29q63 167 219 167q90 0 141 -53t51 -142q0 -56 -22 -102.5t-55.5 -80.5t-90.5 -77q-158 -120 -163 -223h333v-75h-423z" />
    <glyph glyph-name="yen.sc" horiz-adv-x="461" 
d="M191 0v96h-126v57h126v62h-126v55h122l-158 322h81l122 -265l122 265h79l-159 -322h123v-55h-127v-62h127v-56h-127v-97h-79z" />
    <glyph glyph-name="yen.tab" 
d="M239 0v120h-157v63h157v88h-157v62h151l-194 407h87l156 -344h1q1 3 13 29.5l53 117l89 197.5h84l-196 -407h152v-62h-157v-88h157v-63h-157v-120h-82z" />
    <glyph glyph-name="zero.dnom" horiz-adv-x="369" 
d="M185 -7q-72 0 -111 58t-39 168q0 111 39 169.5t111 58.5t110.5 -58.5t38.5 -169.5q0 -110 -38.5 -168t-110.5 -58zM185 51q43 0 62.5 39.5t19.5 128.5q0 168 -82 168q-42 0 -62 -39.5t-20 -128.5q0 -88 20.5 -128t61.5 -40z" />
    <glyph glyph-name="zero.numr" horiz-adv-x="369" 
d="M185 290q-72 0 -111 58t-39 168q0 111 39 169.5t111 58.5t110.5 -58.5t38.5 -169.5q0 -110 -38.5 -168t-110.5 -58zM185 348q43 0 62.5 39.5t19.5 128.5q0 168 -82 168q-42 0 -62 -39.5t-20 -128.5q0 -88 20.5 -128t61.5 -40z" />
    <glyph glyph-name="zero.salt_slash" horiz-adv-x="563" 
d="M282 -14q-116 0 -177 99t-61 285q0 187 61 285.5t177 98.5t176.5 -98.5t60.5 -285.5t-60.5 -285.5t-176.5 -98.5zM127 370q0 -122 24 -196l233 453q-38 56 -102 56q-155 0 -155 -313zM282 56q154 0 154 314q0 123 -24 196l-234 -452q39 -58 104 -58z" />
    <glyph glyph-name="zero.sc" horiz-adv-x="493" 
d="M247 -11q-97 0 -148 79t-51 228t51 227.5t148 78.5t147.5 -78.5t50.5 -227.5t-50.5 -228t-147.5 -79zM247 56q60 0 90 57.5t30 182.5q0 240 -120 240t-120 -240t120 -240z" />
    <glyph glyph-name="zero.sc_salt_slash" horiz-adv-x="493" 
d="M247 -11q-97 0 -148 79t-51 228t51 227.5t148 78.5t147.5 -78.5t50.5 -227.5t-50.5 -228t-147.5 -79zM127 296q0 -86 15 -140l187 336q-30 46 -82 46q-120 0 -120 -242zM247 54q120 0 120 242q0 87 -15 141l-187 -336q29 -47 82 -47z" />
    <glyph glyph-name="zero.tab" 
d="M283 -12q-116 0 -176 97.5t-60 284.5t60 284.5t176 97.5t175 -97t59 -285q0 -187 -59 -284.5t-175 -97.5zM283 62q155 0 155 308q0 309 -155 309q-156 0 -156 -309q0 -308 156 -308z" />
    <glyph glyph-name="zero.tab_salt_slash" 
d="M283 -14q-116 0 -177 99t-61 285q0 187 61 285.5t177 98.5t176.5 -98.5t60.5 -285.5t-60.5 -285.5t-176.5 -98.5zM128 370q0 -122 24 -196l233 453q-38 56 -102 56q-155 0 -155 -313zM283 56q154 0 154 314q0 123 -24 196l-234 -452q39 -58 104 -58z" />
    </font>
</defs>
</svg>
